<?xml version="1.0" encoding="UTF-8"?>
<svg version="1.1" xmlns="http://www.w3.org/2000/svg" width="469" height="469">
<path d="M0 0 C1.6875 1.4375 1.6875 1.4375 3 3 C3.66 3.33 4.32 3.66 5 4 C5.59355614 6.64860427 5.74209269 9.29197322 6 12 C7.60875 11.4740625 7.60875 11.4740625 9.25 10.9375 C13.92307692 9.76923077 13.92307692 9.76923077 17 11 C17.66 10.01 18.32 9.02 19 8 C19 8.66 19 9.32 19 10 C19.66 10.33 20.32 10.66 21 11 C21.1546875 11.99 21.1546875 11.99 21.3125 13 C21.6528125 13.99 21.6528125 13.99 22 15 C24.51176074 15.81931089 24.51176074 15.81931089 27 16 C27.33 14.68 27.66 13.36 28 12 C28.66 12 29.32 12 30 12 C30.495 13.485 30.495 13.485 31 15 C31.495 15.99 31.495 15.99 32 17 C32.99 17.33 33.98 17.66 35 18 C34.01 18.495 34.01 18.495 33 19 C35.05233685 21.2477975 36.00667261 22.0022242 39 23 C40.56118428 23.06740865 42.1250252 23.08514456 43.6875 23.0625 C44.49574219 23.05347656 45.30398437 23.04445313 46.13671875 23.03515625 C46.75160156 23.02355469 47.36648437 23.01195313 48 23 C48.495 24.485 48.495 24.485 49 26 C49.66 26.33 50.32 26.66 51 27 C48.61435923 26.42415568 46.33317216 25.77772405 44 25 C44.82959215 27.18351615 44.82959215 27.18351615 47.0625 27.9375 C47.701875 28.288125 48.34125 28.63875 49 29 C49 29.99 49 30.98 49 32 C50.32 31.34 51.64 30.68 53 30 C52.505 28.515 52.505 28.515 52 27 C53.485 27.495 53.485 27.495 55 28 C56.23867161 30.61497339 57.08503983 33.25511949 58 36 C60.81291133 37.01620453 60.81291133 37.01620453 63.0625 37.375 C65 38 65 38 67 41 C65.515 41.495 65.515 41.495 64 42 C64.99 42 65.98 42 67 42 C67.495 41.01 67.495 41.01 68 40 C69.65 40.33 71.3 40.66 73 41 C73 41.66 73 42.32 73 43 C73.94875 42.95875 74.8975 42.9175 75.875 42.875 C79 43 79 43 81 45 C79.35 45.66 77.7 46.32 76 47 C76 47.33 76 47.66 76 48 C76.94875 48.28875 77.8975 48.5775 78.875 48.875 C82 50 82 50 84 52 C86.96260526 53.23757877 86.96260526 53.23757877 90 54 C90.66 53.67 91.32 53.34 92 53 C92 53.99 92 54.98 92 56 C92.7425 55.9175 93.485 55.835 94.25 55.75 C97.78157027 56.07105184 98.76630364 57.35265617 101 60 C101.66 59.01 102.32 58.02 103 57 C104.485 57.99 104.485 57.99 106 59 C106.1875 61.625 106.1875 61.625 106 64 C109.49234244 64.09978121 112.59437148 63.77842938 116 63 C116 63.66 116 64.32 116 65 C116.99 65.33 117.98 65.66 119 66 C118.34 69.3 117.68 72.6 117 76 C121.23578792 73.89609059 121.23578792 73.89609059 123 70 C125 73 125 73 124.9375 75.5 C124.78061017 78.01239732 124.78061017 78.01239732 126.1875 79.8125 C128.55982525 81.36678206 130.22041345 81.22537188 133 81 C133 81.66 133 82.32 133 83 C136.3 83.33 139.6 83.66 143 84 C142.01 84.99 141.02 85.98 140 87 C139.34 87 138.68 87 138 87 C138.66 88.65 139.32 90.3 140 92 C138.68 92.33 137.36 92.66 136 93 C136 92.34 136 91.68 136 91 C135.195625 91.04125 134.39125 91.0825 133.5625 91.125 C132.716875 91.08375 131.87125 91.0425 131 91 C130.67 90.34 130.34 89.68 130 89 C130.33 88.01 130.66 87.02 131 86 C129.68 86 128.36 86 127 86 C126.67 85.34 126.34 84.68 126 84 C125.566875 84.495 125.13375 84.99 124.6875 85.5 C123 87 123 87 120 87 C120 86.34 120 85.68 120 85 C119.01 84.67 118.02 84.34 117 84 C117.66 83.34 118.32 82.68 119 82 C119.6425235 79.93125966 119.6425235 79.93125966 120 78 C117.23723823 78.52268466 114.6739124 79.10869587 112 80 C108.47068686 78.67650757 106.41961423 77.52790177 104.0625 74.5625 C102.90629812 71.77401311 102.88060112 70.74761543 104 68 C102.35 68 100.7 68 99 68 C99.556875 69.0725 100.11375 70.145 100.6875 71.25 C101.120625 72.4875 101.55375 73.725 102 75 C100.6875 77.4375 100.6875 77.4375 99 79 C97.515 78.505 97.515 78.505 96 78 C96 77.01 96 76.02 96 75 C95.01 75.495 95.01 75.495 94 76 C93.690625 74.906875 93.38125 73.81375 93.0625 72.6875 C92.41662103 70.44592006 91.7376883 68.2130649 91 66 C90.34 65.67 89.68 65.34 89 65 C88.505 66.485 88.505 66.485 88 68 C88 67.34 88 66.68 88 66 C87.34 66 86.68 66 86 66 C85.67 65.34 85.34 64.68 85 64 C81.54187831 63.66661404 81.54187831 63.66661404 78 64 C77.34 64.66 76.68 65.32 76 66 C73 64 73 64 72.3125 61.375 C72.209375 60.59125 72.10625 59.8075 72 59 C73.32 58.67 74.64 58.34 76 58 C75.81446109 56.00572641 75.81446109 56.00572641 75 54 C72.99427359 53.18553891 72.99427359 53.18553891 71 53 C70.505 53.99 70.505 53.99 70 55 C71.485 55.495 71.485 55.495 73 56 C72.01 56 71.02 56 70 56 C70.33 56.99 70.66 57.98 71 59 C69 59 69 59 67.375 57.5 C66.92125 57.005 66.4675 56.51 66 56 C65.34 57.32 64.68 58.64 64 60 C62 59.125 62 59.125 60 58 C60 57.34 60 56.68 60 56 C60.66 56 61.32 56 62 56 C61.01 54.02 61.01 54.02 60 52 C58.35 52.33 56.7 52.66 55 53 C54.505 49.535 54.505 49.535 54 46 C54.66 45.67 55.32 45.34 56 45 C56 44.34 56 43.68 56 43 C54.02 42.34 52.04 41.68 50 41 C51.32 40.34 52.64 39.68 54 39 C52.68 39 51.36 39 50 39 C50 38.34 50 37.68 50 37 C48.515 36.505 48.515 36.505 47 36 C47 35.34 47 34.68 47 34 C46.34 34 45.68 34 45 34 C44.34 35.98 43.68 37.96 43 40 C39.88742431 40 37.89234315 39.82638376 35 39 C35.08378906 38.37351563 35.16757813 37.74703125 35.25390625 37.1015625 C35.40666016 35.87566406 35.40666016 35.87566406 35.5625 34.625 C35.66691406 33.81289062 35.77132812 33.00078125 35.87890625 32.1640625 C36.18237328 29.95100814 36.18237328 29.95100814 35 28 C34.34 28 33.68 28 33 28 C33.66 28.66 34.32 29.32 35 30 C34.01 30 33.02 30 32 30 C32 31.98 32 33.96 32 36 C31.01 36 30.02 36 29 36 C28.67 35.01 28.34 34.02 28 33 C28.495 32.01 28.495 32.01 29 31 C28.01 30.34 27.02 29.68 26 29 C26 28.34 26 27.68 26 27 C25.34 27 24.68 27 24 27 C24 27.66 24 28.32 24 29 C23.34 29 22.68 29 22 29 C22 29.66 22 30.32 22 31 C21.34 31 20.68 31 20 31 C19.67 31.66 19.34 32.32 19 33 C17 32.125 17 32.125 15 31 C15 30.34 15 29.68 15 29 C13.35 28.34 11.7 27.68 10 27 C10.391875 26.4225 10.78375 25.845 11.1875 25.25 C11.455625 24.5075 11.72375 23.765 12 23 C10.71649673 20.73242436 10.71649673 20.73242436 9 19 C8.01 19.33 7.02 19.66 6 20 C6 19.34 6 18.68 6 18 C5.34 17.67 4.68 17.34 4 17 C3.34 16.34 2.68 15.68 2 15 C0.32577014 15.29299023 -1.34178227 15.62690101 -3 16 C-3.66 15.67 -4.32 15.34 -5 15 C-3.07423885 17.43929746 -1.19909405 19.80090595 1 22 C1 25.15987325 0.61785127 26.36034793 -1 29 C-1.99 29.66 -2.98 30.32 -4 31 C-4 30.34 -4 29.68 -4 29 C-7.89459074 28.78918149 -7.89459074 28.78918149 -11 30 C-11 30.66 -11 31.32 -11 32 C-9.35 32 -7.7 32 -6 32 C-6 35 -6 35 -8.125 37.75 C-11 40 -11 40 -14.3125 39.8125 C-15.199375 39.544375 -16.08625 39.27625 -17 39 C-16.01 38.505 -16.01 38.505 -15 38 C-16.0209375 36.6078125 -16.0209375 36.6078125 -17.0625 35.1875 C-17.701875 34.135625 -18.34125 33.08375 -19 32 C-18.505 30.515 -18.505 30.515 -18 29 C-18 29.66 -18 30.32 -18 31 C-17.34 31 -16.68 31 -16 31 C-16.33 30.01 -16.66 29.02 -17 28 C-15.25 25.3125 -15.25 25.3125 -13 23 C-12.01 23 -11.02 23 -10 23 C-10 22.34 -10 21.68 -10 21 C-10.99 21 -11.98 21 -13 21 C-12.62875 20.4225 -12.2575 19.845 -11.875 19.25 C-10.70833333 17 -10.70833333 17 -11.875 14.75 C-12.24625 14.1725 -12.6175 13.595 -13 13 C-12.195625 12.87625 -11.39125 12.7525 -10.5625 12.625 C-9.716875 12.08875 -8.87125 11.5525 -8 11 C-7.45347463 8.37755971 -7.3112333 5.89103205 -7.23828125 3.21484375 C-7.15964844 2.48394531 -7.08101562 1.75304688 -7 1 C-4.45132831 -0.27433584 -2.82594567 -0.27570202 0 0 Z M-4 9 C-4 9.99 -4 10.98 -4 12 C-3.01 11.67 -2.02 11.34 -1 11 C-1.33 10.34 -1.66 9.68 -2 9 C-2.66 9 -3.32 9 -4 9 Z M-2 13 C-2 13.66 -2 14.32 -2 15 C-1.34 14.67 -0.68 14.34 0 14 C-0.66 13.67 -1.32 13.34 -2 13 Z M28 17 C28.66 17.66 29.32 18.32 30 19 C30 18.34 30 17.68 30 17 C29.34 17 28.68 17 28 17 Z M32 23 C31.67 23.66 31.34 24.32 31 25 C31.99 25.33 32.98 25.66 34 26 C34.33 25.34 34.66 24.68 35 24 C34.01 23.67 33.02 23.34 32 23 Z M27 26 C28 28 28 28 28 28 Z M30 29 C31 31 31 31 31 31 Z M61 45 C60.34 45.66 59.68 46.32 59 47 C59.99 47.99 60.98 48.98 62 50 C62 48.35 62 46.7 62 45 C61.67 45 61.34 45 61 45 Z M77 57 C77.66 57.66 78.32 58.32 79 59 C79 58.34 79 57.68 79 57 C78.34 57 77.68 57 77 57 Z M128 83 C128 83.66 128 84.32 128 85 C128.99 85 129.98 85 131 85 C131 84.34 131 83.68 131 83 C130.01 83 129.02 83 128 83 Z M121 84 C122 86 122 86 122 86 Z " fill="#000000" transform="translate(208,34)"/>
<path d="M0 0 C1.65 0 3.3 0 5 0 C6 4.75 6 4.75 6 7 C3.525 6.505 3.525 6.505 1 6 C1 7.65 1 9.3 1 11 C-0.32 11.33 -1.64 11.66 -3 12 C-2.5359375 12.8971875 -2.5359375 12.8971875 -2.0625 13.8125 C-1 16 -1 16 0 19 C-0.94875 18.773125 -1.8975 18.54625 -2.875 18.3125 C-3.90625 18.209375 -4.9375 18.10625 -6 18 C-8.12508244 21.18762365 -8.5020163 23.26512223 -9 27 C-10.65 27.33 -12.3 27.66 -14 28 C-13.67 28.66 -13.34 29.32 -13 30 C-14.98 30.66 -16.96 31.32 -19 32 C-20.65 30.02 -22.3 28.04 -24 26 C-23.01 26 -22.02 26 -21 26 C-21 25.34 -21 24.68 -21 24 C-20.34 24 -19.68 24 -19 24 C-19 22.68 -19 21.36 -19 20 C-19.66 20 -20.32 20 -21 20 C-21 19.01 -21 18.02 -21 17 C-21.66 16.67 -22.32 16.34 -23 16 C-22.01 15.67 -21.02 15.34 -20 15 C-19.67 14.34 -19.34 13.68 -19 13 C-17.07421875 12.54296875 -17.07421875 12.54296875 -14.6875 12.1875 C-10.13180667 11.30086981 -8.7047132 9.8066334 -6 6 C-4.68 6 -3.36 6 -2 6 C-2 5.01 -2 4.02 -2 3 C-0.68 3 0.64 3 2 3 C1.34 2.67 0.68 2.34 0 2 C0 1.34 0 0.68 0 0 Z " fill="#000000" transform="translate(184,52)"/>
<path d="M0 0 C0.33 0.99 0.66 1.98 1 3 C-1.64738916 4.4606285 -2.89448334 5 -6 5 C-6 4.01 -6 3.02 -6 2 C-3.87645027 0.65508517 -2.527207 0 0 0 Z " fill="#000000" transform="translate(186,73)"/>
<path d="M0 0 C2.625 0.375 2.625 0.375 5 1 C5 1.66 5 2.32 5 3 C4.34 3 3.68 3 3 3 C2.896875 3.639375 2.79375 4.27875 2.6875 4.9375 C2.460625 5.618125 2.23375 6.29875 2 7 C1.01 7.33 0.02 7.66 -1 8 C-2 7 -2 7 -2.1875 4.5625 C-2 2 -2 2 0 0 Z " fill="#000000" transform="translate(190,74)"/>
<path d="M0 0 C4.21912747 0.4794463 6.79663178 1.16625119 10 4 C9.195625 4.0825 8.39125 4.165 7.5625 4.25 C6.716875 4.4975 5.87125 4.745 5 5 C4.10417827 6.99660454 4.10417827 6.99660454 4 9 C3 8 3 8 2.9375 5.4375 C2.958125 4.633125 2.97875 3.82875 3 3 C2.01 2.67 1.02 2.34 0 2 C0 1.34 0 0.68 0 0 Z " fill="#000000" transform="translate(252,75)"/>
<path d="M0 0 C5.52076677 2.18530351 5.52076677 2.18530351 7.25 5.125 C7.4975 5.74375 7.745 6.3625 8 7 C8.66 7.33 9.32 7.66 10 8 C9.195625 8.28875 8.39125 8.5775 7.5625 8.875 C4.8673532 9.73262568 4.8673532 9.73262568 4 12 C2.68 11.34 1.36 10.68 0 10 C0.37125 10.94875 0.7425 11.8975 1.125 12.875 C1.41375 13.90625 1.7025 14.9375 2 16 C1.34 16.66 0.68 17.32 0 18 C-0.12375 19.134375 -0.2475 20.26875 -0.375 21.4375 C-1 25 -1 25 -2.9375 26.9375 C-5 28 -5 28 -7 28 C-7.33 28.99 -7.66 29.98 -8 31 C-11.5625 31.6875 -11.5625 31.6875 -15 32 C-14.67 33.98 -14.34 35.96 -14 38 C-16.31 37.67 -18.62 37.34 -21 37 C-21 36.01 -21 35.02 -21 34 C-21.33 34.66 -21.66 35.32 -22 36 C-22.99 36 -23.98 36 -25 36 C-25 35.34 -25 34.68 -25 34 C-24.34 34 -23.68 34 -23 34 C-23.020625 33.40832031 -23.04125 32.81664062 -23.0625 32.20703125 C-22.99439034 29.59757972 -22.80399246 27.49112689 -22 25 C-19.58726228 22.76579467 -16.98367321 21.3525079 -14 20 C-13.37890625 21.828125 -13.37890625 21.828125 -13 24 C-14.9375 26.75 -14.9375 26.75 -17 29 C-13.11980141 27.74155722 -11.0588158 26.57583797 -9 23 C-9 22.01 -9 21.02 -9 20 C-8.34 19.67 -7.68 19.34 -7 19 C-7 18.01 -7 17.02 -7 16 C-7.721875 16.350625 -8.44375 16.70125 -9.1875 17.0625 C-12.3122705 18.10409017 -13.88161996 17.89096572 -17 17 C-17 16.01 -17 15.02 -17 14 C-15.68 14 -14.36 14 -13 14 C-12.34 12.02 -11.68 10.04 -11 8 C-12.65 8.33 -14.3 8.66 -16 9 C-15.67 8.01 -15.34 7.02 -15 6 C-10.87983486 4.54582407 -7.22736972 5.25399358 -3 6 C-2.87625 5.195625 -2.7525 4.39125 -2.625 3.5625 C-2.315625 2.2940625 -2.315625 2.2940625 -2 1 C-1.34 0.67 -0.68 0.34 0 0 Z M-2 9 C-1 11 -1 11 -1 11 Z " fill="#000000" transform="translate(160,88)"/>
<path d="M0 0 C0 0.99 0 1.98 0 3 C0.98189187 4.67739862 1.98133771 6.34467377 3 8 C3 8.66 3 9.32 3 10 C3.66 10.33 4.32 10.66 5 11 C2.69 11.66 0.38 12.32 -2 13 C-1.979375 14.134375 -1.95875 15.26875 -1.9375 16.4375 C-2 20 -2 20 -3 21 C-4.11375 20.938125 -5.2275 20.87625 -6.375 20.8125 C-10.04253947 20.5894561 -10.04253947 20.5894561 -11.9375 23 C-12.288125 23.66 -12.63875 24.32 -13 25 C-12.01 25.66 -11.02 26.32 -10 27 C-10.66 27 -11.32 27 -12 27 C-12 28.32 -12 29.64 -12 31 C-12.99 31 -13.98 31 -15 31 C-18.2676908 23.7618892 -18.2676908 23.7618892 -17.1875 20.6875 C-16.795625 20.130625 -16.40375 19.57375 -16 19 C-16 18.01 -16 17.02 -16 16 C-15.401875 15.979375 -14.80375 15.95875 -14.1875 15.9375 C-10.72810875 14.45490375 -10.39705966 11.34079483 -9 8 C-8.01 8 -7.02 8 -6 8 C-4.82624096 6.48952693 -4.82624096 6.48952693 -3.9375 4.5625 C-2.19433198 1.09716599 -2.19433198 1.09716599 0 0 Z " fill="#000000" transform="translate(139,97)"/>
<path d="M0 0 C2.6875 -0.4375 2.6875 -0.4375 5 0 C5.33 1.32 5.66 2.64 6 4 C4.35 4 2.7 4 1 4 C0.67 5.32 0.34 6.64 0 8 C-0.99 7.67 -1.98 7.34 -3 7 C-1.8125 3.5 -1.8125 3.5 0 0 Z " fill="#000000" transform="translate(166,98)"/>
<path d="M0 0 C-0.99 1.485 -0.99 1.485 -2 3 C-3.32 2.67 -4.64 2.34 -6 2 C-6 2.66 -6 3.32 -6 4 C-6.99 4 -7.98 4 -9 4 C-9.33 3.01 -9.66 2.02 -10 1 C-6.52674819 -0.1577506 -3.63932552 -0.06866652 0 0 Z " fill="#000000" transform="translate(121,118)"/>
<path d="M0 0 C0.66 0.33 1.32 0.66 2 1 C2 1.99 2 2.98 2 4 C2.66 4 3.32 4 4 4 C4 4.99 4 5.98 4 7 C5.98 7 7.96 7 10 7 C9.690625 7.7425 9.38125 8.485 9.0625 9.25 C8.1905075 11.50692176 7.52332993 13.6450153 7 16 C4.5 14.625 4.5 14.625 2 13 C2 12.34 2 11.68 2 11 C1.195625 10.938125 0.39125 10.87625 -0.4375 10.8125 C-1.283125 10.544375 -2.12875 10.27625 -3 10 C-4.15640526 7.14753369 -4.23382297 5.64750977 -3.1875 2.75 C-2 1 -2 1 0 0 Z " fill="#000000" transform="translate(116,124)"/>
<path d="M0 0 C1 3 1 3 2 6 C3.98 5.34 5.96 4.68 8 4 C8.33 5.65 8.66 7.3 9 9 C7.02 9.99 7.02 9.99 5 11 C5.33 12.32 5.66 13.64 6 15 C7.65 15 9.3 15 11 15 C11 14.34 11 13.68 11 13 C12.96317377 11.03682623 14.61756195 9.42946283 17 8 C19.75 8.3125 19.75 8.3125 22 9 C21.6875 11.4375 21.6875 11.4375 21 14 C20.01 14.33 19.02 14.66 18 15 C19.65 15.66 21.3 16.32 23 17 C23.33 15.35 23.66 13.7 24 12 C27.375 12.25 27.375 12.25 31 13 C32.1875 15.0625 32.1875 15.0625 33 17 C34.32 17 35.64 17 37 17 C37 17.66 37 18.32 37 19 C37.99 19.33 38.98 19.66 40 20 C40.5625 21.8125 40.5625 21.8125 41 24 C41.37125 24.639375 41.7425 25.27875 42.125 25.9375 C43.26573129 28.62636662 42.76706041 30.23858252 42 33 C40.68 33 39.36 33 38 33 C38.33 33.99 38.66 34.98 39 36 C39.99 36.495 39.99 36.495 41 37 C41 37.66 41 38.32 41 39 C42.32 39.33 43.64 39.66 45 40 C44.505 40.99 44.505 40.99 44 42 C44.99 42.495 44.99 42.495 46 43 C44.68 43.66 43.36 44.32 42 45 C42.99 45.33 43.98 45.66 45 46 C45 47.98 45 49.96 45 52 C46.32 52 47.64 52 49 52 C49 52.66 49 53.32 49 54 C50.32 54.33 51.64 54.66 53 55 C52.67 56.32 52.34 57.64 52 59 C52.99 59.495 52.99 59.495 54 60 C52 62 52 62 50.0546875 62.1953125 C48.03645833 62.13020833 46.01822917 62.06510417 44 62 C45.12534105 63.35618499 45.12534105 63.35618499 48.0625 63.0625 C49.031875 63.041875 50.00125 63.02125 51 63 C51 63.66 51 64.32 51 65 C51.99 65.99 51.99 65.99 53 67 C49.04 66.67 45.08 66.34 41 66 C41 66.99 41 67.98 41 69 C42.98 68.505 42.98 68.505 45 68 C45 69.65 45 71.3 45 73 C46.98 73 48.96 73 51 73 C51 73.99 51 74.98 51 76 C50.67 76 50.34 76 50 76 C50 76.66 50 77.32 50 78 C49.34 78 48.68 78 48 78 C48 79.32 48 80.64 48 82 C48.66 82 49.32 82 50 82 C49 84 49 84 47 86 C49.475 85.505 49.475 85.505 52 85 C52 85.66 52 86.32 52 87 C50.68 87 49.36 87 48 87 C47.67 89.64 47.34 92.28 47 95 C46.34 95 45.68 95 45 95 C45.04125 95.928125 45.0825 96.85625 45.125 97.8125 C45 101 45 101 43 104 C42.01 104.33 41.02 104.66 40 105 C39.67 105.66 39.34 106.32 39 107 C40.8871875 106.690625 40.8871875 106.690625 42.8125 106.375 C46.4014758 105.78664331 46.75073878 105.83382585 50 108 C49.01 108.33 48.02 108.66 47 109 C47.99 109 48.98 109 50 109 C50 109.66 50 110.32 50 111 C47.03 111.495 47.03 111.495 44 112 C44 112.66 44 113.32 44 114 C45.65 114 47.3 114 49 114 C49 114.66 49 115.32 49 116 C49.66 116 50.32 116 51 116 C50.67 116.66 50.34 117.32 50 118 C49.01 118 48.02 118 47 118 C47.99 118.99 48.98 119.98 50 121 C49.01 121.495 49.01 121.495 48 122 C48.33 122.66 48.66 123.32 49 124 C48.38125 124.5878125 48.38125 124.5878125 47.75 125.1875 C45.67115087 127.34059374 43.84531043 129.64563841 42 132 C42.99 132.33 43.98 132.66 45 133 C45.66 131.68 46.32 130.36 47 129 C47.04241723 131.33294775 47.04092937 133.66702567 47 136 C46.67 136.33 46.34 136.66 46 137 C46 138.32 46 139.64 46 141 C46 142.32 46 143.64 46 145 C45.67 145.33 45.34 145.66 45 146 C45.66 146.33 46.32 146.66 47 147 C47 146.34 47 145.68 47 145 C47.66 145.33 48.32 145.66 49 146 C49.30859375 147.85546875 49.30859375 147.85546875 49.4375 150.1875 C49.71712488 153.51661886 50.08777098 155.17554196 51.625 158.25 C53 161 53 161 52.9375 163.8125 C52.628125 164.534375 52.31875 165.25625 52 166 C49.9375 166.8125 49.9375 166.8125 48 167 C48 167.66 48 168.32 48 169 C48.99 169.33 49.98 169.66 51 170 C51 171.32 51 172.64 51 174 C49 175 49 175 47 175 C47.99 175.99 47.99 175.99 49 177 C47.515 179.475 47.515 179.475 46 182 C47.32 182 48.64 182 50 182 C50.495 184.475 50.495 184.475 51 187 C49.35 186.34 47.7 185.68 46 185 C46 184.34 46 183.68 46 183 C44.68 182.67 43.36 182.34 42 182 C43.83656989 184.96731398 43.83656989 184.96731398 46 187 C47.75984061 191.16804355 48.14481998 193.64968408 47 198 C47 199.32 47 200.64 47 202 C47.66 202.33 48.32 202.66 49 203 C49.44921875 204.92578125 49.44921875 204.92578125 49.6875 207.3125 C49.77386719 208.09238281 49.86023438 208.87226563 49.94921875 209.67578125 C50.00071387 212.03267341 49.80393176 213.78676617 49 216 C46.9375 217.25 46.9375 217.25 45 218 C44.67 217.67 44.34 217.34 44 217 C43.566875 218.155 43.13375 219.31 42.6875 220.5 C42.130625 221.655 41.57375 222.81 41 224 C40.01 224 39.02 224 38 224 C37.34 224.33 36.68 224.66 36 225 C36.33 225.66 36.66 226.32 37 227 C37.99 226.67 38.98 226.34 40 226 C40.33 226.99 40.66 227.98 41 229 C41.66 227.35 42.32 225.7 43 224 C43.99 224.99 43.99 224.99 45 226 C48.09926819 225.67801034 48.09926819 225.67801034 51 225 C52.125 232.75 52.125 232.75 51 235 C50.34 235 49.68 235 49 235 C48.690625 236.2375 48.38125 237.475 48.0625 238.75 C47.526976 240.89209599 46.99357129 243.02188158 46.37109375 245.140625 C45.78573665 247.08282467 45.78573665 247.08282467 47 249 C48 251 48 251 47.625 253.25 C47.41875 253.8275 47.2125 254.405 47 255 C46.01 255 45.02 255 44 255 C44 255.99 44 256.98 44 258 C44.66 258.33 45.32 258.66 46 259 C44.35 259.33 42.7 259.66 41 260 C41 260.66 41 261.32 41 262 C42.65 262 44.3 262 46 262 C46.33 263.65 46.66 265.3 47 267 C46.34 267.33 45.68 267.66 45 268 C44.01 267.67 43.02 267.34 42 267 C42 266.34 42 265.68 42 265 C41.01 265 40.02 265 39 265 C38.95710245 266.93109581 38.95710245 266.93109581 40 269 C42.31979381 270.03101947 44.65429915 271.02936517 47 272 C47.515625 272.70125 48.03125 273.4025 48.5625 274.125 C49.94875178 276.34292756 49.94875178 276.34292756 53.1875 276.75 C54.115625 276.8325 55.04375 276.915 56 277 C55.67 277.99 55.34 278.98 55 280 C56.32 280.33 57.64 280.66 59 281 C58.8125 282.9375 58.8125 282.9375 58 285 C56.33333333 285.33333333 54.66666667 285.66666667 53 286 C52.10417827 287.99660454 52.10417827 287.99660454 52 290 C49.69 290 47.38 290 45 290 C45.66 291.98 46.32 293.96 47 296 C46.34 296.33 45.68 296.66 45 297 C44.525625 297.53625 44.05125 298.0725 43.5625 298.625 C43.046875 299.07875 42.53125 299.5325 42 300 C41.01 299.67 40.02 299.34 39 299 C38.896875 299.639375 38.79375 300.27875 38.6875 300.9375 C38.460625 301.618125 38.23375 302.29875 38 303 C37.01 303.33 36.02 303.66 35 304 C33.4375 302.3125 33.4375 302.3125 32 300 C32.3125 297.25 32.3125 297.25 33 295 C32.01 294.67 31.02 294.34 30 294 C29.26953125 291.93359375 29.26953125 291.93359375 28.8125 289.4375 C28.65394531 288.61121094 28.49539063 287.78492188 28.33203125 286.93359375 C28.22246094 286.29550781 28.11289062 285.65742188 28 285 C27.34 285 26.68 285 26 285 C26 284.34 26 283.68 26 283 C26.66 282.67 27.32 282.34 28 282 C27.45291273 279.46255685 27.45291273 279.46255685 26 277 C22.94727535 276.10169161 22.94727535 276.10169161 20 276 C20.33 275.01 20.66 274.02 21 273 C21.66 273.33 22.32 273.66 23 274 C23 273.34 23 272.68 23 272 C23.66 272 24.32 272 25 272 C25.103125 271.195625 25.20625 270.39125 25.3125 269.5625 C25.539375 268.716875 25.76625 267.87125 26 267 C26.99 266.67 27.98 266.34 29 266 C28.34 264.35 27.68 262.7 27 261 C26.01 261 25.02 261 24 261 C24.33 262.32 24.66 263.64 25 265 C23.68 265.33 22.36 265.66 21 266 C21 266.66 21 267.32 21 268 C19.68 268 18.36 268 17 268 C17 267.34 17 266.68 17 266 C18.32 265.67 19.64 265.34 21 265 C20.67 263.35 20.34 261.7 20 260 C15.87026372 260.56739868 15.87026372 260.56739868 12 262 C12.25 259.625 12.25 259.625 13 257 C15 255.8125 15 255.8125 17 255 C17.33 254.34 17.66 253.68 18 253 C16.68 252.67 15.36 252.34 14 252 C14 250.68 14 249.36 14 248 C13.34 247.34 12.68 246.68 12 246 C13.98 244.02 13.98 244.02 16 242 C15.34 242 14.68 242 14 242 C14 241.34 14 240.68 14 240 C13.34 240 12.68 240 12 240 C11.67 239.01 11.34 238.02 11 237 C12.32 236.67 13.64 236.34 15 236 C15 235.34 15 234.68 15 234 C13.7934375 233.814375 13.7934375 233.814375 12.5625 233.625 C11.716875 233.41875 10.87125 233.2125 10 233 C9.505 232.01 9.505 232.01 9 231 C8.01 231.99 7.02 232.98 6 234 C5.01 233.34 4.02 232.68 3 232 C3.66 231.67 4.32 231.34 5 231 C5.46523063 229.10466658 5.46523063 229.10466658 5.625 226.9375 C5.74875 225.638125 5.8725 224.33875 6 223 C4.35 222.34 2.7 221.68 1 221 C1.59927826 217.64404172 2.84622436 215.62198774 5 213 C5 213.66 5 214.32 5 215 C6.3921875 214.4121875 6.3921875 214.4121875 7.8125 213.8125 C9.3903125 213.4103125 9.3903125 213.4103125 11 213 C12.875 214.125 12.875 214.125 14 216 C14 217.32 14 218.64 14 220 C15.32 217.36 16.64 214.72 18 212 C16.35 211.67 14.7 211.34 13 211 C13.33 208.69 13.66 206.38 14 204 C15.5 205.375 15.5 205.375 17 207 C17 207.66 17 208.32 17 209 C18.32 209 19.64 209 21 209 C21.66 207.02 22.32 205.04 23 203 C22.34 202.67 21.68 202.34 21 202 C22.65 201.67 24.3 201.34 26 201 C25.21681311 197.08406554 23.60820142 193.63593365 22 190 C21.21625 190.226875 20.4325 190.45375 19.625 190.6875 C18.75875 190.790625 17.8925 190.89375 17 191 C16.34 190.01 15.68 189.02 15 188 C11.964349 186.07742103 10.78149076 186 7 186 C6.67 184.35 6.34 182.7 6 181 C7.32 181.33 8.64 181.66 10 182 C11.50930183 178.6136749 11.50930183 178.6136749 12 175 C13.65 174.67 15.3 174.34 17 174 C17 173.34 17 172.68 17 172 C15.54054712 172.08708669 14.08234132 172.19526907 12.625 172.3125 C11.40683594 172.39951172 11.40683594 172.39951172 10.1640625 172.48828125 C7.62078662 172.82990528 7.62078662 172.82990528 6 176 C5.01 175.67 4.02 175.34 3 175 C3 173.68 3 172.36 3 171 C4.32 171 5.64 171 7 171 C7 169.35 7 167.7 7 166 C6.01 166 5.02 166 4 166 C3.67 164.68 3.34 163.36 3 162 C5.4375 162.3125 5.4375 162.3125 8 163 C9 166 9 166 9 169 C9.391875 168.525625 9.78375 168.05125 10.1875 167.5625 C12.40808374 165.64820367 14.13375709 165.38733012 17 165 C17 164.01 17 163.02 17 162 C15.02 162.33 13.04 162.66 11 163 C11 162.34 11 161.68 11 161 C10.34 161 9.68 161 9 161 C9.15597656 160.26394531 9.31195313 159.52789062 9.47265625 158.76953125 C9.66730469 157.79371094 9.86195313 156.81789063 10.0625 155.8125 C10.25972656 154.84957031 10.45695312 153.88664063 10.66015625 152.89453125 C11.00814948 149.93058895 10.88352885 147.84243854 10 145 C9.34 144.67 8.68 144.34 8 144 C8 144.66 8 145.32 8 146 C5.5625 145.6875 5.5625 145.6875 3 145 C2.67 144.01 2.34 143.02 2 142 C2 142.99 2 143.98 2 145 C2 145.66 2 146.32 2 147 C0.68 147.33 -0.64 147.66 -2 148 C-2 149.32 -2 150.64 -2 152 C-2.66 152 -3.32 152 -4 152 C-4.185625 151.071875 -4.185625 151.071875 -4.375 150.125 C-4.87197356 147.80879168 -4.87197356 147.80879168 -7 146 C-6.34 145.67 -5.68 145.34 -5 145 C-4.34 145.33 -3.68 145.66 -3 146 C-3 143.69 -3 141.38 -3 139 C-0.69 139 1.62 139 4 139 C4 138.01 4 137.02 4 136 C3.34 136 2.68 136 2 136 C2 134.02 2 132.04 2 130 C1.01 129.67 0.02 129.34 -1 129 C-3.1875 128.125 -3.1875 128.125 -5 127 C-5 123.56169885 -4.62599243 120.38035912 -4 117 C-3.01 116.505 -3.01 116.505 -2 116 C-1.01 117.65 -0.02 119.3 1 121 C1 119.35 1 117.7 1 116 C1.66 116 2.32 116 3 116 C3.33 116.66 3.66 117.32 4 118 C4.66 118 5.32 118 6 118 C6.75 119.5625 6.75 119.5625 7 122 C5.86915563 124.50286409 4.47860484 126.67007722 3 129 C5.31 129.33 7.62 129.66 10 130 C10 129.01 10 128.02 10 127 C9.34 126.67 8.68 126.34 8 126 C7.67 126.66 7.34 127.32 7 128 C6.67 127.01 6.34 126.02 6 125 C6.99 124.5978125 6.99 124.5978125 8 124.1875 C8.99 123.5996875 8.99 123.5996875 10 123 C10 122.01 10 121.02 10 120 C11.98 119.505 11.98 119.505 14 119 C14 119.66 14 120.32 14 121 C17.465 121.495 17.465 121.495 21 122 C21.33 120.35 21.66 118.7 22 117 C20.515 116.505 20.515 116.505 19 116 C19 113.33333333 19 110.66666667 19 108 C17.68 108 16.36 108 15 108 C15.75 106.0625 15.75 106.0625 17 104 C19.125 103.25 19.125 103.25 21 103 C19.515 102.01 19.515 102.01 18 101 C17.2575 101.804375 16.515 102.60875 15.75 103.4375 C13.09008525 105.91605692 12.3120489 106.29027524 9 107 C8.67 107.99 8.34 108.98 8 110 C8 109.34 8 108.68 8 108 C6.515 107.505 6.515 107.505 5 107 C5.33 105.68 5.66 104.36 6 103 C5.34 103 4.68 103 4 103 C3.34 104.65 2.68 106.3 2 108 C1.34 108 0.68 108 0 108 C0.33 108.99 0.66 109.98 1 111 C-0.75 111.75 -0.75 111.75 -3 112 C-5.25 110.0625 -5.25 110.0625 -7 108 C-4.53721199 105.53721199 -2.29323018 105.00228745 1 104 C0.34 102.68 -0.32 101.36 -1 100 C-0.67 101.32 -0.34 102.64 0 104 C-3 104 -6 104 -9 104 C-8.67 102.35 -8.34 100.7 -8 99 C-7.34 99 -6.68 99 -6 99 C-6 98.34 -6 97.68 -6 97 C-6.66 96.67 -7.32 96.34 -8 96 C-6.68 96 -5.36 96 -4 96 C-3.67 95.01 -3.34 94.02 -3 93 C-2.34 93 -1.68 93 -1 93 C-0.67 94.32 -0.34 95.64 0 97 C0.99 96.505 0.99 96.505 2 96 C2.33 95.01 2.66 94.02 3 93 C3.99 93 4.98 93 6 93 C5.67 95.97 5.34 98.94 5 102 C5.78375 101.814375 6.5675 101.62875 7.375 101.4375 C10 101 10 101 12 102 C11.67 101.01 11.34 100.02 11 99 C11.99 98.505 11.99 98.505 13 98 C13.83492354 95.57540213 13.83492354 95.57540213 14 93 C13.34 92.34 12.68 91.68 12 91 C12.99 90.505 12.99 90.505 14 90 C13.67 89.01 13.34 88.02 13 87 C15.97 86.505 15.97 86.505 19 86 C19 85.34 19 84.68 19 84 C15.49064814 84 12.43515002 84.37542727 9 85 C8.68918919 78.16216216 8.68918919 78.16216216 11 75 C11.99 75 12.98 75 14 75 C14 74.01 14 73.02 14 72 C10.6700329 71.33169229 10.6700329 71.33169229 7 72 C5.55384538 74.00439668 4.70828885 75.9458173 3.82421875 78.25 C3.41623047 79.11625 3.41623047 79.11625 3 80 C2.34 80 1.68 80 1 80 C0 78.1875 0 78.1875 -1 76 C-1.66 75.01 -2.32 74.02 -3 73 C1.24528302 68.26954178 1.24528302 68.26954178 4.625 67.0625 C7 67 7 67 10 69 C12.75 67.91666667 12.75 67.91666667 15 66 C15 65.01 15 64.02 15 63 C25.55808656 62.81548975 25.55808656 62.81548975 30 64 C30 63.34 30 62.68 30 62 C29.00419922 61.96132812 29.00419922 61.96132812 27.98828125 61.921875 C22.48233744 61.56820854 18.95813608 61.2134997 15 57 C14.67 56.34 14.34 55.68 14 55 C13.01 55 12.02 55 11 55 C10.67 53.02 10.34 51.04 10 49 C9.34 49 8.68 49 8 49 C8 49.66 8 50.32 8 51 C6.625 52.625 6.625 52.625 5 54 C4.34 54 3.68 54 3 54 C1.375 52 1.375 52 0 50 C2.97 49.505 2.97 49.505 6 49 C6 47.68 6 46.36 6 45 C7.65 45.33 9.3 45.66 11 46 C10.95875 45.195625 10.9175 44.39125 10.875 43.5625 C10.91625 42.716875 10.9575 41.87125 11 41 C11.99 40.505 11.99 40.505 13 40 C13 40.99 13 41.98 13 43 C14.11375 43.185625 14.11375 43.185625 15.25 43.375 C17.80141485 43.95486701 19.7267573 44.73708739 22 46 C22 44.35 22 42.7 22 41 C19.36 41.33 16.72 41.66 14 42 C14 41.01 14 40.02 14 39 C14.99 38.505 14.99 38.505 16 38 C16.16671852 35.4582293 16.16671852 35.4582293 16 33 C18.90600261 31.74335022 20.79604584 31 24 31 C24 30.34 24 29.68 24 29 C23.34 28.67 22.68 28.34 22 28 C21.67 28.33 21.34 28.66 21 29 C20.05125 29.103125 19.1025 29.20625 18.125 29.3125 C14.44454189 30.12220078 14.02990649 31.00347137 12 34 C11.01 34 10.02 34 9 34 C9 35.98 9 37.96 9 40 C8.071875 39.62875 7.14375 39.2575 6.1875 38.875 C5.135625 38.58625 4.08375 38.2975 3 38 C2.01 38.66 1.02 39.32 0 40 C0 39.34 0 38.68 0 38 C-1.98 38.495 -1.98 38.495 -4 39 C-4 38.34 -4 37.68 -4 37 C-3.34 37 -2.68 37 -2 37 C-2 36.34 -2 35.68 -2 35 C1.13349732 33.95550089 1.98968256 34.06576355 5 35 C4.22520264 32.00847418 4.22520264 32.00847418 3 29 C2.01 28.67 1.02 28.34 0 28 C1.5 25.875 1.5 25.875 4 24 C6.89070012 24.25376375 9.21627986 25.07209329 12 26 C12 25.01 12 24.02 12 23 C11.401875 22.95875 10.80375 22.9175 10.1875 22.875 C6.90249924 21.5609997 6.42680407 19.11302707 5 16 C4.34 15.67 3.68 15.34 3 15 C3 14.01 3 13.02 3 12 C-1.455 12.495 -1.455 12.495 -6 13 C-5.67 11.68 -5.34 10.36 -5 9 C-5.0825 7.989375 -5.165 6.97875 -5.25 5.9375 C-5.1675 4.968125 -5.085 3.99875 -5 3 C-2.5 1.125 -2.5 1.125 0 0 Z M31 26 C31.8499169 28.03327085 31.8499169 28.03327085 33 30 C33.66 30 34.32 30 35 30 C35 28.35 35 26.7 35 25 C32.9254644 24.8509288 32.9254644 24.8509288 31 26 Z M5 27 C4.67 27.99 4.34 28.98 4 30 C6.97 30.495 6.97 30.495 10 31 C9.67 29.68 9.34 28.36 9 27 C7.68 27 6.36 27 5 27 Z M34 38 C35 40 35 40 35 40 Z M30.0625 41.5 C28 42 28 42 25 42 C25.33 42.99 25.66 43.98 26 45 C26.99 45 27.98 45 29 45 C29 45.66 29 46.32 29 47 C31.00339546 46.89582173 31.00339546 46.89582173 33 46 C33.81931089 43.48823926 33.81931089 43.48823926 34 41 C31.98926305 40.91670733 31.98926305 40.91670733 30.0625 41.5 Z M28 48 C28.33 48.66 28.66 49.32 29 50 C29.33 49.34 29.66 48.68 30 48 C29.34 48 28.68 48 28 48 Z M33 53 C33.33 54.65 33.66 56.3 34 58 C34.99 57.67 35.98 57.34 37 57 C36.34 56.67 35.68 56.34 35 56 C34.67 55.01 34.34 54.02 34 53 C33.67 53 33.34 53 33 53 Z M41 55 C41 55.66 41 56.32 41 57 C41.66 57 42.32 57 43 57 C43 56.34 43 55.68 43 55 C42.34 55 41.68 55 41 55 Z M46 58 C46.33 58.99 46.66 59.98 47 61 C47 60.34 47 59.68 47 59 C47.99 59.33 48.98 59.66 50 60 C50 59.34 50 58.68 50 58 C48.68 58 47.36 58 46 58 Z M18 70 C18 71.32 18 72.64 18 74 C18.99 74.33 19.98 74.66 21 75 C23.19038423 73.62831762 23.19038423 73.62831762 25 72 C22.35261084 70.5393715 21.10551666 70 18 70 Z M12 81 C14.4582293 81.16671852 14.4582293 81.16671852 17 81 C17.33 80.34 17.66 79.68 18 79 C15.53721199 79 14.14775881 79.85452863 12 81 Z M42 100 C43 102 43 102 43 102 Z M27 103 C25.77472052 104.95021083 25.77472052 104.95021083 25 107 C28.32534757 108.10844919 30.62182575 107.84454356 34 107 C34 106.34 34 105.68 34 105 C31.41023913 103.39256222 30.1068598 103 27 103 Z M36 105 C37 107 37 107 37 107 Z M22 110 C22 111.32 22 112.64 22 114 C23.98 114.495 23.98 114.495 26 115 C26 113.68 26 112.36 26 111 C24.68 110.67 23.36 110.34 22 110 Z M2 125 C3 127 3 127 3 127 Z M4 132 C5 134 5 134 5 134 Z M11 132 C10.67 132.66 10.34 133.32 10 134 C10.66 134 11.32 134 12 134 C11.67 133.34 11.34 132.68 11 132 Z M22 138 C22 139.32 22 140.64 22 142 C23.32 141.67 24.64 141.34 26 141 C25.67 140.01 25.34 139.02 25 138 C24.01 138 23.02 138 22 138 Z M15 141 C13.77472052 142.95021083 13.77472052 142.95021083 13 145 C14.65 144.34 16.3 143.68 18 143 C18 142.34 18 141.68 18 141 C17.01 141 16.02 141 15 141 Z M20 152 C19.67 152.99 19.34 153.98 19 155 C20.37514541 156.7087646 20.37514541 156.7087646 22 158 C22.5534764 155.92446352 23 154.15634036 23 152 C22.01 152 21.02 152 20 152 Z M22 161 C22 161.99 22 162.98 22 164 C24.97 164.495 24.97 164.495 28 165 C28 164.34 28 163.68 28 163 C25.18490007 160.7226499 25.18490007 160.7226499 22 161 Z M41 164 C41.34786708 165.97536745 41.34786708 165.97536745 42 168 C42.66 168.33 43.32 168.66 44 169 C44.99 168.67 45.98 168.34 47 168 C47 167.34 47 166.68 47 166 C47.66 166 48.32 166 49 166 C48.67 165.34 48.34 164.68 48 164 C44.42464981 162.9238946 44.42464981 162.9238946 41 164 Z M25 173 C25.66 173.66 26.32 174.32 27 175 C27 174.34 27 173.68 27 173 C26.34 173 25.68 173 25 173 Z M38 176 C38 176.99 38 177.98 38 179 C39.32 178.34 40.64 177.68 42 177 C40.68 176.67 39.36 176.34 38 176 Z M21 180 C21.23870425 182.61098043 21.23870425 182.61098043 22 185 C22.99 185 23.98 185 25 185 C25 182.69 25 180.38 25 178 C23.53774984 177.90754997 23.53774984 177.90754997 21 180 Z M29 197 C29 197.66 29 198.32 29 199 C29.99 198.67 30.98 198.34 32 198 C31.01 197.67 30.02 197.34 29 197 Z M24 202 C25 204 25 204 25 204 Z M41 212 C41 212.66 41 213.32 41 214 C41.66 214 42.32 214 43 214 C43 213.34 43 212.68 43 212 C42.34 212 41.68 212 41 212 Z M19 216 C18.67 216.99 18.34 217.98 18 219 C16.08373387 221.62225892 15.0677766 221.98538152 11.8125 222.6875 C10.4203125 222.8421875 10.4203125 222.8421875 9 223 C8.67 224.65 8.34 226.3 8 228 C8.99 228.495 8.99 228.495 10 229 C10 227.68 10 226.36 10 225 C12.64 225.33 15.28 225.66 18 226 C18 224.68 18 223.36 18 222 C19.32 222 20.64 222 22 222 C22.66 220.02 23.32 218.04 24 216 C22.35 216 20.7 216 19 216 Z M30 216 C29.7226499 219.18490007 29.7226499 219.18490007 32 222 C35.08365871 222.2502157 35.08365871 222.2502157 38 222 C38 221.34 38 220.68 38 220 C36.68 220 35.36 220 34 220 C33.67 218.68 33.34 217.36 33 216 C32.01 216 31.02 216 30 216 Z M36 217 C35.67 217.66 35.34 218.32 35 219 C35.66 219 36.32 219 37 219 C36.67 218.34 36.34 217.68 36 217 Z M5 218 C5 218.66 5 219.32 5 220 C6.32 220 7.64 220 9 220 C8.67 219.34 8.34 218.68 8 218 C7.01 218 6.02 218 5 218 Z M27 239 C27 239.99 27 240.98 27 242 C27.99 241.67 28.98 241.34 30 241 C30 240.34 30 239.68 30 239 C29.01 239 28.02 239 27 239 Z M38 246 C39.485 246.99 39.485 246.99 41 248 C41 247.34 41 246.68 41 246 C40.01 246 39.02 246 38 246 Z M20 254 C20.33 254.99 20.66 255.98 21 257 C21.99 257.33 22.98 257.66 24 258 C24.33 257.34 24.66 256.68 25 256 C22.525 255.01 22.525 255.01 20 254 Z M26 256 C27 258 27 258 27 258 Z M32 262 C32 262.66 32 263.32 32 264 C35.26954202 263.43628586 36.82575883 262.50037734 39 260 C35.8931402 260 34.58976087 260.39256222 32 262 Z M53 282 C53 282.66 53 283.32 53 284 C53.66 283.67 54.32 283.34 55 283 C54.34 282.67 53.68 282.34 53 282 Z M39 283 C39 283.66 39 284.32 39 285 C39.66 285 40.32 285 41 285 C41 285.66 41 286.32 41 287 C41.66 287 42.32 287 43 287 C43.33 287.66 43.66 288.32 44 289 C44.66 287.68 45.32 286.36 46 285 C43.69 284.34 41.38 283.68 39 283 Z M47 286 C48 288 48 288 48 288 Z " fill="#000000" transform="translate(356,124)"/>
<path d="M0 0 C1.32 0.33 2.64 0.66 4 1 C4 2.32 4 3.64 4 5 C4.9590625 5.433125 4.9590625 5.433125 5.9375 5.875 C6.9584375 6.431875 6.9584375 6.431875 8 7 C8.75 10.125 8.75 10.125 9 13 C9.66 13 10.32 13 11 13 C11 13.99 11 14.98 11 16 C12.32 16 13.64 16 15 16 C15.33 15.01 15.66 14.02 16 13 C16.99 12.67 17.98 12.34 19 12 C19 13.32 19 14.64 19 16 C18.01 16.495 18.01 16.495 17 17 C17.66 17.66 18.32 18.32 19 19 C17.02 19.66 15.04 20.32 13 21 C13.515625 22.19625 14.03125 23.3925 14.5625 24.625 C16.03377634 28.49822051 15.92576053 30.92665367 15 35 C15.0557408 37.22915167 15.0557408 37.22915167 16 39 C17.9837767 40.28436734 17.9837767 40.28436734 20 41 C19.34 42.32 18.68 43.64 18 45 C19.32 45 20.64 45 22 45 C22 45.66 22 46.32 22 47 C20.35 47 18.7 47 17 47 C17 48.98 17 50.96 17 53 C15.35 53.66 13.7 54.32 12 55 C16.32734391 57.22923777 19.28400182 56.92470553 24 56 C25.06775224 57.96466413 26.06553465 59.96855359 27 62 C26.505 62.99 26.505 62.99 26 64 C25.92895323 65.79037868 25.91588483 67.5833426 25.9375 69.375 C25.94652344 70.33148438 25.95554688 71.28796875 25.96484375 72.2734375 C25.97644531 73.17320312 25.98804688 74.07296875 26 75 C26 77.53388127 25.98957677 80.06780195 25.96484375 82.6015625 C25.95560358 83.94270747 25.94649236 85.28385334 25.9375 86.625 C25.92493164 87.6459375 25.92493164 87.6459375 25.91210938 88.6875 C25.82899646 92.46880568 25.82899646 92.46880568 27 96 C26.505 97.670625 26.505 97.670625 26 99.375 C25.02937925 102.89350022 24.98924262 103.74311511 26 107 C25.83886719 107.56203125 25.67773438 108.1240625 25.51171875 108.703125 C24.83101943 111.75847768 25.11283838 114.44844509 25.375 117.5625 C25.46523437 118.69816406 25.55546875 119.83382812 25.6484375 121.00390625 C25.90243097 124.04648078 25.90243097 124.04648078 27 127 C26.67 127.99 26.34 128.98 26 130 C26.32550502 131.66821323 26.65846063 133.33499557 27 135 C26.67 135.66 26.34 136.32 26 137 C25.01 137 24.02 137 23 137 C23.22816406 137.62648438 23.45632812 138.25296875 23.69140625 138.8984375 C24.12259766 140.12433594 24.12259766 140.12433594 24.5625 141.375 C24.99755859 142.59316406 24.99755859 142.59316406 25.44140625 143.8359375 C26 146 26 146 25 148 C25.66 148.33 26.32 148.66 27 149 C27.75 151.875 27.75 151.875 28 155 C27.34 155.99 26.68 156.98 26 158 C26.30271961 159.34061543 26.63837971 160.67405895 27 162 C26.5625 164.25 26.5625 164.25 26 166 C26.66 166 27.32 166 28 166 C28.027193 167.58323688 28.04648306 169.16661062 28.0625 170.75 C28.07410156 171.63171875 28.08570313 172.5134375 28.09765625 173.421875 C28 176 28 176 27.43359375 178.140625 C26.77968074 180.21139456 26.77968074 180.21139456 28 183 C28 184.32 28 185.64 28 187 C28.33 187.99 28.66 188.98 29 190 C28.34 190.33 27.68 190.66 27 191 C27.99 193.475 27.99 193.475 29 196 C28.01 196 27.02 196 26 196 C26.33 196.99 26.66 197.98 27 199 C26.0625 201.0625 26.0625 201.0625 25 203 C25 203.66 25 204.32 25 205 C25.66 205 26.32 205 27 205 C27 205.66 27 206.32 27 207 C27.66 207 28.32 207 29 207 C28.79375 208.051875 28.5875 209.10375 28.375 210.1875 C27.7101937 213.87032634 27.7101937 213.87032634 29.0625 216.5625 C30.35730672 219.92899747 29.3546439 221.76390624 28 225 C28.66 225 29.32 225 30 225 C30.33 227.64 30.66 230.28 31 233 C29.02 233.99 29.02 233.99 27 235 C28.32 235.33 29.64 235.66 31 236 C31 236.66 31 237.32 31 238 C30.34 238.66 29.68 239.32 29 240 C29.99 240.33 30.98 240.66 32 241 C31.34 241 30.68 241 30 241 C29.67 241.66 29.34 242.32 29 243 C28.67 243.33 28.34 243.66 28 244 C28.99 244 29.98 244 31 244 C31.96891192 249.37305699 31.96891192 249.37305699 32 252 C30.5625 254 30.5625 254 29 255 C29.66 255.66 30.32 256.32 31 257 C30.67 257.66 30.34 258.32 30 259 C28.68 259 27.36 259 26 259 C26.20625 260.27875 26.4125 261.5575 26.625 262.875 C26.9765625 265.0546875 26.9765625 265.0546875 27 267 C26.34 267.66 25.68 268.32 25 269 C24.71125 268.195625 24.4225 267.39125 24.125 266.5625 C23.26737432 263.8673532 23.26737432 263.8673532 21 263 C21 262.34 21 261.68 21 261 C20.34 260.67 19.68 260.34 19 260 C19.165 260.639375 19.33 261.27875 19.5 261.9375 C20 264 20 264 20 265 C20.66 265.33 21.32 265.66 22 266 C21.43628586 269.26954202 20.50037734 270.82575883 18 273 C21.62885324 273.15149298 21.62885324 273.15149298 25 272 C25 272.66 25 273.32 25 274 C25.94875 274 26.8975 274 27.875 274 C29.58333333 274 31.29166667 274 33 274 C33.639375 273.79375 34.27875 273.5875 34.9375 273.375 C37 273 37 273 40 275 C39.67 275.66 39.34 276.32 39 277 C39.99 277 40.98 277 42 277 C41.67 277.99 41.34 278.98 41 280 C39.68 280 38.36 280 37 280 C37 279.01 37 278.02 37 277 C36.34 277 35.68 277 35 277 C36.22934015 280.68802044 37.93859378 281.72356973 41 284 C37.77208445 286.1519437 36.71599191 286.20086443 33 286 C34.63412443 287.70840281 35.86906094 288.93453047 38 290 C38.33 289.01 38.66 288.02 39 287 C41.06640625 286.26953125 41.06640625 286.26953125 43.5625 285.8125 C44.80193359 285.57466797 44.80193359 285.57466797 46.06640625 285.33203125 C46.70449219 285.22246094 47.34257812 285.11289062 48 285 C47.38722388 282.03824877 46.74627478 280.61941217 45 278 C45.33 277.67 45.66 277.34 46 277 C45.01 276.34 44.02 275.68 43 275 C43.99 274.67 44.98 274.34 46 274 C46 273.34 46 272.68 46 272 C49.14566269 270.9868699 51.08209621 271.06575669 54.25 271.9375 C58.63232092 273.02036205 62.49718723 273.16373865 67 273 C67 273.66 67 274.32 67 275 C67.68964844 274.855625 68.37929687 274.71125 69.08984375 274.5625 C73.8278818 273.62659125 78.28434667 272.87528107 83.125 273 C84.40375 273 85.6825 273 87 273 C87.33 272.34 87.66 271.68 88 271 C88.99 271.66 89.98 272.32 91 273 C90.34 274.32 89.68 275.64 89 277 C88.21625 276.649375 87.4325 276.29875 86.625 275.9375 C85.325625 275.4734375 85.325625 275.4734375 84 275 C83.34 275.33 82.68 275.66 82 276 C82.97069651 278.98142499 83.90821536 281.81643072 85.3125 284.625 C85.539375 285.40875 85.76625 286.1925 86 287 C84.625 289.3125 84.625 289.3125 83 291 C84.27875 290.814375 85.5575 290.62875 86.875 290.4375 C90.75 289.875 90.75 289.875 93 291 C92.67 290.01 92.34 289.02 92 288 C92.33 287.01 92.66 286.02 93 285 C93.66 285.33 94.32 285.66 95 286 C95.125 288.5625 95.125 288.5625 95 291 C95.99 290.67 96.98 290.34 98 290 C100.1875 291.9375 100.1875 291.9375 102 294 C101.34 294.33 100.68 294.66 100 295 C99.34 294.67 98.68 294.34 98 294 C98.27617533 295.94074861 98.27617533 295.94074861 99 298 C99.99 298.66 100.98 299.32 102 300 C102 300.66 102 301.32 102 302 C102.66 302.33 103.32 302.66 104 303 C99.25 307 99.25 307 97 307 C97 306.34 97 305.68 97 305 C96.01 305.33 95.02 305.66 94 306 C93.34 305.34 92.68 304.68 92 304 C89.55987051 303.75712511 89.55987051 303.75712511 86.875 303.875 C85.96492188 303.89304687 85.05484375 303.91109375 84.1171875 303.9296875 C83.41851562 303.95289063 82.71984375 303.97609375 82 304 C81.67 305.32 81.34 306.64 81 308 C80.34 308 79.68 308 79 308 C79 307.34 79 306.68 79 306 C77.68 306.33 76.36 306.66 75 307 C75 307.66 75 308.32 75 309 C74.01 309.33 73.02 309.66 72 310 C72 307 72 307 74 304 C72.68 304 71.36 304 70 304 C70 303.01 70 302.02 70 301 C70.99 300.34 71.98 299.68 73 299 C70.69 299 68.38 299 66 299 C66.66 300.32 67.32 301.64 68 303 C67.34 303.66 66.68 304.32 66 305 C65.01 304.67 64.02 304.34 63 304 C63 303.34 63 302.68 63 302 C62.34 302 61.68 302 61 302 C61 301.34 61 300.68 61 300 C61.66 300 62.32 300 63 300 C62.67 298.02 62.34 296.04 62 294 C60.02 294.33 58.04 294.66 56 295 C56.99 296.98 57.98 298.96 59 301 C57.68 301 56.36 301 55 301 C54.67 301.66 54.34 302.32 54 303 C54.99 303.33 55.98 303.66 57 304 C54 305 54 305 51.8125 304.0625 C51.214375 303.711875 50.61625 303.36125 50 303 C50 303.99 50 304.98 50 306 C47.66130747 306.7517226 46.38308089 307.11971278 44 306.375 C41.86063831 305.73117536 41.86063831 305.73117536 39.875 307.4375 C39.25625 307.953125 38.6375 308.46875 38 309 C37.34 309 36.68 309 36 309 C36.99 306.03 37.98 303.06 39 300 C40.98 300.66 42.96 301.32 45 302 C45 299.36 45 296.72 45 294 C44.34 294 43.68 294 43 294 C43 294.66 43 295.32 43 296 C41.68 296.33 40.36 296.66 39 297 C39 297.66 39 298.32 39 299 C36.36 299.66 33.72 300.32 31 301 C31 301.99 31 302.98 31 304 C29.35 304.33 27.7 304.66 26 305 C26 304.01 26 303.02 26 302 C25.34 302 24.68 302 24 302 C24 301.34 24 300.68 24 300 C23.4225 299.855625 22.845 299.71125 22.25 299.5625 C20.8087485 299.20218713 19.37076089 298.82838933 17.9375 298.4375 C15.84332634 297.88986956 15.84332634 297.88986956 13 298 C12.61077082 296.71254964 12.23901964 295.41980403 11.875 294.125 C11.66617188 293.40570313 11.45734375 292.68640625 11.2421875 291.9453125 C11.16226563 291.30335938 11.08234375 290.66140625 11 290 C11.66 289.34 12.32 288.68 13 288 C12.34 287.34 11.68 286.68 11 286 C11.66 285.67 12.32 285.34 13 285 C13.99 285.33 14.98 285.66 16 286 C16 284.35 16 282.7 16 281 C11.9472484 280.01751476 8.16138263 279.91840426 4 280 C4 280.99 4 281.98 4 283 C5.98 283.66 7.96 284.32 10 285 C10 285.66 10 286.32 10 287 C9.01 287 8.02 287 7 287 C6.6596875 288.2065625 6.6596875 288.2065625 6.3125 289.4375 C5.879375 290.283125 5.44625 291.12875 5 292 C2.375 292.8125 2.375 292.8125 0 293 C-0.0825 292.2575 -0.165 291.515 -0.25 290.75 C-1.16096373 287.40979966 -2.35636147 286.19044335 -5 284 C-5.721875 283.71125 -6.44375 283.4225 -7.1875 283.125 C-9 282 -9 282 -9.75 278.875 C-9.8325 277.92625 -9.915 276.9775 -10 276 C-10.99 276.66 -11.98 277.32 -13 278 C-15 276.625 -15 276.625 -17 275 C-17 274.34 -17 273.68 -17 273 C-17.99 272.67 -18.98 272.34 -20 272 C-19.01 271.34 -18.02 270.68 -17 270 C-17 269.67 -17 269.34 -17 269 C-14.03 268.34 -11.06 267.68 -8 267 C-8 267.66 -8 268.32 -8 269 C-5.69 268.67 -3.38 268.34 -1 268 C0.06546953 271.1964086 0.07427838 273.65747276 0 277 C0.99 276.34 1.98 275.68 3 275 C5.0078125 274.875 5.0078125 274.875 7.125 275 C8.40375 275 9.6825 275 11 275 C11.33 274.34 11.66 273.68 12 273 C11.34 272.67 10.68 272.34 10 272 C10 271.34 10 270.68 10 270 C9.01 270.66 8.02 271.32 7 272 C5.68 272 4.36 272 3 272 C3.1875 269.5625 3.1875 269.5625 4 267 C6.5625 266.1875 6.5625 266.1875 9 266 C9.33 263.69 9.66 261.38 10 259 C5.89776415 257.98459888 5.89776415 257.98459888 2 259 C2.3403125 257.3603125 2.3403125 257.3603125 2.6875 255.6875 C3.40146383 252.09468727 3.40146383 252.09468727 1.5625 250.0625 C1.046875 249.711875 0.53125 249.36125 0 249 C0.66 248.34 1.32 247.68 2 247 C1.67028521 243.70285207 1.3773161 242.3773161 -1 240 C-0.34 239.67 0.32 239.34 1 239 C0.34 238.67 -0.32 238.34 -1 238 C-1.6328125 235.93359375 -1.6328125 235.93359375 -2.125 233.4375 C-2.29257813 232.61121094 -2.46015625 231.78492188 -2.6328125 230.93359375 C-2.75398438 230.29550781 -2.87515625 229.65742188 -3 229 C-3.9075 229.495 -4.815 229.99 -5.75 230.5 C-9 232 -9 232 -13 232 C-12.4375 230.0625 -12.4375 230.0625 -11 228 C-7.5 227.3125 -7.5 227.3125 -4 227 C-3.34 226.67 -2.68 226.34 -2 226 C0.125 226.4375 0.125 226.4375 2 227 C2.33 226.34 2.66 225.68 3 225 C2.10636395 222.39068734 2.10636395 222.39068734 1 220 C-0.65 221.65 -2.3 223.3 -4 225 C-4.99 222.525 -4.99 222.525 -6 220 C-8.31 220.33 -10.62 220.66 -13 221 C-12.67 219.68 -12.34 218.36 -12 217 C-9.69 217.33 -7.38 217.66 -5 218 C-5 215.36 -5 212.72 -5 210 C-3.68 210 -2.36 210 -1 210 C-1.45375 209.54625 -1.9075 209.0925 -2.375 208.625 C-3.58333333 207.41666667 -4.79166667 206.20833333 -6 205 C-5.125 202.375 -5.125 202.375 -4 200 C-5.65 199.67 -7.3 199.34 -9 199 C-9 198.34 -9 197.68 -9 197 C-7.02 196.67 -5.04 196.34 -3 196 C-3.61875 195.649375 -4.2375 195.29875 -4.875 194.9375 C-7.75554253 192.31112298 -8.15462838 189.73372463 -9 186 C-9.556875 186.309375 -10.11375 186.61875 -10.6875 186.9375 C-13.12540433 188.05761821 -15.36224186 188.56037364 -18 189 C-18 187.35 -18 185.7 -18 184 C-17.34 184 -16.68 184 -16 184 C-17.03406673 182.74050951 -17.03406673 182.74050951 -19.28515625 182.90234375 C-20.20167969 182.91394531 -21.11820313 182.92554688 -22.0625 182.9375 C-22.98160156 182.94652344 -23.90070313 182.95554687 -24.84765625 182.96484375 C-25.55792969 182.97644531 -26.26820312 182.98804688 -27 183 C-27.33 182.01 -27.66 181.02 -28 180 C-26.515 179.01 -26.515 179.01 -25 178 C-23.78715124 174.94570927 -23.78715124 174.94570927 -23 172 C-21.02 172.66 -19.04 173.32 -17 174 C-17 174.66 -17 175.32 -17 176 C-15.68 176.33 -14.36 176.66 -13 177 C-13 177.66 -13 178.32 -13 179 C-12.01 179 -11.02 179 -10 179 C-9.94832473 176.57732914 -9.94832473 176.57732914 -11 174 C-14.47307328 172.13016255 -14.47307328 172.13016255 -18 171 C-17.67 170.34 -17.34 169.68 -17 169 C-12.98058936 168.54063878 -9.66433377 169.33439374 -6 171 C-5.125 173.125 -5.125 173.125 -5 175 C-1.27385847 173.88145414 -1.27385847 173.88145414 1 171 C0.01 171.33 -0.98 171.66 -2 172 C-4.1875 170.6875 -4.1875 170.6875 -6 169 C-6 168.34 -6 167.68 -6 167 C-6.99 166.67 -7.98 166.34 -9 166 C-9 165.34 -9 164.68 -9 164 C-10.32 163.67 -11.64 163.34 -13 163 C-13 162.01 -13 161.02 -13 160 C-12.34 160 -11.68 160 -11 160 C-11 159.34 -11 158.68 -11 158 C-11.99 158 -12.98 158 -14 158 C-14 157.34 -14 156.68 -14 156 C-14.66 156 -15.32 156 -16 156 C-16.33 155.01 -16.66 154.02 -17 153 C-19.43717258 153.27034634 -19.43717258 153.27034634 -22 154 C-22.66 154.99 -23.32 155.98 -24 157 C-23.01 157.33 -22.02 157.66 -21 158 C-22.98 158.99 -22.98 158.99 -25 160 C-26 159 -26 159 -26.0625 156.4375 C-26.041875 155.633125 -26.02125 154.82875 -26 154 C-25.34 154 -24.68 154 -24 154 C-24.20625 153.29875 -24.4125 152.5975 -24.625 151.875 C-25.07850357 148.39813928 -24.27540277 146.22601877 -23 143 C-21.5 144.375 -21.5 144.375 -20 146 C-20 146.66 -20 147.32 -20 148 C-17.525 147.01 -17.525 147.01 -15 146 C-15 145.34 -15 144.68 -15 144 C-13.68 144.33 -12.36 144.66 -11 145 C-9.68373308 141.38026598 -9 138.90432869 -9 135 C-8.814375 133.989375 -8.62875 132.97875 -8.4375 131.9375 C-7.76583259 128.9482863 -7.76583259 128.9482863 -9 126 C-8.34 126 -7.68 126 -7 126 C-7 124.68 -7 123.36 -7 122 C-8.485 121.505 -8.485 121.505 -10 121 C-9.34 119.02 -8.68 117.04 -8 115 C-9.65 114.34 -11.3 113.68 -13 113 C-12.67 114.32 -12.34 115.64 -12 117 C-16.875 112.25 -16.875 112.25 -18 110 C-17.29296875 108.08984375 -17.29296875 108.08984375 -16.1875 105.9375 C-15.83042969 105.22464844 -15.47335938 104.51179688 -15.10546875 103.77734375 C-14 102 -14 102 -12 101 C-12.66 100.67 -13.32 100.34 -14 100 C-14.495 99.01 -14.495 99.01 -15 98 C-15.391875 97.38125 -15.78375 96.7625 -16.1875 96.125 C-17 94 -17 94 -16.125 91.75 C-15.75375 91.1725 -15.3825 90.595 -15 90 C-14.38125 90.495 -13.7625 90.99 -13.125 91.5 C-11.16119096 93.19222773 -11.16119096 93.19222773 -9 93 C-7.8499169 91.03327085 -7.8499169 91.03327085 -7 89 C-7.928125 89.103125 -8.85625 89.20625 -9.8125 89.3125 C-13 89 -13 89 -14.875 87.0625 C-16.36746796 82.99967055 -16.43805571 79.2878915 -16 75 C-15.67 74.34 -15.34 73.68 -15 73 C-16.485 72.505 -16.485 72.505 -18 72 C-17.01 71.01 -17.01 71.01 -16 70 C-15.34 70.33 -14.68 70.66 -14 71 C-11.86655232 69.6083124 -11.86655232 69.6083124 -10 68 C-11.5778125 67.4121875 -11.5778125 67.4121875 -13.1875 66.8125 C-16.999572 65.12429668 -19.61476354 63.53938314 -22 60 C-21.9506033 56.78372614 -21.39338612 53.90689172 -20 51 C-17.3260876 50.10869587 -14.76276177 49.52268466 -12 49 C-11.67 47.02 -11.34 45.04 -11 43 C-13.832168 42.66551741 -13.832168 42.66551741 -17 43 C-19.37719693 44.87501931 -19.37719693 44.87501931 -21 47 C-20.34 47.33 -19.68 47.66 -19 48 C-20.98 48.495 -20.98 48.495 -23 49 C-23 48.01 -23 47.02 -23 46 C-24.32467746 45.3162955 -25.65863633 44.65035814 -27 44 C-27.495 42.515 -27.495 42.515 -28 41 C-28.66 41 -29.32 41 -30 41 C-30 42.65 -30 44.3 -30 46 C-31.98 45.67 -33.96 45.34 -36 45 C-36.34454953 40.17630663 -35.86298537 36.97123777 -33 33 C-30.67843403 32.59270772 -28.3431213 32.25561323 -26 32 C-24.51603346 30.19907702 -24.51603346 30.19907702 -24 28 C-23.67 27.01 -23.34 26.02 -23 25 C-23.99 24.67 -24.98 24.34 -26 24 C-25.67 23.01 -25.34 22.02 -25 21 C-23.8553125 21.309375 -23.8553125 21.309375 -22.6875 21.625 C-19.78114056 22.33391203 -19.78114056 22.33391203 -17 20 C-17.33 18.68 -17.66 17.36 -18 16 C-17.34 16 -16.68 16 -16 16 C-16 15.01 -16 14.02 -16 13 C-14.68 13 -13.36 13 -12 13 C-12 13.66 -12 14.32 -12 15 C-11.34 15 -10.68 15 -10 15 C-9.731875 14.236875 -9.46375 13.47375 -9.1875 12.6875 C-8.05575888 10.12619116 -7.08776599 8.80307062 -5 7 C-4.34 7.33 -3.68 7.66 -3 8 C-2.505 9.485 -2.505 9.485 -2 11 C0.2773501 8.18490007 0.2773501 8.18490007 0 5 C0 3.33333333 0 1.66666667 0 0 Z M-10 15 C-9.1500831 17.03327085 -9.1500831 17.03327085 -8 19 C-7.34 19 -6.68 19 -6 19 C-6 19.66 -6 20.32 -6 21 C-7.32 21 -8.64 21 -10 21 C-10 21.66 -10 22.32 -10 23 C-10.598125 22.79375 -11.19625 22.5875 -11.8125 22.375 C-14.28450846 21.69328085 -14.28450846 21.69328085 -17 24 C-16.7602129 27.10615338 -16.7602129 27.10615338 -16 30 C-15.2575 29.525625 -14.515 29.05125 -13.75 28.5625 C-11.30910774 27.1756294 -9.6871949 26.57001104 -7 26 C-4.99617991 25.34490497 -2.99541868 24.68025637 -1 24 C-1.33 22.02 -1.66 20.04 -2 18 C-1.34 18 -0.68 18 0 18 C1.125 20 1.125 20 2 22 C2.556875 21.319375 3.11375 20.63875 3.6875 19.9375 C4.450625 19.298125 5.21375 18.65875 6 18 C8.75 18.25 8.75 18.25 11 19 C11 18.34 11 17.68 11 17 C10.34 17 9.68 17 9 17 C7.875 15 7.875 15 7 13 C6.67 13.66 6.34 14.32 6 15 C2.5 15.25 2.5 15.25 -1 15 C-1.33 14.34 -1.66 13.68 -2 13 C-5.20395416 13 -7.09399739 13.74335022 -10 15 Z M-6 27 C-7.77190909 28.35444301 -7.77190909 28.35444301 -9 30 C-8.01 31.65 -7.02 33.3 -6 35 C-3.77810176 32.77810176 -3.07401108 30.91517292 -2 28 C-3.83700789 27.22757731 -3.83700789 27.22757731 -6 27 Z M2 30 C1.83328148 32.4582293 1.83328148 32.4582293 2 35 C2.99 35.495 2.99 35.495 4 36 C4.66 35.67 5.32 35.34 6 35 C6 34.01 6 33.02 6 32 C5.34 32 4.68 32 4 32 C4 31.34 4 30.68 4 30 C3.34 30 2.68 30 2 30 Z M10 32 C10 32.66 10 33.32 10 34 C10.66 34 11.32 34 12 34 C12 33.34 12 32.68 12 32 C11.34 32 10.68 32 10 32 Z M-19 34 C-15 35 -15 35 -15 35 Z M8 34 C9 36 9 36 9 36 Z M-30 35 C-30.33 35.99 -30.66 36.98 -31 38 C-30.01 38.33 -29.02 38.66 -28 39 C-27.34 38.67 -26.68 38.34 -26 38 C-26 37.34 -26 36.68 -26 36 C-27.32 35.67 -28.64 35.34 -30 35 Z M-17 36 C-17.33 36.66 -17.66 37.32 -18 38 C-17.34 38 -16.68 38 -16 38 C-16.33 37.34 -16.66 36.68 -17 36 Z M7 36 C8 38 8 38 8 38 Z M-15 53 C-15.99 54.485 -15.99 54.485 -17 56 C-19.125 56.6875 -19.125 56.6875 -21 57 C-21 57.66 -21 58.32 -21 59 C-19.68 59 -18.36 59 -17 59 C-15.9739266 60.31337396 -14.97272675 61.64664105 -14 63 C-13.01 63 -12.02 63 -11 63 C-10.03555469 58.79673786 -10.03555469 58.79673786 -10.75 54.625 C-11.1625 54.08875 -11.575 53.5525 -12 53 C-12.99 53 -13.98 53 -15 53 Z M-8 58 C-7.01 59.485 -7.01 59.485 -6 61 C-5.01 61 -4.02 61 -3 61 C-3 61.66 -3 62.32 -3 63 C-2.34 62.67 -1.68 62.34 -1 62 C-1.6237206 59.91764174 -1.6237206 59.91764174 -3 58 C-5.58416247 57.66625723 -5.58416247 57.66625723 -8 58 Z M-5 67 C-6.22527948 68.95021083 -6.22527948 68.95021083 -7 71 C-6.01 71.33 -5.02 71.66 -4 72 C-3.01 71.34 -2.02 70.68 -1 70 C-1.33 69.01 -1.66 68.02 -2 67 C-2.99 67 -3.98 67 -5 67 Z M-12 77 C-11.67 77.99 -11.34 78.98 -11 80 C-9.68 80 -8.36 80 -7 80 C-6.67 79.01 -6.34 78.02 -6 77 C-9 75.66666667 -9 75.66666667 -12 77 Z M-13 81 C-13 81.99 -13 82.98 -13 84 C-12.01 83.01 -11.02 82.02 -10 81 C-10.99 81 -11.98 81 -13 81 Z M-2 90 C-2 90.66 -2 91.32 -2 92 C-0.68 92.33 0.64 92.66 2 93 C1.02149805 91.97895449 0.02019573 90.9793879 -1 90 C-1.33 90 -1.66 90 -2 90 Z M16 101 C16.33 101.99 16.66 102.98 17 104 C17.66 103.34 18.32 102.68 19 102 C18.01 101.67 17.02 101.34 16 101 Z M-13 106 C-13.33 106.99 -13.66 107.98 -14 109 C-13.01 108.67 -12.02 108.34 -11 108 C-11.66 107.34 -12.32 106.68 -13 106 Z M7 118 C7 118.66 7 119.32 7 120 C7.66 120 8.32 120 9 120 C9 119.34 9 118.68 9 118 C8.34 118 7.68 118 7 118 Z M20 121 C20.33 122.32 20.66 123.64 21 125 C21.66 125 22.32 125 23 125 C22.67 123.68 22.34 122.36 22 121 C21.34 121 20.68 121 20 121 Z M21 132 C21 132.66 21 133.32 21 134 C21.66 134 22.32 134 23 134 C23 133.34 23 132.68 23 132 C22.34 132 21.68 132 21 132 Z M-7 137 C-6.67 137.99 -6.34 138.98 -6 140 C-6 139.01 -6 138.02 -6 137 C-6.33 137 -6.66 137 -7 137 Z M-7 141 C-7 141.66 -7 142.32 -7 143 C-6.34 143 -5.68 143 -5 143 C-5 142.34 -5 141.68 -5 141 C-5.66 141 -6.32 141 -7 141 Z M-1 144 C0.98 144.99 0.98 144.99 3 146 C3 145.34 3 144.68 3 144 C1.68 144 0.36 144 -1 144 Z M0 147 C-0.33 147.66 -0.66 148.32 -1 149 C0.32 148.67 1.64 148.34 3 148 C2.01 147.67 1.02 147.34 0 147 Z M-9 152 C-9.33 152.99 -9.66 153.98 -10 155 C-9.34 155 -8.68 155 -8 155 C-7.67 154.01 -7.34 153.02 -7 152 C-7.66 152 -8.32 152 -9 152 Z M-4 152 C-3.34 152.66 -2.68 153.32 -2 154 C-2 153.34 -2 152.68 -2 152 C-2.66 152 -3.32 152 -4 152 Z M2 168 C1.67 168.99 1.34 169.98 1 171 C2.32 171.33 3.64 171.66 5 172 C5.33 171.01 5.66 170.02 6 169 C4.68 168.67 3.36 168.34 2 168 Z M-17 177 C-16.67 177.66 -16.34 178.32 -16 179 C-15.34 178.67 -14.68 178.34 -14 178 C-14.99 177.67 -15.98 177.34 -17 177 Z M2 196 C2 197.32 2 198.64 2 200 C2.66 199.67 3.32 199.34 4 199 C3.67 198.01 3.34 197.02 3 196 C2.67 196 2.34 196 2 196 Z M21 204 C21 205.98 21 207.96 21 210 C21.66 210 22.32 210 23 210 C23 209.34 23 208.68 23 208 C23.66 208 24.32 208 25 208 C25 207.34 25 206.68 25 206 C23.03327085 204.8499169 23.03327085 204.8499169 21 204 Z M15 209 C13.16666667 210.75 13.16666667 210.75 12 213 C12.33 213.99 12.66 214.98 13 216 C15.21679774 216.21267262 15.21679774 216.21267262 17.1875 214.1875 C17.785625 213.465625 18.38375 212.74375 19 212 C18.67 211.01 18.34 210.02 18 209 C17.01 209 16.02 209 15 209 Z M24 216 C23.34 217.98 22.68 219.96 22 222 C22.99 222.33 23.98 222.66 25 223 C25.33 220.69 25.66 218.38 26 216 C25.34 216 24.68 216 24 216 Z M2 230 C2 230.99 2 231.98 2 233 C2.99 233.33 3.98 233.66 5 234 C4.67 232.68 4.34 231.36 4 230 C3.34 230 2.68 230 2 230 Z M8 246 C7.67 246.66 7.34 247.32 7 248 C8.32 247.67 9.64 247.34 11 247 C10.01 246.67 9.02 246.34 8 246 Z M5 269 C6 271 6 271 6 271 Z M12 270 C13 272 13 272 13 272 Z M73 277 C73 277.66 73 278.32 73 279 C73.66 279 74.32 279 75 279 C75 278.34 75 277.68 75 277 C74.34 277 73.68 277 73 277 Z M47 278 C48 280 48 280 48 280 Z M60 279 C60.33 280.32 60.66 281.64 61 283 C62.98 282.67 64.96 282.34 67 282 C66.1500831 279.96672915 66.1500831 279.96672915 65 278 C62.78918149 277.89459074 62.78918149 277.89459074 60 279 Z M72.375 281.375 C70.78468592 282.89968321 70.78468592 282.89968321 71 285 C71.99 285 72.98 285 74 285 C74.66 283.35 75.32 281.7 76 280 C73.89968321 279.78468592 73.89968321 279.78468592 72.375 281.375 Z M71 287 C69.77472052 288.95021083 69.77472052 288.95021083 69 291 C70.65 290.67 72.3 290.34 74 290 C74 289.01 74 288.02 74 287 C73.01 287 72.02 287 71 287 Z M57 289 C57.33 289.99 57.66 290.98 58 292 C58.99 292 59.98 292 61 292 C60.67 291.01 60.34 290.02 60 289 C59.01 289 58.02 289 57 289 Z M28 293 C28 293.99 28 294.98 28 296 C29.06645115 297.29633621 29.06645115 297.29633621 31.5625 297.0625 C32.366875 297.041875 33.17125 297.02125 34 297 C32.36526484 293.87525373 32.36526484 293.87525373 29.875 293.3125 C29.25625 293.209375 28.6375 293.10625 28 293 Z M87 294 C88 296 88 296 88 296 Z M70 295 C70.66 295.66 71.32 296.32 72 297 C72.33 296.34 72.66 295.68 73 295 C72.01 295 71.02 295 70 295 Z M96 298 C96 298.66 96 299.32 96 300 C96.66 299.67 97.32 299.34 98 299 C97.34 298.67 96.68 298.34 96 298 Z M75 304 C75.33 304.66 75.66 305.32 76 306 C76.33 305.34 76.66 304.68 77 304 C76.34 304 75.68 304 75 304 Z " fill="#000000" transform="translate(105,128)"/>
<path d="M0 0 C0.99 0.33 1.98 0.66 3 1 C4.35211268 6.29577465 4.35211268 6.29577465 3 9 C3.721875 8.7525 4.44375 8.505 5.1875 8.25 C8 8 8 8 10.75 9.75 C13 12 13 12 14 15 C17.08067249 16.93968268 20.54723408 17.90139266 24 19 C23.34 19.99 22.68 20.98 22 22 C21.34 22 20.68 22 20 22 C20 22.66 20 23.32 20 24 C5.04522613 21.91073012 5.04522613 21.91073012 1 18 C-0.51227356 14.08960227 -1 10.17689052 -1 6 C-1.66 6 -2.32 6 -3 6 C-2.625 3.5625 -2.625 3.5625 -2 1 C-1.34 0.67 -0.68 0.34 0 0 Z " fill="#000000" transform="translate(404,156)"/>
<path d="M0 0 C1.875 0.125 1.875 0.125 4 1 C5.25 4.0625 5.25 4.0625 6 7 C4.68 7.33 3.36 7.66 2 8 C1.67 7.34 1.34 6.68 1 6 C1.66 6 2.32 6 3 6 C3 4.68 3 3.36 3 2 C2.01 2 1.02 2 0 2 C0 1.34 0 0.68 0 0 Z " fill="#000000" transform="translate(76,177)"/>
<path d="M0 0 C1.98 0.495 1.98 0.495 4 1 C4 2.32 4 3.64 4 5 C2.0625 4.625 2.0625 4.625 0 4 C-0.33 3.34 -0.66 2.68 -1 2 C-0.67 1.34 -0.34 0.68 0 0 Z " fill="#000000" transform="translate(126,178)"/>
<path d="M0 0 C2.125 6.75 2.125 6.75 1 9 C1.89363605 11.60931266 1.89363605 11.60931266 3 14 C-0.37817425 14.84454356 -2.67465243 15.10844919 -6 14 C-5.835 13.4225 -5.67 12.845 -5.5 12.25 C-4.85537969 9.73335631 -4.85537969 9.73335631 -5 6 C-4.34 5.01 -3.68 4.02 -3 3 C-4.32 3 -5.64 3 -7 3 C-7 2.34 -7 1.68 -7 1 C-4.53721199 -0.231394 -2.7204945 -0.07159196 0 0 Z " fill="#000000" transform="translate(76,182)"/>
<path d="M0 0 C1.0725 0.350625 2.145 0.70125 3.25 1.0625 C7.25435111 2.06715761 7.25435111 2.06715761 11 1 C11 1.66 11 2.32 11 3 C11.99 3.33 12.98 3.66 14 4 C17.02252649 6.5780373 18.0870058 8.21759544 19 12 C19.99 12.33 20.98 12.66 22 13 C21.67 14.32 21.34 15.64 21 17 C19.68 17 18.36 17 17 17 C17.495 18.485 17.495 18.485 18 20 C18.76570313 19.91492188 19.53140625 19.82984375 20.3203125 19.7421875 C23 20 23 20 24.6171875 21.7578125 C26.60224873 25.49367307 27.96925821 28.15460069 28.125 32.4375 C27 35 27 35 24.4375 36.375 C23.633125 36.58125 22.82875 36.7875 22 37 C22.99 37 23.98 37 25 37 C25.99 37.33 26.98 37.66 28 38 C28.25 43.625 28.25 43.625 26 47 C22.875 48.1875 22.875 48.1875 20 49 C21.32 50.98 22.64 52.96 24 55 C25.32 54.34 26.64 53.68 28 53 C27.34 55.31 26.68 57.62 26 60 C24.02 60 22.04 60 20 60 C20 60.99 20 61.98 20 63 C21.98 63 23.96 63 26 63 C28.16326727 67.96278962 28.63078519 72.80118815 27 78 C26.01 78.33 25.02 78.66 24 79 C23.505 80.485 23.505 80.485 23 82 C22.34 82 21.68 82 21 82 C20.5875 81.505 20.175 81.01 19.75 80.5 C17.23177499 78.34152142 15.20624415 78.78625039 12 79 C12.66 80.32 13.32 81.64 14 83 C13.01 83.33 12.02 83.66 11 84 C8 82 8 82 7 80 C6.44570313 80.15597656 5.89140625 80.31195313 5.3203125 80.47265625 C4.59585937 80.66730469 3.87140625 80.86195313 3.125 81.0625 C2.40570313 81.25972656 1.68640625 81.45695312 0.9453125 81.66015625 C-1 82 -1 82 -3 81 C-2.67 79.68 -2.34 78.36 -2 77 C-4.82029569 75.7308986 -4.82029569 75.7308986 -6.9375 76.625 C-9 77 -9 77 -11.25 75.5625 C-11.8275 75.046875 -12.405 74.53125 -13 74 C-12 71 -12 71 -10 69 C-10 68.34 -10 67.68 -10 67 C-8.68 67 -7.36 67 -6 67 C-6.33 65.68 -6.66 64.36 -7 63 C-7.99 63.99 -7.99 63.99 -9 65 C-9.61875 65.103125 -10.2375 65.20625 -10.875 65.3125 C-13.97676921 66.31601357 -15.14364292 68.41435978 -17 71 C-17.7425 70.38125 -18.485 69.7625 -19.25 69.125 C-21.48801188 67.39562719 -23.43739987 66.13893339 -26 65 C-24.94124926 61.59687262 -23.99097846 58.98646769 -22 56 C-22.495 54.515 -22.495 54.515 -23 53 C-21.02 53 -19.04 53 -17 53 C-15.875 58.75 -15.875 58.75 -17 61 C-12.03322246 59.29988157 -12.03322246 59.29988157 -8.375 55.8125 C-7.92125 55.214375 -7.4675 54.61625 -7 54 C-4.375 53.875 -4.375 53.875 -2 54 C-1.67 53.34 -1.34 52.68 -1 52 C0.98 53.32 2.96 54.64 5 56 C4.01 56.495 4.01 56.495 3 57 C3 57.66 3 58.32 3 59 C4.485 58.505 4.485 58.505 6 58 C6.35979646 55.93797705 6.35979646 55.93797705 6.3125 53.5625 C6.50390625 51.09375 6.50390625 51.09375 7 49 C9.75 47.5625 9.75 47.5625 13 47 C15.75256244 46.15020525 15.75256244 46.15020525 18 45 C18.33 44.01 18.66 43.02 19 42 C18.113125 42.28875 17.22625 42.5775 16.3125 42.875 C13 43 13 43 11.48828125 41.73046875 C10.24842907 40.21351494 9.11689179 38.60963817 8 37 C8.66 36.01 9.32 35.02 10 34 C8.05396726 33.40929986 8.05396726 33.40929986 6 33 C5.67 33.33 5.34 33.66 5 34 C5 34.66 5 35.32 5 36 C3.35 36 1.7 36 0 36 C-0.125 28.25 -0.125 28.25 1 26 C-1.475 27.485 -1.475 27.485 -4 29 C-3.34 29 -2.68 29 -2 29 C-2.33 29.99 -2.66 30.98 -3 32 C-5.0625 32.6875 -5.0625 32.6875 -7 33 C-7.33 32.34 -7.66 31.68 -8 31 C-8.66 31 -9.32 31 -10 31 C-10.87867729 27.26562152 -11.08912219 23.83225427 -11 20 C-12.65 20.66 -14.3 21.32 -16 22 C-16 20.68 -16 19.36 -16 18 C-16.66 17.34 -17.32 16.68 -18 16 C-17.67 15.34 -17.34 14.68 -17 14 C-17.99 14 -18.98 14 -20 14 C-20 13.34 -20 12.68 -20 12 C-22.61941217 10.25372522 -24.03824877 9.61277612 -27 9 C-26.01 9 -25.02 9 -24 9 C-23.67 7.35 -23.34 5.7 -23 4 C-22.67 4.66 -22.34 5.32 -22 6 C-19.69467163 7.30635274 -17.52428777 8.15857074 -15 9 C-15 9.99 -15 10.98 -15 12 C-12.36 12.33 -9.72 12.66 -7 13 C-6.34 10.36 -5.68 7.72 -5 5 C-5.99 4.67 -6.98 4.34 -8 4 C-8 3.01 -8 2.02 -8 1 C-6.66666667 1.33333333 -5.33333333 1.66666667 -4 2 C-3.29359375 2.17660156 -2.5871875 2.35320312 -1.859375 2.53515625 C0.09375 3.0234375 2.046875 3.51171875 4 4 C4 3.34 4 2.68 4 2 C2.68 2 1.36 2 0 2 C0 1.34 0 0.68 0 0 Z M-2 6 C-2.33 6.66 -2.66 7.32 -3 8 C-1.68 7.67 -0.36 7.34 1 7 C0.01 6.67 -0.98 6.34 -2 6 Z M0 19 C0.66 20.32 1.32 21.64 2 23 C3.32 22.67 4.64 22.34 6 22 C6 21.01 6 20.02 6 19 C2.95086772 17.98888907 2.95086772 17.98888907 0 19 Z M-9 23 C-9.33 23.66 -9.66 24.32 -10 25 C-9.34 25 -8.68 25 -8 25 C-8.33 24.34 -8.66 23.68 -9 23 Z M-5 23 C-5 23.66 -5 24.32 -5 25 C-4.01 24.67 -3.02 24.34 -2 24 C-2.99 23.67 -3.98 23.34 -5 23 Z M7 29 C8 31 8 31 8 31 Z M9 30 C8.67 30.66 8.34 31.32 8 32 C8.66 32 9.32 32 10 32 C9.67 31.34 9.34 30.68 9 30 Z M5 60 C5.33 60.99 5.66 61.98 6 63 C7.98 62.01 9.96 61.02 12 60 C8.39999872 58.91737221 8.39999872 58.91737221 5 60 Z M-3 63 C-3.33 63.66 -3.66 64.32 -4 65 C-3.01 65.33 -2.02 65.66 -1 66 C-1 65.01 -1 64.02 -1 63 C-1.66 63 -2.32 63 -3 63 Z M8 63 C7.67 65.31 7.34 67.62 7 70 C9.49552484 69.21869929 9.49552484 69.21869929 12 68 C12.33 67.01 12.66 66.02 13 65 C10.525 64.01 10.525 64.01 8 63 Z M16 68 C16 68.66 16 69.32 16 70 C18.475 70.99 18.475 70.99 21 72 C21 70.35 21 68.7 21 67 C18.0745356 66.7763932 18.0745356 66.7763932 16 68 Z M8 76 C8.33 76.66 8.66 77.32 9 78 C9.33 77.34 9.66 76.68 10 76 C9.34 76 8.68 76 8 76 Z " fill="#000000" transform="translate(298,182)"/>
<path d="M0 0 C0.99 0.33 1.98 0.66 3 1 C2.01 1.33 1.02 1.66 0 2 C0 2.66 0 3.32 0 4 C-2.125 5.75 -2.125 5.75 -5 7 C-8.53164296 6.23827309 -10.43871412 5.56128588 -13 3 C-9.12315913 1.80712589 -6.08378077 1 -2 1 C-1.34 0.67 -0.68 0.34 0 0 Z " fill="#000000" transform="translate(366,180)"/>
<path d="M0 0 C1.32 0.33 2.64 0.66 4 1 C4 1.66 4 2.32 4 3 C4.99 3 5.98 3 7 3 C7 3.66 7 4.32 7 5 C7.99 5 8.98 5 10 5 C10.33 4.34 10.66 3.68 11 3 C11.33 3.66 11.66 4.32 12 5 C11.06553465 7.03144641 10.06775224 9.03533587 9 11 C11.31 11 13.62 11 16 11 C15.01 11.33 14.02 11.66 13 12 C13 12.66 13 13.32 13 14 C13.99 14 14.98 14 16 14 C16.33 15.32 16.66 16.64 17 18 C14.58524874 17.06093007 12.26074913 16.14667138 10 14.875 C7.55711377 13.80623727 5.63824739 13.8534307 3 14 C3.33 13.01 3.66 12.02 4 11 C4.66 11 5.32 11 6 11 C6 10.34 6 9.68 6 9 C2.9254644 9.7763932 2.9254644 9.7763932 1 12 C1 10.68 1 9.36 1 8 C1.66 7.67 2.32 7.34 3 7 C2.67 6.01 2.34 5.02 2 4 C2.33 3.34 2.66 2.68 3 2 C2.01 2 1.02 2 0 2 C0 1.34 0 0.68 0 0 Z " fill="#000000" transform="translate(434,182)"/>
<path d="M0 0 C0.125 2.4375 0.125 2.4375 0 5 C-0.99 5.495 -0.99 5.495 -2 6 C-2.66 5.67 -3.32 5.34 -4 5 C-4.33 5.99 -4.66 6.98 -5 8 C-7 8 -9 8 -11 8 C-11 7.34 -11 6.68 -11 6 C-11.66 6 -12.32 6 -13 6 C-13.33 6.99 -13.66 7.98 -14 9 C-14.33 8.34 -14.66 7.68 -15 7 C-15.99 7 -16.98 7 -18 7 C-17.67 6.01 -17.34 5.02 -17 4 C-16.34 4 -15.68 4 -15 4 C-14.67 2.68 -14.34 1.36 -14 0 C-13.113125 0.20625 -12.22625 0.4125 -11.3125 0.625 C-6.77513556 1.1386639 -4.29431356 -1.43143785 0 0 Z " fill="#000000" transform="translate(63,184)"/>
<path d="M0 0 C1.65 0 3.3 0 5 0 C4.67 1.32 4.34 2.64 4 4 C2.68 4 1.36 4 0 4 C0 2.68 0 1.36 0 0 Z " fill="#000000" transform="translate(284,185)"/>
<path d="M0 0 C3 1 3 1 4.1875 3.0625 C4.455625 3.701875 4.72375 4.34125 5 5 C4 6 4 6 0.9375 6.0625 C-0.031875 6.041875 -1.00125 6.02125 -2 6 C-2.33 5.01 -2.66 4.02 -3 3 C-2.34 3 -1.68 3 -1 3 C-0.67 2.01 -0.34 1.02 0 0 Z " fill="#000000" transform="translate(63,190)"/>
<path d="M0 0 C1.32 0 2.64 0 4 0 C5.0625 1.9375 5.0625 1.9375 6 4 C6.99 4.33 7.98 4.66 9 5 C9.495 6.485 9.495 6.485 10 8 C9.67 8.66 9.34 9.32 9 10 C9.515625 9.608125 10.03125 9.21625 10.5625 8.8125 C13 8 13 8 16.6875 9.1875 C20 11 20 11 21 14 C20.01 14.66 19.02 15.32 18 16 C18.37705078 16.88751953 18.37705078 16.88751953 18.76171875 17.79296875 C21.28816467 24.32761578 21.28816467 24.32761578 19.6875 28.0625 C19.130625 28.701875 18.57375 29.34125 18 30 C18.99 29.34 19.98 28.68 21 28 C23 28 23 28 24.55078125 29.234375 C28.44989066 33.98477244 28.11424897 41.17330273 28 47 C28.42854995 49.31036915 28.42854995 49.31036915 29 51 C26 52 26 52 23 52 C23.66 53.98 24.32 55.96 25 58 C18.25 58.125 18.25 58.125 16 57 C15.67 58.32 15.34 59.64 15 61 C14.01 61 13.02 61 12 61 C12.66 63.31 13.32 65.62 14 68 C11.69 67.67 9.38 67.34 7 67 C7.66 69.64 8.32 72.28 9 75 C3.25 73.125 3.25 73.125 1 72 C0.875 69.5625 0.875 69.5625 1 67 C1 66.34 1 65.68 1 65 C1.3125 62.9375 1.3125 62.9375 2 61 C2.99 60.67 3.98 60.34 5 60 C5.33 59.01 5.66 58.02 6 57 C4.35 57 2.7 57 1 57 C0.67 57.99 0.34 58.98 0 60 C-0.66 60 -1.32 60 -2 60 C-2 60.99 -2 61.98 -2 63 C-4.64 62.67 -7.28 62.34 -10 62 C-9.67 61.01 -9.34 60.02 -9 59 C-8.34 59 -7.68 59 -7 59 C-7 58.34 -7 57.68 -7 57 C-10 55.66666667 -10 55.66666667 -13 57 C-13.80212628 58.87387216 -13.80212628 58.87387216 -14.1875 61.0625 C-14.34605469 61.79597656 -14.50460938 62.52945313 -14.66796875 63.28515625 C-14.83232422 64.13400391 -14.83232422 64.13400391 -15 65 C-15.66 65 -16.32 65 -17 65 C-17 65.66 -17 66.32 -17 67 C-16.34 67.33 -15.68 67.66 -15 68 C-16.32 68 -17.64 68 -19 68 C-19 67.34 -19 66.68 -19 66 C-20.485 66.495 -20.485 66.495 -22 67 C-21.67 65.35 -21.34 63.7 -21 62 C-21.99 62 -22.98 62 -24 62 C-24.12375 61.030625 -24.2475 60.06125 -24.375 59.0625 C-24.58125 58.051875 -24.7875 57.04125 -25 56 C-25.66 55.67 -26.32 55.34 -27 55 C-27 54.34 -27 53.68 -27 53 C-26.01 52.505 -26.01 52.505 -25 52 C-25.639375 51.62875 -26.27875 51.2575 -26.9375 50.875 C-29.63858072 48.41947207 -29.68407005 46.55421195 -30 43 C-29.01 43 -28.02 43 -27 43 C-27 42.34 -27 41.68 -27 41 C-28.65 41 -30.3 41 -32 41 C-32 40.34 -32 39.68 -32 39 C-31.34 39 -30.68 39 -30 39 C-29.67 37.68 -29.34 36.36 -29 35 C-29.66 35 -30.32 35 -31 35 C-29.99224039 29.67327064 -29.0152845 26.75623389 -25 23 C-28.96 23.495 -28.96 23.495 -33 24 C-33.33 22.35 -33.66 20.7 -34 19 C-32.35 18.01 -30.7 17.02 -29 16 C-28.67 16.66 -28.34 17.32 -28 18 C-26.66666667 15 -26.66666667 15 -28 12 C-25.6875 10.375 -25.6875 10.375 -23 9 C-22.01 9.66 -21.02 10.32 -20 11 C-20.66 9.35 -21.32 7.7 -22 6 C-21.34 5.67 -20.68 5.34 -20 5 C-19.34 5.33 -18.68 5.66 -18 6 C-18 7.32 -18 8.64 -18 10 C-17.01 10 -16.02 10 -15 10 C-15.33 9.34 -15.66 8.68 -16 8 C-15.34 8 -14.68 8 -14 8 C-14 7.34 -14 6.68 -14 6 C-15.32 5.67 -16.64 5.34 -18 5 C-14.20313511 2.41813188 -11.36433828 3.28583555 -7 4 C-6.01 3.67 -5.02 3.34 -4 3 C-3.731875 3.969375 -3.46375 4.93875 -3.1875 5.9375 C-2.795625 6.948125 -2.40375 7.95875 -2 9 C-1.01 9.33 -0.02 9.66 1 10 C1 9.01 1 8.02 1 7 C1.66 6.67 2.32 6.34 3 6 C3 5.34 3 4.68 3 4 C2.34 4 1.68 4 1 4 C1 4.66 1 5.32 1 6 C0.34 6 -0.32 6 -1 6 C-1.625 4.125 -1.625 4.125 -2 2 C-1.34 1.34 -0.68 0.68 0 0 Z M-23.6875 14.5 C-24.120625 14.995 -24.55375 15.49 -25 16 C-23.35 16 -21.7 16 -20 16 C-19.67 15.01 -19.34 14.02 -19 13 C-22.00259517 12.66781808 -22.00259517 12.66781808 -23.6875 14.5 Z M-13.5 16.75 C-14.1290625 17.26046875 -14.758125 17.7709375 -15.40625 18.296875 C-17.15752796 19.89109505 -17.15752796 19.89109505 -17.53125 22.140625 C-17.6859375 22.75421875 -17.840625 23.3678125 -18 24 C-18.99 24.33 -19.98 24.66 -21 25 C-20.38722388 27.96175123 -19.74627478 29.38058783 -18 32 C-17.34 32 -16.68 32 -16 32 C-16.05220703 33.66289062 -16.05220703 33.66289062 -16.10546875 35.359375 C-16.13361349 36.82290148 -16.16091292 38.28644439 -16.1875 39.75 C-16.21263672 40.47960937 -16.23777344 41.20921875 -16.26367188 41.9609375 C-16.30825953 45.23069901 -16.21328109 47.59482885 -14.67578125 50.515625 C-12.99882878 52.33153159 -12.99882878 52.33153159 -10 52 C-10 52.66 -10 53.32 -10 54 C-8.35 54.66 -6.7 55.32 -5 56 C-4.34 55.01 -3.68 54.02 -3 53 C-4.65 52.67 -6.3 52.34 -8 52 C-7.67 50.68 -7.34 49.36 -7 48 C-6.236875 48.0825 -5.47375 48.165 -4.6875 48.25 C-1.89271846 48.27852266 -1.89271846 48.27852266 -0.1875 46.1875 C1.23854593 43.97541303 1.23854593 43.97541303 1 41 C2.32 40.67 3.64 40.34 5 40 C5 38.68 5 37.36 5 36 C4.34 36 3.68 36 3 36 C2.67 35.34 2.34 34.68 2 34 C1.67 34.66 1.34 35.32 1 36 C1 35.01 1 34.02 1 33 C1.66 32.67 2.32 32.34 3 32 C3 31.01 3 30.02 3 29 C1.9275 28.443125 0.855 27.88625 -0.25 27.3125 C-5.66807604 24.48281656 -7.15372529 19.53882412 -9 14 C-10.85375521 14 -12.1321508 15.61760025 -13.5 16.75 Z M-25 17 C-25 18.32 -25 19.64 -25 21 C-24.34 21 -23.68 21 -23 21 C-23 19.68 -23 18.36 -23 17 C-23.66 17 -24.32 17 -25 17 Z M10 17 C10 17.66 10 18.32 10 19 C11.32 19.33 12.64 19.66 14 20 C14 19.34 14 18.68 14 18 C12.68 17.67 11.36 17.34 10 17 Z M-6 19 C-5 21 -5 21 -5 21 Z M9 22 C9.33 22.66 9.66 23.32 10 24 C10.99 23.01 11.98 22.02 13 21 C10.9254644 20.8509288 10.9254644 20.8509288 9 22 Z M-28 29 C-27.34 29.66 -26.68 30.32 -26 31 C-26 30.34 -26 29.68 -26 29 C-26.66 29 -27.32 29 -28 29 Z M-26 31 C-25 33 -25 33 -25 33 Z M-21 36 C-21 36.66 -21 37.32 -21 38 C-19.68 37.67 -18.36 37.34 -17 37 C-18.32 36.67 -19.64 36.34 -21 36 Z M8 39 C8.33 39.99 8.66 40.98 9 42 C9 41.01 9 40.02 9 39 C8.67 39 8.34 39 8 39 Z M8 45 C8.99 45.495 8.99 45.495 10 46 C9.67 46.99 9.34 47.98 9 49 C9.66 49 10.32 49 11 49 C11 47.68 11 46.36 11 45 C10.01 45 9.02 45 8 45 Z M10 51 C11.2061084 53.13633766 11.2061084 53.13633766 13 55 C15.15732132 55.08568503 15.15732132 55.08568503 17 54 C17.33 53.01 17.66 52.02 18 51 C17.67 50.34 17.34 49.68 17 49 C13.03677541 48.56843662 13.03677541 48.56843662 10 51 Z M0 50 C0 50.66 0 51.32 0 52 C1.32 52 2.64 52 4 52 C4 51.34 4 50.68 4 50 C2.68 50 1.36 50 0 50 Z " fill="#000000" transform="translate(209,189)"/>
<path d="M0 0 C2.9375 0.8125 2.9375 0.8125 6 2 C6.33 2.99 6.66 3.98 7 5 C11.21827364 5.82982432 14.87872871 6.54547673 19 5 C19 5.99 19 6.98 19 8 C16.36 8.66 13.72 9.32 11 10 C11 9.34 11 8.68 11 8 C8.525 7.505 8.525 7.505 6 7 C6.33 8.65 6.66 10.3 7 12 C6.34 12 5.68 12 5 12 C5 12.66 5 13.32 5 14 C7.475 14.495 7.475 14.495 10 15 C9.09539273 18.70066609 8.56131642 20.56497978 5.5 22.9375 C4.675 23.288125 3.85 23.63875 3 24 C2.34 23.67 1.68 23.34 1 23 C0.34 24.32 -0.32 25.64 -1 27 C-1.598125 26.360625 -2.19625 25.72125 -2.8125 25.0625 C-4.90810337 22.79689611 -4.90810337 22.79689611 -8 22 C-8.66 25.3 -9.32 28.6 -10 32 C-14 30 -14 30 -16 28 C-16 24 -16 24 -14.4375 22.4375 C-13.963125 21.963125 -13.48875 21.48875 -13 21 C-13.33 20.01 -13.66 19.02 -14 18 C-13.979375 17.13375 -13.95875 16.2675 -13.9375 15.375 C-13.958125 14.59125 -13.97875 13.8075 -14 13 C-14.66 12.67 -15.32 12.34 -16 12 C-12.79191085 9.8612739 -11.72301503 9.52269038 -8 10 C-7.01 11.485 -7.01 11.485 -6 13 C-9 14 -9 14 -12 13 C-11.67 13.66 -11.34 14.32 -11 15 C-8.47266765 15.65555119 -8.47266765 15.65555119 -6 16 C-6.66 16.99 -7.32 17.98 -8 19 C-7.34 19.33 -6.68 19.66 -6 20 C-6 19.34 -6 18.68 -6 18 C-4.35 18 -2.7 18 -1 18 C-0.67 17.01 -0.34 16.02 0 15 C0.99 15 1.98 15 3 15 C2.34 14.67 1.68 14.34 1 14 C1.875 9.25 1.875 9.25 3 7 C2.01 6.67 1.02 6.34 0 6 C0.33 5.01 0.66 4.02 1 3 C0.67 2.01 0.34 1.02 0 0 Z M2 17 C2.66 18.32 3.32 19.64 4 21 C4.66 20.34 5.32 19.68 6 19 C4.68 18.34 3.36 17.68 2 17 Z M-5 19 C-5 19.99 -5 20.98 -5 22 C-4.01 22.33 -3.02 22.66 -2 23 C-1.67 22.34 -1.34 21.68 -1 21 C-1.99 21 -2.98 21 -4 21 C-4.33 20.34 -4.66 19.68 -5 19 Z " fill="#000000" transform="translate(48,195)"/>
<path d="M0 0 C0.33 0.99 0.66 1.98 1 3 C0.01 3 -0.98 3 -2 3 C-4.80255323 5.9063515 -5 6.78825048 -5 11 C-4.67 11.33 -4.34 11.66 -4 12 C-2 15 -2 15 -2.375 17.1875 C-2.58125 17.785625 -2.7875 18.38375 -3 19 C-5.64 19 -8.28 19 -11 19 C-10.649375 17.9275 -10.29875 16.855 -9.9375 15.75 C-8.7822988 11.7095928 -8.7822988 11.7095928 -10 8 C-12.00572641 7.18553891 -12.00572641 7.18553891 -14 7 C-14 6.01 -14 5.02 -14 4 C-13.01 4.33 -12.02 4.66 -11 5 C-11 5.66 -11 6.32 -11 7 C-9.35 6.67 -7.7 6.34 -6 6 C-6 4.68 -6 3.36 -6 2 C-3.8771938 0.58479586 -2.55830173 0 0 0 Z M-8 14 C-8 14.66 -8 15.32 -8 16 C-7.34 16 -6.68 16 -6 16 C-6 15.34 -6 14.68 -6 14 C-6.66 14 -7.32 14 -8 14 Z " fill="#000000" transform="translate(86,197)"/>
<path d="M0 0 C1.9375 0.25 1.9375 0.25 4 1 C4.8125 2.9375 4.8125 2.9375 5 5 C4.67 5.66 4.34 6.32 4 7 C1.9375 7.625 1.9375 7.625 0 8 C0 5.36 0 2.72 0 0 Z " fill="#000000" transform="translate(453,199)"/>
<path d="M0 0 C0.66 0 1.32 0 2 0 C2.66 0.99 3.32 1.98 4 3 C5.0209375 3.12375 5.0209375 3.12375 6.0625 3.25 C6.701875 3.4975 7.34125 3.745 8 4 C9.35875583 8.94975339 8.94927765 12.29880096 7 17 C6.34 17 5.68 17 5 17 C5 17.99 5 18.98 5 20 C5.66 20.33 6.32 20.66 7 21 C7 24.61029169 6.03907418 27.55806676 5 31 C4.34 31 3.68 31 3 31 C3.04125 30.2575 3.0825 29.515 3.125 28.75 C2.99527912 25.89614063 2.57437199 24.36155799 1 22 C0.34 22 -0.32 22 -1 22 C0 20 0 20 3 18 C2.67 17.01 2.34 16.02 2 15 C1.34 15 0.68 15 0 15 C-0.33 14.34 -0.66 13.68 -1 13 C-1.66 12.01 -2.32 11.02 -3 10 C-2.34 9.67 -1.68 9.34 -1 9 C-1.20625 8.2575 -1.4125 7.515 -1.625 6.75 C-2.04407957 3.67674986 -1.76494685 2.50808236 0 0 Z " fill="#000000" transform="translate(274,201)"/>
<path d="M0 0 C0.99 0 1.98 0 3 0 C6 5.11111111 6 5.11111111 6 8 C2.125 6.25 2.125 6.25 1 4 C1.33 3.34 1.66 2.68 2 2 C1.34 2 0.68 2 0 2 C0 1.34 0 0.68 0 0 Z " fill="#000000" transform="translate(460,208)"/>
<path d="M0 0 C2 0.75 2 0.75 4 2 C4 3.32 4 4.64 4 6 C3.01 5.67 2.02 5.34 1 5 C0.3125 2.4375 0.3125 2.4375 0 0 Z " fill="#000000" transform="translate(71,215)"/>
<path d="M0 0 C0.33 0.66 0.66 1.32 1 2 C0.67 2.66 0.34 3.32 0 4 C0.928125 3.773125 1.85625 3.54625 2.8125 3.3125 C6 3 6 3 7.875 4.4375 C8.431875 5.2109375 8.431875 5.2109375 9 6 C7.6875 7.5625 7.6875 7.5625 6 9 C5.01 8.67 4.02 8.34 3 8 C2.67 8.99 2.34 9.98 2 11 C1.01 11 0.02 11 -1 11 C-1 10.01 -1 9.02 -1 8 C-2.32 7.67 -3.64 7.34 -5 7 C-4.54625 6.401875 -4.0925 5.80375 -3.625 5.1875 C-2.36704087 3.49409348 -1.17015276 1.75522914 0 0 Z M1 6 C2 8 2 8 2 8 Z " fill="#000000" transform="translate(78,224)"/>
<path d="M0 0 C0.99 0.33 1.98 0.66 3 1 C3.80078125 2.92578125 3.80078125 2.92578125 4.3125 5.3125 C4.58513672 6.48232422 4.58513672 6.48232422 4.86328125 7.67578125 C5.02453927 10.41716761 4.54124213 11.74741534 3 14 C2.34 14 1.68 14 1 14 C-1.48063781 4.58997722 -1.48063781 4.58997722 0 0 Z " fill="#000000" transform="translate(25,225)"/>
<path d="M0 0 C1.32 0 2.64 0 4 0 C4 0.66 4 1.32 4 2 C3.01 2.495 3.01 2.495 2 3 C0.86649466 5.01669827 0.86649466 5.01669827 0 7 C-0.99 6.67 -1.98 6.34 -3 6 C-3 5.01 -3 4.02 -3 3 C-2.34 3 -1.68 3 -1 3 C-0.67 2.01 -0.34 1.02 0 0 Z " fill="#000000" transform="translate(18,226)"/>
<path d="M0 0 C0.99 0.99 1.98 1.98 3 3 C1.7260411 5.03833424 0.38938077 7.03852126 -1 9 C-1.66 9 -2.32 9 -3 9 C-3.1875 5.625 -3.1875 5.625 -3 2 C-2.01 1.34 -1.02 0.68 0 0 Z " fill="#000000" transform="translate(35,229)"/>
<path d="M0 0 C0.99 0 1.98 0 3 0 C3.66 2.64 4.32 5.28 5 8 C4.01 8 3.02 8 2 8 C1.67 7.01 1.34 6.02 1 5 C0.34 4.67 -0.32 4.34 -1 4 C-0.67 2.68 -0.34 1.36 0 0 Z " fill="#000000" transform="translate(367,231)"/>
<path d="M0 0 C2 1.375 2 1.375 4 3 C4 3.66 4 4.32 4 5 C4.66 5 5.32 5 6 5 C5.67 5.66 5.34 6.32 5 7 C5 7.66 5 8.32 5 9 C5 9.66 5 10.32 5 11 C5.66 11 6.32 11 7 11 C6.34 12.98 5.68 14.96 5 17 C4.01 16.67 3.02 16.34 2 16 C2 15.01 2 14.02 2 13 C0.35 13 -1.3 13 -3 13 C-2.67 12.34 -2.34 11.68 -2 11 C-1.01 11 -0.02 11 1 11 C1 10.01 1 9.02 1 8 C0.34 7.67 -0.32 7.34 -1 7 C-0.34 7 0.32 7 1 7 C1 6.34 1 5.68 1 5 C0.01 4.34 -0.98 3.68 -2 3 C-1.34 2.01 -0.68 1.02 0 0 Z " fill="#000000" transform="translate(78,249)"/>
<path d="M0 0 C1.32 0.66 2.64 1.32 4 2 C3.6875 3.875 3.6875 3.875 3 6 C2.01 6.66 1.02 7.32 0 8 C-1.43088528 5.13822943 -0.59991697 3.06624227 0 0 Z " fill="#000000" transform="translate(91,250)"/>
<path d="M0 0 C3.5 0.8125 3.5 0.8125 7 2 C7.33 2.66 7.66 3.32 8 4 C7.67 4.99 7.34 5.98 7 7 C6.01 6.67 5.02 6.34 4 6 C4 5.34 4 4.68 4 4 C2.35 4 0.7 4 -1 4 C-1 1 -1 1 0 0 Z " fill="#000000" transform="translate(198,252)"/>
<path d="M0 0 C1.9375 0.3125 1.9375 0.3125 4 1 C4.33 1.99 4.66 2.98 5 4 C4.01 4 3.02 4 2 4 C1.67 4.66 1.34 5.32 1 6 C0.34 5.34 -0.32 4.68 -1 4 C-0.625 1.875 -0.625 1.875 0 0 Z " fill="#000000" transform="translate(226,254)"/>
<path d="M0 0 C0.99 0 1.98 0 3 0 C3 1.32 3 2.64 3 4 C3.66 4 4.32 4 5 4 C5 4.66 5 5.32 5 6 C3.125 5.75 3.125 5.75 1 5 C-0.25 2.9375 -0.25 2.9375 -1 1 C-0.67 0.67 -0.34 0.34 0 0 Z " fill="#000000" transform="translate(357,277)"/>
<path d="M0 0 C2.1682373 0.01165719 4.33632786 0.10889095 6.5 0.25 C7.6859375 0.31703125 8.871875 0.3840625 10.09375 0.453125 C11.0528125 0.63359375 12.011875 0.8140625 13 1 C13.495 2.485 13.495 2.485 14 4 C15.32 3.34 16.64 2.68 18 2 C18.495 3.98 18.495 3.98 19 6 C19.66 6 20.32 6 21 6 C20.34 4.35 19.68 2.7 19 1 C20.32 1 21.64 1 23 1 C23.69937532 2.31647119 24.36729133 3.65022151 25 5 C25.99 5 26.98 5 28 5 C28.33 4.34 28.66 3.68 29 3 C29.56847656 3.144375 30.13695312 3.28875 30.72265625 3.4375 C35.60743044 4.61180298 39.94739086 5.10311447 45 5 C45.99 5.495 45.99 5.495 47 6 C47 6.66 47 7.32 47 8 C50.89459074 8.21081851 50.89459074 8.21081851 54 7 C54.99 7.33 55.98 7.66 57 8 C57 9.32 57 10.64 57 12 C56.34 12 55.68 12 55 12 C55 12.66 55 13.32 55 14 C54.34 14 53.68 14 53 14 C53 14.66 53 15.32 53 16 C55.31 16.33 57.62 16.66 60 17 C59.01 13.535 59.01 13.535 58 10 C59.65 10 61.3 10 63 10 C63 10.99 63 11.98 63 13 C63.66 13 64.32 13 65 13 C65.70151152 14.3153341 66.36525925 15.65117592 67 17 C67.99 17.99 67.99 17.99 69 19 C68.34 19.33 67.68 19.66 67 20 C66.53476937 21.89533342 66.53476937 21.89533342 66.375 24.0625 C66.189375 26.0115625 66.189375 26.0115625 66 28 C67.65 28.66 69.3 29.32 71 30 C70.34 30.33 69.68 30.66 69 31 C69 31.99 69 32.98 69 34 C69.66 34 70.32 34 71 34 C71.6875 35.8125 71.6875 35.8125 72 38 C71.505 38.474375 71.01 38.94875 70.5 39.4375 C70.005 39.953125 69.51 40.46875 69 41 C69.23043864 43.65466049 69.23043864 43.65466049 70 46 C71.32 45.34 72.64 44.68 74 44 C74.6875 46.875 74.6875 46.875 75 50 C74.01 50.66 73.02 51.32 72 52 C71.855625 52.639375 71.71125 53.27875 71.5625 53.9375 C70.80469265 56.71612695 69.36174914 57.47629087 67 59 C67.66 59 68.32 59 69 59 C68.505 59.99 68.505 59.99 68 61 C65.5 59.6875 65.5 59.6875 63 58 C63 57.01 63 56.02 63 55 C63.99 54.67 64.98 54.34 66 54 C64.824375 54.061875 63.64875 54.12375 62.4375 54.1875 C57.89279433 54.17129784 54.90632858 53.36007352 51 51 C50.5625 48.3125 50.5625 48.3125 51 46 C51.99 45.67 52.98 45.34 54 45 C52.35 44.34 50.7 43.68 49 43 C49 42.34 49 41.68 49 41 C50.32 40.67 51.64 40.34 53 40 C53 39.34 53 38.68 53 38 C54.98 37.67 56.96 37.34 59 37 C57.36587557 35.29159719 56.13093906 34.06546953 54 33 C54 33.66 54 34.32 54 35 C51.69 35.66 49.38 36.32 47 37 C47.33 35.68 47.66 34.36 48 33 C48.99 33 49.98 33 51 33 C51.33 30.36 51.66 27.72 52 25 C50.68 25 49.36 25 48 25 C48 26.98 48 28.96 48 31 C46 30.1875 46 30.1875 44 29 C44 28.01 44 27.02 44 26 C43.01 26 42.02 26 41 26 C40.505 26.495 40.505 26.495 40 27 C39.34 27.33 38.68 27.66 38 28 C37.01 27.01 37.01 27.01 36 26 C32.41656024 25.83322718 32.41656024 25.83322718 29 26 C29 25.34 29 24.68 29 24 C27.02 24.99 27.02 24.99 25 26 C24.505 25.01 24.505 25.01 24 24 C23.01 23.67 22.02 23.34 21 23 C21 24.32 21 25.64 21 27 C17 27 17 27 14 26 C14 23 14 23 16 21 C15.34 20.34 14.68 19.68 14 19 C10.62820193 19.20268075 10.62820193 19.20268075 6.875 19.875 C5.59367187 20.07867187 4.31234375 20.28234375 2.9921875 20.4921875 C2.00476563 20.65976562 1.01734375 20.82734375 0 21 C0.30679688 21.92039062 0.61359375 22.84078125 0.9296875 23.7890625 C1.953125 26.859375 2.9765625 29.9296875 4 33 C3.01 33.66 2.02 34.32 1 35 C0.38125 34.030625 -0.2375 33.06125 -0.875 32.0625 C-2.65678846 28.97164638 -2.65678846 28.97164638 -5 28 C-5.99 30.475 -5.99 30.475 -7 33 C-7.66 33 -8.32 33 -9 33 C-9 33.66 -9 34.32 -9 35 C-11.31 35 -13.62 35 -16 35 C-15.67 33.68 -15.34 32.36 -15 31 C-17.475 30.01 -17.475 30.01 -20 29 C-20 27.68 -20 26.36 -20 25 C-20.99 24.67 -21.98 24.34 -23 24 C-23 23.34 -23 22.68 -23 22 C-23.639375 21.896875 -24.27875 21.79375 -24.9375 21.6875 C-25.618125 21.460625 -26.29875 21.23375 -27 21 C-27.33 20.01 -27.66 19.02 -28 18 C-27.195625 17.87625 -26.39125 17.7525 -25.5625 17.625 C-24.716875 17.41875 -23.87125 17.2125 -23 17 C-22.67 16.34 -22.34 15.68 -22 15 C-19.67946587 13.95597897 -17.31871858 13.08089707 -14.93359375 12.1953125 C-14.29550781 11.80085938 -13.65742188 11.40640625 -13 11 C-13 9.68 -13 8.36 -13 7 C-12.34 7 -11.68 7 -11 7 C-10.67 5.68 -10.34 4.36 -10 3 C-6.95139986 4.01620005 -6.13333078 4.77391571 -4 7 C-3.34 7.33 -2.68 7.66 -2 8 C-2 6.68 -2 5.36 -2 4 C-1.34 4 -0.68 4 0 4 C-0.33 3.01 -0.66 2.02 -1 1 C-0.67 0.67 -0.34 0.34 0 0 Z M31 16 C30.01 16.495 30.01 16.495 29 17 C29 18.32 29 19.64 29 21 C29.99 21 30.98 21 32 21 C32.33 19.68 32.66 18.36 33 17 C32.34 16.67 31.68 16.34 31 16 Z M-19 24 C-18 26 -18 26 -18 26 Z M-8 27 C-8.33 27.99 -8.66 28.98 -9 30 C-8.34 30 -7.68 30 -7 30 C-7 29.34 -7 28.68 -7 28 C-6.34 27.67 -5.68 27.34 -5 27 C-5.99 27 -6.98 27 -8 27 Z M62 32 C62.99 32.99 63.98 33.98 65 35 C65.33 34.34 65.66 33.68 66 33 C64.68 32.67 63.36 32.34 62 32 Z M56 41 C57 43 57 43 57 43 Z M54 46 C54.33 47.65 54.66 49.3 55 51 C55.66 51 56.32 51 57 51 C56.34 49.35 55.68 47.7 55 46 C54.67 46 54.34 46 54 46 Z " fill="#000000" transform="translate(225,301)"/>
<path d="M0 0 C0.80566406 0.09023438 1.61132812 0.18046875 2.44140625 0.2734375 C4.4375 0.625 4.4375 0.625 5.4375 1.625 C5.60546875 3.4375 5.60546875 3.4375 5.625 5.625 C5.63917969 6.346875 5.65335937 7.06875 5.66796875 7.8125 C5.59191406 8.410625 5.51585937 9.00875 5.4375 9.625 C4.4475 10.12 4.4475 10.12 3.4375 10.625 C2.7775 9.965 2.1175 9.305 1.4375 8.625 C0.4475 9.12 0.4475 9.12 -0.5625 9.625 C-0.8925 7.645 -1.2225 5.665 -1.5625 3.625 C-2.18125 3.810625 -2.8 3.99625 -3.4375 4.1875 C-5.5625 4.625 -5.5625 4.625 -7.5625 3.625 C-7.2325 2.635 -6.9025 1.645 -6.5625 0.625 C-4.06581711 -0.62334144 -2.74920849 -0.32655125 0 0 Z " fill="#000000" transform="translate(361.5625,310.375)"/>
<path d="M0 0 C2.4375 0.1875 2.4375 0.1875 5 1 C6.375 2.875 6.375 2.875 7 5 C6.67 5.99 6.34 6.98 6 8 C2.42895561 6.12050295 0.45255699 4.82946843 -1 1 C-0.67 0.67 -0.34 0.34 0 0 Z " fill="#000000" transform="translate(369,315)"/>
<path d="M0 0 C0.99 0 1.98 0 3 0 C3.33 1.32 3.66 2.64 4 4 C2.68 4.33 1.36 4.66 0 5 C-0.33 4.01 -0.66 3.02 -1 2 C-0.67 1.34 -0.34 0.68 0 0 Z " fill="#000000" transform="translate(90,321)"/>
<path d="M0 0 C2 3.75 2 3.75 2 6 C0.35 5.67 -1.3 5.34 -3 5 C-2.67 4.01 -2.34 3.02 -2 2 C-1.34 2 -0.68 2 0 2 C0 1.34 0 0.68 0 0 Z " fill="#000000" transform="translate(405,342)"/>
<path d="M0 0 C0.66 -0.33 1.32 -0.66 2 -1 C2 -0.34 2 0.32 2 1 C2.65097656 1.25910156 3.30195313 1.51820313 3.97265625 1.78515625 C4.64167969 2.18605469 5.31070313 2.58695312 6 3 C6.49609375 5.49609375 6.49609375 5.49609375 6.4375 8.4375 C6.43621094 9.40558594 6.43492187 10.37367188 6.43359375 11.37109375 C5.94996 14.3033957 5.30033475 15.20000331 3 17 C3.99 18.98 4.98 20.96 6 23 C5.34 23.66 4.68 24.32 4 25 C4.01702771 27.5775228 4.01702771 27.5775228 4.4375 30.4375 C5.1023166 35.69305019 5.1023166 35.69305019 4 39 C4.39397335 41.63804589 4.39397335 41.63804589 5 44 C3.02 44.495 3.02 44.495 1 45 C0.896875 44.360625 0.79375 43.72125 0.6875 43.0625 C0.460625 42.381875 0.23375 41.70125 0 41 C-0.99 40.67 -1.98 40.34 -3 40 C-4.06571651 36.80285048 -4 34.34084942 -4 31 C-4.33 30.67 -4.66 30.34 -5 30 C-5.45375 30.495 -5.9075 30.99 -6.375 31.5 C-8 33 -8 33 -10 33 C-10.33 33.99 -10.66 34.98 -11 36 C-11.99 35.34 -12.98 34.68 -14 34 C-14 33.01 -14 32.02 -14 31 C-14.66 31 -15.32 31 -16 31 C-15.505 29.515 -15.505 29.515 -15 28 C-14.34 27.67 -13.68 27.34 -13 27 C-12.83329727 23.95826106 -12.83329727 23.95826106 -13 21 C-12.34 21 -11.68 21 -11 21 C-11 20.34 -11 19.68 -11 19 C-11.66 19 -12.32 19 -13 19 C-13.33 16.36 -13.66 13.72 -14 11 C-12.68 11.33 -11.36 11.66 -10 12 C-10.33 11.67 -10.66 11.34 -11 11 C-11.68753301 9.34183216 -12.35561283 7.67540664 -13 6 C-12.0409375 5.9071875 -12.0409375 5.9071875 -11.0625 5.8125 C-10.381875 5.544375 -9.70125 5.27625 -9 5 C-8.33652369 2.51599015 -8.33652369 2.51599015 -8 0 C-5.15247365 -1.42376318 -3.08125973 -0.51354329 0 0 Z M1 2 C2 4 2 4 2 4 Z M-5 17 C-5 17.99 -5 18.98 -5 20 C-4.01 20 -3.02 20 -2 20 C-2.33 19.01 -2.66 18.02 -3 17 C-3.66 17 -4.32 17 -5 17 Z M-9 18 C-9 18.99 -9 19.98 -9 21 C-8.01 20.67 -7.02 20.34 -6 20 C-6.33 19.34 -6.66 18.68 -7 18 C-7.66 18 -8.32 18 -9 18 Z M-2 26 C-2 26.66 -2 27.32 -2 28 C-1.01 27.67 -0.02 27.34 1 27 C0.01 26.67 -0.98 26.34 -2 26 Z " fill="#000000" transform="translate(222,343)"/>
<path d="M0 0 C1.32 0.33 2.64 0.66 4 1 C4 1.66 4 2.32 4 3 C4.66 3 5.32 3 6 3 C6 3.66 6 4.32 6 5 C2.5625 5.125 2.5625 5.125 -1 5 C-1.33 4.34 -1.66 3.68 -2 3 C-1.34 2.01 -0.68 1.02 0 0 Z " fill="#000000" transform="translate(88,348)"/>
<path d="M0 0 C2.9375 0.25 2.9375 0.25 6 1 C6.99 2.485 6.99 2.485 8 4 C8.99 4 9.98 4 11 4 C13.125 4.6875 13.125 4.6875 15 6 C15.75 8.625 15.75 8.625 16 11 C17.65 11 19.3 11 21 11 C21 11.99 21 12.98 21 14 C20.34 14.33 19.68 14.66 19 15 C19.99 16.485 19.99 16.485 21 18 C20.34 18 19.68 18 19 18 C19.37125 18.7425 19.7425 19.485 20.125 20.25 C21 23 21 23 20.125 25.3125 C19.568125 26.1478125 19.568125 26.1478125 19 27 C19.66 27 20.32 27 21 27 C21 29.31 21 31.62 21 34 C19.35 34.33 17.7 34.66 16 35 C16 35.66 16 36.32 16 37 C17.98 37.33 19.96 37.66 22 38 C22 39.65 22 41.3 22 43 C24.31 43 26.62 43 29 43 C29.33 43.99 29.66 44.98 30 46 C30.86625 45.7525 30.86625 45.7525 31.75 45.5 C34 45 34 45 38 45 C38.495 44.01 38.495 44.01 39 43 C39.33 43.66 39.66 44.32 40 45 C43.57535019 46.0761054 43.57535019 46.0761054 47 45 C49.6875 46.4375 49.6875 46.4375 52 49 C52.14250597 51.87752443 51.61853062 54.14524328 51 57 C53.97 58.65 56.94 60.3 60 62 C59.67 62.99 59.34 63.98 59 65 C56.36 64.67 53.72 64.34 51 64 C50.67 64.66 50.34 65.32 50 66 C49.34 65.67 48.68 65.34 48 65 C48 64.34 48 63.68 48 63 C46.02 62.505 46.02 62.505 44 62 C44.226875 62.78375 44.45375 63.5675 44.6875 64.375 C44.790625 65.24125 44.89375 66.1075 45 67 C41.77208445 69.1519437 40.71599191 69.20086443 37 69 C36.67 68.01 36.34 67.02 36 66 C36.66 65.67 37.32 65.34 38 65 C38 64.01 38 63.02 38 62 C37.34 61.67 36.68 61.34 36 61 C36 60.01 36 59.02 36 58 C36.99 57.67 37.98 57.34 39 57 C40.66710346 55.50014391 40.66710346 55.50014391 42 54 C42.33 54.66 42.66 55.32 43 56 C43.99 55.67 44.98 55.34 46 55 C45.34 54.34 44.68 53.68 44 53 C45.32 53 46.64 53 48 53 C47.34 52.01 46.68 51.02 46 50 C44.33388095 49.957279 42.66617115 49.95936168 41 50 C39.515 49.01 39.515 49.01 38 48 C37.896875 48.61875 37.79375 49.2375 37.6875 49.875 C37 52 37 52 34 54 C32.515 53.01 32.515 53.01 31 52 C29.0085944 51.61866701 27.00720923 51.28674418 25 51 C23.66262906 50.68325425 22.32711192 50.35729936 21 50 C21 52.64 21 55.28 21 58 C24.02419525 57.41196203 27.01758453 56.77321882 30 56 C30 55.34 30 54.68 30 54 C31.485 54.495 31.485 54.495 33 55 C32.4380235 58.93383553 31.50383287 61.87020891 29 65 C26.3125 65.3125 26.3125 65.3125 24 65 C24 64.01 24 63.02 24 62 C23.01 62 22.02 62 21 62 C20.34 63.98 19.68 65.96 19 68 C19.66 68.33 20.32 68.66 21 69 C17.06094403 70.14889133 13.06434042 70.52582695 9 71 C8.67 70.01 8.34 69.02 8 68 C8.33 67.34 8.66 66.68 9 66 C7.05000871 66.19471111 7.05000871 66.19471111 5 67 C3.71563266 68.9837767 3.71563266 68.9837767 3 71 C2.34 70.67 1.68 70.34 1 70 C0.01 70 -0.98 70 -2 70 C-4.33333333 70 -6.66666667 70 -9 70 C-9.5534764 67.92446352 -10 66.15634036 -10 64 C-11.485 63.505 -11.485 63.505 -13 63 C-12.938125 63.763125 -12.87625 64.52625 -12.8125 65.3125 C-13 68 -13 68 -14.375 69.8125 C-16 71 -16 71 -18 71 C-18 70.34 -18 69.68 -18 69 C-18.99 69.33 -19.98 69.66 -21 70 C-21.99 69.01 -21.99 69.01 -23 68 C-25.10820797 68.3185177 -25.10820797 68.3185177 -27 69 C-27 70.98 -27 72.96 -27 75 C-27.99 75.33 -28.98 75.66 -30 76 C-32.09350689 72.5980513 -32.17942163 69.94727588 -32 66 C-32.66 66 -33.32 66 -34 66 C-34.495 67.98 -34.495 67.98 -35 70 C-35.99 69.505 -35.99 69.505 -37 69 C-37 68.34 -37 67.68 -37 67 C-39.475 67.495 -39.475 67.495 -42 68 C-40.68 68.33 -39.36 68.66 -38 69 C-38.495 70.485 -38.495 70.485 -39 72 C-39.99 71.67 -40.98 71.34 -42 71 C-42 70.34 -42 69.68 -42 69 C-43.43739513 68.97287934 -44.87493863 68.95354933 -46.3125 68.9375 C-47.51326172 68.92009766 -47.51326172 68.92009766 -48.73828125 68.90234375 C-51.16861334 68.90342145 -51.16861334 68.90342145 -54 70 C-54.433125 69.030625 -54.86625 68.06125 -55.3125 67.0625 C-56.7014861 63.72268235 -56.7014861 63.72268235 -60 63 C-60 64.98 -60 66.96 -60 69 C-63.61029169 69 -66.55806676 68.03907418 -70 67 C-69.01 66.505 -69.01 66.505 -68 66 C-68.44909061 64.51800098 -68.90956564 63.03944764 -69.375 61.5625 C-69.63023437 60.73878906 -69.88546875 59.91507812 -70.1484375 59.06640625 C-70.80882227 56.82201984 -70.80882227 56.82201984 -73 56 C-73 55.34 -73 54.68 -73 54 C-72.01 54 -71.02 54 -70 54 C-70.350625 53.443125 -70.70125 52.88625 -71.0625 52.3125 C-72.21845993 49.46113217 -71.80967438 47.91482778 -71 45 C-71.99 44.67 -72.98 44.34 -74 44 C-74.495 42.515 -74.495 42.515 -75 41 C-72.69 41.33 -70.38 41.66 -68 42 C-68 42.99 -68 43.98 -68 45 C-67.34 45 -66.68 45 -66 45 C-66 44.34 -66 43.68 -66 43 C-64.53815942 43.22860058 -63.08044581 43.48370392 -61.625 43.75 C-60.81289062 43.88921875 -60.00078125 44.0284375 -59.1640625 44.171875 C-57 45 -57 45 -55.7109375 47.078125 C-55.47632813 47.71234375 -55.24171875 48.3465625 -55 49 C-55.66 49 -56.32 49 -57 49 C-57 49.66 -57 50.32 -57 51 C-58.98 51.66 -60.96 52.32 -63 53 C-62.01 54.32 -61.02 55.64 -60 57 C-61.98 57.66 -63.96 58.32 -66 59 C-64.68 59.66 -63.36 60.32 -62 61 C-62 60.34 -62 59.68 -62 59 C-60.02 59.33 -58.04 59.66 -56 60 C-56.495 57.525 -56.495 57.525 -57 55 C-56.34 55 -55.68 55 -55 55 C-55 54.34 -55 53.68 -55 53 C-54.34 53 -53.68 53 -53 53 C-53 52.34 -53 51.68 -53 51 C-53.66 50.67 -54.32 50.34 -55 50 C-53.96939453 49.94392578 -53.96939453 49.94392578 -52.91796875 49.88671875 C-52.01691406 49.82097656 -51.11585938 49.75523437 -50.1875 49.6875 C-49.29417969 49.62949219 -48.40085938 49.57148438 -47.48046875 49.51171875 C-44.65184931 48.92817679 -43.89675144 48.07739444 -42 46 C-39.8125 46.3125 -39.8125 46.3125 -38 47 C-39.5 50 -39.5 50 -41 53 C-40.01 53 -39.02 53 -38 53 C-37.67 52.01 -37.34 51.02 -37 50 C-33.625 48.625 -33.625 48.625 -30 48 C-28.0625 49.375 -28.0625 49.375 -27 51 C-25.68 50.34 -24.36 49.68 -23 49 C-23 49.66 -23 50.32 -23 51 C-20.03 51.495 -20.03 51.495 -17 52 C-17 51.01 -17 50.02 -17 49 C-18.95021083 47.77472052 -18.95021083 47.77472052 -21 47 C-21.495 47.99 -21.495 47.99 -22 49 C-24.31 47.68 -26.62 46.36 -29 45 C-28.505 44.01 -28.505 44.01 -28 43 C-27.01 43.33 -26.02 43.66 -25 44 C-23.32577014 43.70700977 -21.65821773 43.37309899 -20 43 C-16.89448334 43 -15.64738916 43.5393715 -13 45 C-13 44.34 -13 43.68 -13 43 C-12.01 43.33 -11.02 43.66 -10 44 C-10 44.99 -10 45.98 -10 47 C-9.01 46.67 -8.02 46.34 -7 46 C-6.505 45.01 -6.505 45.01 -6 44 C-4.0390625 43.078125 -4.0390625 43.078125 -1.625 42.25 C-0.83351563 41.96640625 -0.04203125 41.6828125 0.7734375 41.390625 C3 41 3 41 6 43 C5.01 43.495 5.01 43.495 4 44 C4.33 44.66 4.66 45.32 5 46 C3.68 46 2.36 46 1 46 C1 46.66 1 47.32 1 48 C1.66 48 2.32 48 3 48 C3 48.66 3 49.32 3 50 C4.65 49.67 6.3 49.34 8 49 C7.814375 48.21625 7.62875 47.4325 7.4375 46.625 C7 44 7 44 8 42 C7.34 41.67 6.68 41.34 6 41 C6 40.34 6 39.68 6 39 C5.01 39 4.02 39 3 39 C3 37.35 3 35.7 3 34 C2.34 34 1.68 34 1 34 C1 33.34 1 32.68 1 32 C0.34 32 -0.32 32 -1 32 C-0.0022242 29.00667261 0.7522025 28.05233685 3 26 C1.68 25.67 0.36 25.34 -1 25 C-1 24.34 -1 23.68 -1 23 C-0.34 23 0.32 23 1 23 C1 22.34 1 21.68 1 21 C-0.485 20.505 -0.485 20.505 -2 20 C-2 19.34 -2 18.68 -2 18 C-0.02 17.34 1.96 16.68 4 16 C0.31435916 13.54420303 0.31435916 13.54420303 -4 13 C-3.67 12.34 -3.34 11.68 -3 11 C-2.34 11 -1.68 11 -1 11 C-0.22639979 8.00229918 0.11887624 6.52833885 -0.5625 3.5 C-0.7790625 2.2625 -0.7790625 2.2625 -1 1 C-0.67 0.67 -0.34 0.34 0 0 Z M11.375 12.5 C10.92125 12.995 10.4675 13.49 10 14 C10.99 15.485 10.99 15.485 12 17 C12.99 16.67 13.98 16.34 15 16 C15 14.35 15 12.7 15 11 C12.87635519 10.77390663 12.87635519 10.77390663 11.375 12.5 Z M11 39 C11 39.99 11 40.98 11 42 C12.32 41.34 13.64 40.68 15 40 C13.68 39.67 12.36 39.34 11 39 Z M26 45 C27 47 27 47 27 47 Z M27 47 C26.67 47.66 26.34 48.32 26 49 C27.32 49.33 28.64 49.66 30 50 C30 49.34 30 48.68 30 48 C29.01 47.67 28.02 47.34 27 47 Z M-32 50 C-32 53 -32 53 -32 53 Z M15 50 C15.33 50.99 15.66 51.98 16 53 C16 52.01 16 51.02 16 50 C15.67 50 15.34 50 15 50 Z M4 51 C3.67 51.99 3.34 52.98 3 54 C3.66 54 4.32 54 5 54 C4.67 53.01 4.34 52.02 4 51 Z M0 51 C-0.99 51.99 -1.98 52.98 -3 54 C-1.68 53.67 -0.36 53.34 1 53 C0.67 52.34 0.34 51.68 0 51 Z M9 52 C10 54 10 54 10 54 Z M-36 61 C-36 61.99 -36 62.98 -36 64 C-33.53199953 62.84826645 -31.95216435 61.95216435 -30 60 C-33.7763932 59.7018576 -33.7763932 59.7018576 -36 61 Z M10 67 C11 69 11 69 11 69 Z " fill="#000000" transform="translate(277,358)"/>
<path d="M0 0 C0.66 0 1.32 0 2 0 C3.6875 1.8125 3.6875 1.8125 5 4 C4.67 4.99 4.34 5.98 4 7 C1.9375 7.6875 1.9375 7.6875 0 8 C0 5.36 0 2.72 0 0 Z " fill="#000000" transform="translate(96,361)"/>
<path d="M0 0 C0.268125 0.66 0.53625 1.32 0.8125 2 C1.204375 2.66 1.59625 3.32 2 4 C2.99 4 3.98 4 5 4 C5 4.66 5 5.32 5 6 C3.02 6.33 1.04 6.66 -1 7 C-2 4 -2 4 -1.0625 1.8125 C-0.5365625 0.9153125 -0.5365625 0.9153125 0 0 Z " fill="#000000" transform="translate(221,389)"/>
<path d="M0 0 C-0.66 1.65 -1.32 3.3 -2 5 C-2.33 4.34 -2.66 3.68 -3 3 C-6.91586149 5.61057433 -7.00639127 7.49054499 -8 12 C-8.33709062 14.75258812 -8.33709062 14.75258812 -8 17 C-7.34 17.33 -6.68 17.66 -6 18 C-8.70879335 19.35439668 -11.00933268 19.06501451 -14 19 C-14 18.01 -14 17.02 -14 16 C-12.68 16.33 -11.36 16.66 -10 17 C-10.33 16.01 -10.66 15.02 -11 14 C-11.66 13.855625 -12.32 13.71125 -13 13.5625 C-13.66 13.376875 -14.32 13.19125 -15 13 C-15.875 11.0625 -15.875 11.0625 -16 9 C-15.34 8.34 -14.68 7.68 -14 7 C-13.938125 6.34 -13.87625 5.68 -13.8125 5 C-13.544375 4.34 -13.27625 3.68 -13 3 C-9.6875 1.8125 -9.6875 1.8125 -6 1 C-5.236875 0.79375 -4.47375 0.5875 -3.6875 0.375 C-2 0 -2 0 0 0 Z M-11 5 C-11.33 6.65 -11.66 8.3 -12 10 C-10.45833358 8.62514468 -10.45833358 8.62514468 -9 7 C-9 6.34 -9 5.68 -9 5 C-9.66 5 -10.32 5 -11 5 Z " fill="#000000" transform="translate(375,398)"/>
<path d="M0 0 C0.99 0 1.98 0 3 0 C3 0.66 3 1.32 3 2 C3.556875 1.855625 4.11375 1.71125 4.6875 1.5625 C7.11384195 0.97230872 9.54906345 0.476571 12 0 C12 0.99 12 1.98 12 3 C11.34 3 10.68 3 10 3 C10 3.99 10 4.98 10 6 C8.54119891 5.85892253 7.08296449 5.71197585 5.625 5.5625 C4.40683594 5.44068359 4.40683594 5.44068359 3.1640625 5.31640625 C1 5 1 5 -1 4 C-0.67 2.68 -0.34 1.36 0 0 Z " fill="#000000" transform="translate(328,401)"/>
<path d="M0 0 C0.99 0.33 1.98 0.66 3 1 C3 2.65 3 4.3 3 6 C2.34 6 1.68 6 1 6 C1.33 6.99 1.66 7.98 2 9 C1.01 9.33 0.02 9.66 -1 10 C-1.625 7.125 -1.625 7.125 -2 4 C-1.34 3.34 -0.68 2.68 0 2 C0 1.34 0 0.68 0 0 Z " fill="#000000" transform="translate(349,402)"/>
<path d="M0 0 C0.33 1.98 0.66 3.96 1 6 C-0.98 5.34 -2.96 4.68 -5 4 C-5 3.34 -5 2.68 -5 2 C-2 0 -2 0 0 0 Z " fill="#000000" transform="translate(335,406)"/>
<path d="M0 0 C3 1 3 1 4.1875 3.0625 C4.455625 3.701875 4.72375 4.34125 5 5 C3.35 5 1.7 5 0 5 C-0.5625 3.0625 -0.5625 3.0625 -1 1 C-0.67 0.67 -0.34 0.34 0 0 Z " fill="#000000" transform="translate(377,407)"/>
<path d="M0 0 C0.763125 0.20625 1.52625 0.4125 2.3125 0.625 C2.3125 1.285 2.3125 1.945 2.3125 2.625 C0.3325 2.625 -1.6475 2.625 -3.6875 2.625 C-4.0175 3.615 -4.3475 4.605 -4.6875 5.625 C-5.0175 4.305 -5.3475 2.985 -5.6875 1.625 C-2.6875 -0.375 -2.6875 -0.375 0 0 Z " fill="#000000" transform="translate(344.6875,417.375)"/>
</svg>
