<?xml version="1.0" encoding="UTF-8"?>
<svg version="1.1" xmlns="http://www.w3.org/2000/svg" width="262" height="262">
<path d="M0 0 C1.216875 0.33 2.43375 0.66 3.6875 1 C6.87210604 1.80322213 9.6972843 2.20641973 13 2 C13 2.66 13 3.32 13 4 C13.70125 3.608125 14.4025 3.21625 15.125 2.8125 C18 2 18 2 21.3125 3.375 C22.199375 3.91125 23.08625 4.4475 24 5 C24.33 4.34 24.66 3.68 25 3 C31.42857143 1.71428571 31.42857143 1.71428571 34 3 C34.825 3.12375 35.65 3.2475 36.5 3.375 C39 4 39 4 41 7 C43.59009554 7.24950462 45.9187129 7.32719737 48.5 7.25 C49.53447266 7.24226563 49.53447266 7.24226563 50.58984375 7.234375 C54.42295997 7.21700031 54.42295997 7.21700031 58 6 C58 6.99 58 7.98 58 9 C63.94 9.99 63.94 9.99 70 11 C70.33 11.99 70.66 12.98 71 14 C71.66 14 72.32 14 73 14 C73.66 13.34 74.32 12.68 75 12 C75.99 12.99 75.99 12.99 77 14 C79.10820797 13.6814823 79.10820797 13.6814823 81 13 C81 13.66 81 14.32 81 15 C82.98 15.99 82.98 15.99 85 17 C85 17.99 85 18.98 85 20 C85.99 20 86.98 20 88 20 C88.33 20.99 88.66 21.98 89 23 C88.67 23.66 88.34 24.32 88 25 C89.32 25.33 90.64 25.66 92 26 C91.814375 26.886875 91.62875 27.77375 91.4375 28.6875 C91.01957516 31.85178811 91.19222258 33.94839642 92 37 C91.01 37 90.02 37 89 37 C89 37.99 89 38.98 89 40 C90.65 40 92.3 40 94 40 C94.33 41.32 94.66 42.64 95 44 C94.34 44 93.68 44 93 44 C93 43.34 93 42.68 93 42 C92.34 42 91.68 42 91 42 C92.65 43.98 94.3 45.96 96 48 C95.67 48.66 95.34 49.32 95 50 C95.11231685 51.50504575 95.28656253 53.00593768 95.5 54.5 C96.11111111 58.77777778 96.11111111 58.77777778 95 61 C94.01 61.33 93.02 61.66 92 62 C92.928125 62.4640625 92.928125 62.4640625 93.875 62.9375 C99.38568307 68.28610415 98.53722554 78.80263932 99 86 C98.34 86 97.68 86 97 86 C97.165 87.155 97.33 88.31 97.5 89.5 C98.15155136 94.74033447 98.69135263 99.92594212 97 105 C96.3350004 108.52449786 95.89560048 111.38665282 96.5 114.9375 C97.14317923 118.87697276 96.61097869 122.0625818 96 126 C94.35 125.67 92.7 125.34 91 125 C91.04125 125.7425 91.0825 126.485 91.125 127.25 C90.99477876 130.11486738 90.29035869 131.50530653 89 134 C90.39195915 136.7839183 92.15575779 136.97898997 95 138 C95.31461385 145.09629025 95.44572039 150.68284595 92 157 C92.66 157.66 93.32 158.32 94 159 C94 159.66 94 160.32 94 161 C93.34 161 92.68 161 92 161 C92 161.66 92 162.32 92 163 C91.67 163.33 91.34 163.66 91 164 C91.33 164.66 91.66 165.32 92 166 C91.34 166 90.68 166 90 166 C90 167.65 90 169.3 90 171 C90.66 171.33 91.32 171.66 92 172 C92.33 172.33 92.66 172.66 93 173 C93.66 172.01 94.32 171.02 95 170 C97.42857143 177.42857143 97.42857143 177.42857143 96 181 C94.68 181.33 93.36 181.66 92 182 C92 183.65 92 185.3 92 187 C90.66666667 187 89.33333333 187 88 187 C87.34 187.99 86.68 188.98 86 190 C85.01 190 84.02 190 83 190 C83.99 192.64 84.98 195.28 86 198 C86.99 198 87.98 198 89 198 C92 203.75 92 203.75 92 206 C91.34 206 90.68 206 90 206 C89.34 207.65 88.68 209.3 88 211 C81.25 209.375 81.25 209.375 79 206 C77.68 207.32 76.36 208.64 75 210 C74.67 209.34 74.34 208.68 74 208 C73.01 207.67 72.02 207.34 71 207 C69.98888907 210.04913228 69.98888907 210.04913228 71 213 C70.01 213 69.02 213 68 213 C68.33 213.99 68.66 214.98 69 216 C67.35 216 65.7 216 64 216 C63.67 216.99 63.34 217.98 63 219 C61.68 218.34 60.36 217.68 59 217 C58.67 217.99 58.34 218.98 58 220 C56.68 220 55.36 220 54 220 C53.67 219.01 53.34 218.02 53 217 C50.03824877 217.61277612 48.61941217 218.25372522 46 220 C45.01 220 44.02 220 43 220 C43 220.99 43 221.98 43 223 C40.36 223.66 37.72 224.32 35 225 C34.67 224.01 34.34 223.02 34 222 C34.33 221.34 34.66 220.68 35 220 C34.0925 220 33.185 220 32.25 220 C29.83333333 220 27.41666667 220 25 220 C25 220.66 25 221.32 25 222 C24.01 222.33 23.02 222.66 22 223 C22.33 221.68 22.66 220.36 23 219 C21.35 219.33 19.7 219.66 18 220 C17.814375 220.9590625 17.814375 220.9590625 17.625 221.9375 C17.41875 222.618125 17.2125 223.29875 17 224 C16.34 224.33 15.68 224.66 15 225 C14.34 224.34 13.68 223.68 13 223 C13 222.01 13 221.02 13 220 C12.67 219.34 12.34 218.68 12 218 C10.68 218.33 9.36 218.66 8 219 C7.67 220.32 7.34 221.64 7 223 C6.67 223 6.34 223 6 223 C6 221.35 6 219.7 6 218 C5.01 217.67 4.02 217.34 3 217 C2.67 217.66 2.34 218.32 2 219 C2.99 219 3.98 219 5 219 C5 220.65 5 222.3 5 224 C3.23186888 224.24915939 1.46025018 224.47366632 -0.3125 224.6875 C-1.79169922 224.87892578 -1.79169922 224.87892578 -3.30078125 225.07421875 C-6 225 -6 225 -7.60546875 223.51953125 C-8.06566406 223.01808594 -8.52585937 222.51664063 -9 222 C-10.32 222 -11.64 222 -13 222 C-13.33 221.34 -13.66 220.68 -14 220 C-14.66 220.99 -15.32 221.98 -16 223 C-16.66 222.67 -17.32 222.34 -18 222 C-18.33 222 -18.66 222 -19 222 C-19.99 222 -20.98 222 -22 222 C-22.33 221.67 -22.66 221.34 -23 221 C-23.99 220.67 -24.98 220.34 -26 220 C-26.66 219.67 -27.32 219.34 -28 219 C-28.99 219.33 -29.98 219.66 -31 220 C-31 219.34 -31 218.68 -31 218 C-33.64 218.33 -36.28 218.66 -39 219 C-39.33 217.02 -39.66 215.04 -40 213 C-41.32 212.67 -42.64 212.34 -44 212 C-44 212.66 -44 213.32 -44 214 C-43.01 214.33 -42.02 214.66 -41 215 C-42.32 215.99 -43.64 216.98 -45 218 C-47.33936818 215.87330165 -48.80653848 213.93775144 -50 211 C-50 209.33333333 -50 207.66666667 -50 206 C-51.98 206.99 -51.98 206.99 -54 208 C-53.26330078 208.59748047 -53.26330078 208.59748047 -52.51171875 209.20703125 C-50.56816575 211.5121755 -50.683464 212.7196719 -50.8125 215.6875 C-50.85310547 216.89986328 -50.85310547 216.89986328 -50.89453125 218.13671875 C-50.92933594 218.75160156 -50.96414062 219.36648437 -51 220 C-51.99 220 -52.98 220 -54 220 C-54.33 219.01 -54.66 218.02 -55 217 C-57.01508358 216.26676204 -57.01508358 216.26676204 -59 216 C-58.67 215.01 -58.34 214.02 -58 213 C-59.65 213 -61.3 213 -63 213 C-62.34 212.01 -61.68 211.02 -61 210 C-61.62648438 209.89042969 -62.25296875 209.78085938 -62.8984375 209.66796875 C-63.71570313 209.50941406 -64.53296875 209.35085937 -65.375 209.1875 C-66.59316406 208.96126953 -66.59316406 208.96126953 -67.8359375 208.73046875 C-70 208 -70 208 -72 205 C-71.38125 204.79375 -70.7625 204.5875 -70.125 204.375 C-67.08540411 202.40820266 -66.86416062 200.45664249 -66 197 C-65.63079809 195.00630969 -65.28674418 193.00720923 -65 191 C-64.34 191 -63.68 191 -63 191 C-63 191.66 -63 192.32 -63 193 C-61.68 193.33 -60.36 193.66 -59 194 C-59.99 194.99 -60.98 195.98 -62 197 C-61.05125 196.814375 -60.1025 196.62875 -59.125 196.4375 C-56 196 -56 196 -54 197 C-53.67 196.01 -53.34 195.02 -53 194 C-50.69 194.66 -48.38 195.32 -46 196 C-46 196.66 -46 197.32 -46 198 C-44.35 197.67 -42.7 197.34 -41 197 C-40.67 197.66 -40.34 198.32 -40 199 C-38.15017528 200.25827123 -38.15017528 200.25827123 -36 201 C-35.01 200.67 -34.02 200.34 -33 200 C-30.8125 200.9375 -30.8125 200.9375 -29 202 C-29 202.66 -29 203.32 -29 204 C-28.34 203.34 -27.68 202.68 -27 202 C-26.01 202.33 -25.02 202.66 -24 203 C-21.47208167 203.12963684 -19.38455349 203.10487822 -16.9375 202.4375 C-15 202 -15 202 -13.0625 202.5 C-10.98550079 203.15696453 -10.98550079 203.15696453 -8.8125 202.5625 C-4.87080617 201.77416123 -1.00628199 201.92144545 3 202 C3 202.66 3 203.32 3 204 C3.99 204 4.98 204 6 204 C6.33 203.34 6.66 202.68 7 202 C7.33 202.66 7.66 203.32 8 204 C7.67 204.99 7.34 205.98 7 207 C7.99 207 8.98 207 10 207 C10.33 205.35 10.66 203.7 11 202 C12.051875 202.020625 13.10375 202.04125 14.1875 202.0625 C17.82597637 202.1258222 17.82597637 202.1258222 20.625 201.4375 C23.35999827 200.93368453 25.32689811 201.31263094 28 202 C28 201.34 28 200.68 28 200 C30.31 200 32.62 200 35 200 C35 200.99 35 201.98 35 203 C35.66 203.33 36.32 203.66 37 204 C37 204.66 37 205.32 37 206 C37.66 205.34 38.32 204.68 39 204 C39.66 204.66 40.32 205.32 41 206 C43.57061311 206.64767793 43.57061311 206.64767793 46 207 C46.185625 205.7934375 46.185625 205.7934375 46.375 204.5625 C46.58125 203.716875 46.7875 202.87125 47 202 C49 201 49 201 50.875 201.5 C53.2962073 202.06969584 54.64200688 201.65048086 57 201 C57.33 201.33 57.66 201.66 58 202 C60.45809998 202.2500773 60.45809998 202.2500773 63 202 C63.66 201.34 64.32 200.68 65 200 C65.33 200.33 65.66 200.66 66 201 C66.33 200.01 66.66 199.02 67 198 C66.01 197.01 65.02 196.02 64 195 C64 195.66 64 196.32 64 197 C63.34 197 62.68 197 62 197 C61.67 197.99 61.34 198.98 61 200 C60.34 199.67 59.68 199.34 59 199 C59 197.35 59 195.7 59 194 C60.11375 193.566875 61.2275 193.13375 62.375 192.6875 C66.17512334 191.30088881 66.17512334 191.30088881 68 188 C69.32 188.66 70.64 189.32 72 190 C72 189.34 72 188.68 72 188 C72.680625 187.38125 73.36125 186.7625 74.0625 186.125 C74.701875 185.42375 75.34125 184.7225 76 184 C75.76230794 181.8817921 75.76230794 181.8817921 75 180 C76 178 76 178 78 177.1875 C80.28474077 176.14044802 80.28474077 176.14044802 80.75 173.375 C80.8325 172.59125 80.915 171.8075 81 171 C79.68 170.67 78.36 170.34 77 170 C77 169.34 77 168.68 77 168 C79.475 167.01 79.475 167.01 82 166 C82 163.36 82 160.72 82 158 C82.66 158 83.32 158 84 158 C84 157.34 84 156.68 84 156 C82.68 155.67 81.36 155.34 80 155 C80.185625 154.29875 80.37125 153.5975 80.5625 152.875 C81.05156976 149.66111302 80.66231558 147.16439664 80 144 C79.34 144 78.68 144 78 144 C78.350625 143.4225 78.70125 142.845 79.0625 142.25 C80.16485738 139.60434229 79.8848549 138.65456471 79 136 C79 135.34 79 134.68 79 134 C78.34 134 77.68 134 77 134 C77.3403125 133.1028125 77.3403125 133.1028125 77.6875 132.1875 C77.8421875 131.1046875 77.8421875 131.1046875 78 130 C76.58333333 128.41666667 76.58333333 128.41666667 75 127 C75 126.01 75 125.02 75 124 C75.99 124 76.98 124 78 124 C78 123.01 78 122.02 78 121 C77.01 120.67 76.02 120.34 75 120 C73.4375 118.5625 73.4375 118.5625 72 117 C71.34 116.34 70.68 115.68 70 115 C70.66 113.02 71.32 111.04 72 109 C71.34 109 70.68 109 70 109 C70 107.68 70 106.36 70 105 C70.66 105 71.32 105 72 105 C71.67 103.68 71.34 102.36 71 101 C71.721875 100.896875 72.44375 100.79375 73.1875 100.6875 C76.24491993 99.94013068 78.38329635 98.71954811 81 97 C73.81004102 95.7749276 73.81004102 95.7749276 67 98 C65.9673198 95.21176345 65.95490707 94.1322726 66.9375 91.25 C67.288125 90.5075 67.63875 89.765 68 89 C69.65 89.66 71.3 90.32 73 91 C73.99 89.68 74.98 88.36 76 87 C78.31 87.33 80.62 87.66 83 88 C83 86.02 83 84.04 83 82 C82.38125 81.814375 81.7625 81.62875 81.125 81.4375 C77.94397134 79.28562767 77.80548053 76.62466237 77 73 C76.01 73 75.02 73 74 73 C74 71.35 74 69.7 74 68 C73.01 67.67 72.02 67.34 71 67 C66.24528302 63.49056604 66.24528302 63.49056604 65 61 C65.99 61 66.98 61 68 61 C68 60.01 68 59.02 68 58 C68.66 58 69.32 58 70 58 C70 57.34 70 56.68 70 56 C70.7734375 55.319375 70.7734375 55.319375 71.5625 54.625 C72.036875 54.08875 72.51125 53.5525 73 53 C72.77242269 50.83700789 72.77242269 50.83700789 72 49 C71.01 49.33 70.02 49.66 69 50 C69 49.01 69 48.02 69 47 C69.66 46.67 70.32 46.34 71 46 C71 45.67 71 45.34 71 45 C70.01 45.495 70.01 45.495 69 46 C68.01 44.02 68.01 44.02 67 42 C68.32 41.01 69.64 40.02 71 39 C70.34 36.69 69.68 34.38 69 32 C67.35 32 65.7 32 64 32 C64 32.99 64 33.98 64 35 C63.01 35 62.02 35 61 35 C61 33.35 61 31.7 61 30 C58.76919094 29.28295423 57.41190745 28.88329289 55.125 29.53125 C51.51213734 30.328205 48.51236419 28.99516985 45 28 C45 27.01 45 26.02 45 25 C41.73045798 25.56371414 40.17424117 26.49962266 38 29 C37.01 28.67 36.02 28.34 35 28 C35 27.34 35 26.68 35 26 C34.34 26 33.68 26 33 26 C32.67 26.66 32.34 27.32 32 28 C31.67 27.34 31.34 26.68 31 26 C30.0925 26.20625 29.185 26.4125 28.25 26.625 C24.84461694 27.01792881 23.76547991 26.87657565 21 25 C20.01 24.01 20.01 24.01 19 23 C19.4375 20.9375 19.4375 20.9375 20 19 C17.91258711 16.91258711 15.61347064 16.99242099 12.8125 16.9375 C11.884375 16.958125 10.95625 16.97875 10 17 C10 17.66 10 18.32 10 19 C10.66 19 11.32 19 12 19 C12 19.66 12 20.32 12 21 C10.68 21.66 9.36 22.32 8 23 C7.67 22.01 7.34 21.02 7 20 C7.33 19.34 7.66 18.68 8 18 C7.72057545 16.32345271 7.39171753 14.65391846 7 13 C6.21625 13.020625 5.4325 13.04125 4.625 13.0625 C2 13 2 13 0 12 C-2.11683841 12.89163577 -2.11683841 12.89163577 -4 14 C-4 14.66 -4 15.32 -4 16 C-2.72125 15.79375 -1.4425 15.5875 -0.125 15.375 C2.0546875 15.0234375 2.0546875 15.0234375 4 15 C4.99 15.99 4.99 15.99 6 17 C3.52467789 19.47532211 2.36068317 19.38704795 -1.0625 19.6875 C-1.96097656 19.77386719 -2.85945313 19.86023438 -3.78515625 19.94921875 C-4.88150391 19.97435547 -4.88150391 19.97435547 -6 20 C-6.33 19.67 -6.66 19.34 -7 19 C-7.66 19.33 -8.32 19.66 -9 20 C-8.505 21.11375 -8.505 21.11375 -8 22.25 C-7 25 -7 25 -7 29 C-8.65 28.67 -10.3 28.34 -12 28 C-12.33 26.35 -12.66 24.7 -13 23 C-14.485 22.505 -14.485 22.505 -16 22 C-16 19.03 -16 16.06 -16 13 C-18.99405579 13.46853622 -18.99405579 13.46853622 -22 15 C-23.46022435 18.52451159 -23.46022435 18.52451159 -24 22 C-24.66 22 -25.32 22 -26 22 C-26 22.99 -26 23.98 -26 25 C-27.485 24.505 -27.485 24.505 -29 24 C-28.67 23.34 -28.34 22.68 -28 22 C-29.65 21.67 -31.3 21.34 -33 21 C-31.94729537 22.15811388 -31.94729537 22.15811388 -30 23 C-30 23.99 -30 24.98 -30 26 C-32.78395966 27.31009866 -34.70858535 28.00647588 -37.8125 27.9375 C-42.07138147 28.02100748 -45.07305688 29.37505802 -49 31 C-50.15837626 26.94568308 -49.83691257 24.78187881 -48 21 C-49.98 21.33 -51.96 21.66 -54 22 C-53.814375 22.61875 -53.62875 23.2375 -53.4375 23.875 C-53 26 -53 26 -54 28 C-56.5625 28.625 -56.5625 28.625 -59 29 C-59 28.34 -59 27.68 -59 27 C-60.485 26.505 -60.485 26.505 -62 26 C-62 25.34 -62 24.68 -62 24 C-63.32 23.34 -64.64 22.68 -66 22 C-65.505 24.97 -65.505 24.97 -65 28 C-66.66666667 28 -68.33333333 28 -70 28 C-70.185625 29.1446875 -70.185625 29.1446875 -70.375 30.3125 C-71 33 -71 33 -73 36 C-73.99 36 -74.98 36 -76 36 C-76.99 36.33 -77.98 36.66 -79 37 C-79.99 36.505 -79.99 36.505 -81 36 C-81 36.66 -81 37.32 -81 38 C-80.34 38 -79.68 38 -79 38 C-80.06636703 41.09246438 -81.00644659 42.00415447 -83.8125 43.8125 C-87.27629638 45.10293395 -88.52747118 44.8666583 -92 44 C-92.02709444 46.08326131 -92.04643873 48.16662441 -92.0625 50.25 C-92.07410156 51.41015625 -92.08570313 52.5703125 -92.09765625 53.765625 C-92.01679784 56.44365559 -91.66791297 58.44978682 -91 61 C-91.65217391 67.30434783 -91.65217391 67.30434783 -93 70 C-93.99 69.505 -93.99 69.505 -95 69 C-95 68.34 -95 67.68 -95 67 C-95.66 67 -96.32 67 -97 67 C-98.29042763 69.26601865 -98.29042763 69.26601865 -99 72 C-97.73647948 74.32511472 -97.73647948 74.32511472 -96 76 C-95.67 74.68 -95.34 73.36 -95 72 C-94.01 72 -93.02 72 -92 72 C-92 91 -92 91 -93 93 C-92.34 93 -91.68 93 -91 93 C-91.28151087 94.31471568 -91.57553339 95.62675767 -91.875 96.9375 C-92.03742188 97.66839844 -92.19984375 98.39929688 -92.3671875 99.15234375 C-93 101 -93 101 -95 102 C-94.01 102 -93.02 102 -92 102 C-92.495 103.98 -92.495 103.98 -93 106 C-92.01 106.33 -91.02 106.66 -90 107 C-89.22686955 112.9114744 -88.85180723 118.1314592 -90 124 C-90.804375 124.12375 -91.60875 124.2475 -92.4375 124.375 C-93.7059375 124.684375 -93.7059375 124.684375 -95 125 C-95.33 125.66 -95.66 126.32 -96 127 C-94.35 127 -92.7 127 -91 127 C-91.495 129.97 -91.495 129.97 -92 133 C-91.34 133 -90.68 133 -90 133 C-89.875 135.375 -89.875 135.375 -90 138 C-90.66 138.66 -91.32 139.32 -92 140 C-91.34 140 -90.68 140 -90 140 C-90 145.33333333 -90 150.66666667 -90 156 C-90.99 156 -91.98 156 -93 156 C-93 156.66 -93 157.32 -93 158 C-92.34 158.33 -91.68 158.66 -91 159 C-91 160.32 -91 161.64 -91 163 C-90.649375 164.19625 -90.29875 165.3925 -89.9375 166.625 C-89 170 -89 170 -90 172 C-89.34 172.33 -88.68 172.66 -88 173 C-87.7525 174.3303125 -87.7525 174.3303125 -87.5 175.6875 C-85.19558601 180.77641422 -80.82078576 182.49176829 -76 185 C-76.33 185.99 -76.66 186.98 -77 188 C-76.36191406 188.12117187 -75.72382812 188.24234375 -75.06640625 188.3671875 C-73.82697266 188.61855469 -73.82697266 188.61855469 -72.5625 188.875 C-71.32693359 189.11863281 -71.32693359 189.11863281 -70.06640625 189.3671875 C-69.38449219 189.57601562 -68.70257813 189.78484375 -68 190 C-67.67 190.66 -67.34 191.32 -67 192 C-68.98 192.99 -68.98 192.99 -71 194 C-70.34 194.433125 -69.68 194.86625 -69 195.3125 C-68.34 195.869375 -67.68 196.42625 -67 197 C-67 197.99 -67 198.98 -67 200 C-67.66 200 -68.32 200 -69 200 C-69 199.34 -69 198.68 -69 198 C-69.598125 198.185625 -70.19625 198.37125 -70.8125 198.5625 C-73 199 -73 199 -76 198 C-76 197.01 -76 196.02 -76 195 C-77.65 195 -79.3 195 -81 195 C-80.34 195.99 -79.68 196.98 -79 198 C-79 198.99 -79 199.98 -79 201 C-78.34 201.33 -77.68 201.66 -77 202 C-77.33 202.66 -77.66 203.32 -78 204 C-77.67 204.99 -77.34 205.98 -77 207 C-79.8125 207.625 -79.8125 207.625 -83 208 C-83.99 207.34 -84.98 206.68 -86 206 C-85.81584568 208.94091587 -85.81584568 208.94091587 -85 212 C-83.04836882 213.43637698 -83.04836882 213.43637698 -81 214 C-81.33 214.99 -81.66 215.98 -82 217 C-88.625 216.25 -88.625 216.25 -92 214 C-92.680625 212.8553125 -92.680625 212.8553125 -93.375 211.6875 C-95.22152246 208.63363593 -97.45163898 206.48301843 -100 204 C-100.66 203.01 -101.32 202.02 -102 201 C-101.67 200.34 -101.34 199.68 -101 199 C-101.99 199 -102.98 199 -104 199 C-104.495 197.02 -104.495 197.02 -105 195 C-105.9590625 194.8453125 -105.9590625 194.8453125 -106.9375 194.6875 C-107.9584375 194.3471875 -107.9584375 194.3471875 -109 194 C-109.33 193.01 -109.66 192.02 -110 191 C-108.35 191.33 -106.7 191.66 -105 192 C-105.37125 191.071875 -105.7425 190.14375 -106.125 189.1875 C-106.41375 188.135625 -106.7025 187.08375 -107 186 C-106.34 185.01 -105.68 184.02 -105 183 C-106.485 182.01 -106.485 182.01 -108 181 C-109.1875 177.875 -109.1875 177.875 -110 175 C-109.01 174.01 -109.01 174.01 -108 173 C-108 172.01 -108 171.02 -108 170 C-109.65 170.33 -111.3 170.66 -113 171 C-113 172.65 -113 174.3 -113 176 C-114.5625 174.8125 -114.5625 174.8125 -116 173 C-115.75755858 168.39361307 -113.67844583 164.61389022 -110.375 161.4375 C-108.71515152 159.70220387 -108.40263517 158.33528396 -108 156 C-110.31 155.67 -112.62 155.34 -115 155 C-114.67 156.32 -114.34 157.64 -114 159 C-114.99 159.33 -115.98 159.66 -117 160 C-117.66 159.67 -118.32 159.34 -119 159 C-118.505 157.02 -118.505 157.02 -118 155 C-118.66 155 -119.32 155 -120 155 C-119.67 153.35 -119.34 151.7 -119 150 C-117.02 150 -115.04 150 -113 150 C-113 148.02 -113 146.04 -113 144 C-114.32 144.33 -115.64 144.66 -117 145 C-117.99 142.525 -117.99 142.525 -119 140 C-117.625 138.5 -117.625 138.5 -116 137 C-115.34 137 -114.68 137 -114 137 C-114.66 135.02 -115.32 133.04 -116 131 C-117.32 131 -118.64 131 -120 131 C-119.67 130.01 -119.34 129.02 -119 128 C-118.01 128 -117.02 128 -116 128 C-116.33 127.01 -116.66 126.02 -117 125 C-116.01 125 -115.02 125 -114 125 C-114 124.34 -114 123.68 -114 123 C-114.66 123 -115.32 123 -116 123 C-119 117.25 -119 117.25 -119 115 C-118.34 115 -117.68 115 -117 115 C-117.33 113.68 -117.66 112.36 -118 111 C-121.05270463 110.84188612 -121.05270463 110.84188612 -124 112 C-124 111.01 -124 110.02 -124 109 C-123.34 109 -122.68 109 -122 109 C-122.33 108.01 -122.66 107.02 -123 106 C-122.54625 105.401875 -122.0925 104.80375 -121.625 104.1875 C-119.59959982 101.46099975 -119.41736612 99.33892895 -119 96 C-118.39307575 93.05208219 -117.42190025 90.6542138 -116 88 C-116.9075 87.5875 -117.815 87.175 -118.75 86.75 C-123.95221843 83.94880546 -123.95221843 83.94880546 -126 81 C-125.75 77.25 -125.75 77.25 -125 74 C-122.525 73.505 -122.525 73.505 -120 73 C-120.34444881 70.52733235 -120.34444881 70.52733235 -121 68 C-121.66 67.67 -122.32 67.34 -123 67 C-122.34 67 -121.68 67 -121 67 C-121.495 64.525 -121.495 64.525 -122 62 C-120.33388095 61.957279 -118.66617115 61.95936168 -117 62 C-116.67 62.33 -116.34 62.66 -116 63 C-115.34 61.02 -114.68 59.04 -114 57 C-114.66 56.67 -115.32 56.34 -116 56 C-116.99444068 52.65506316 -117.10348268 50.31044803 -116 47 C-116.66 46.67 -117.32 46.34 -118 46 C-117.01 45.34 -116.02 44.68 -115 44 C-115.556875 43.2265625 -115.556875 43.2265625 -116.125 42.4375 C-117.40331649 38.87647549 -116.20550735 36.4825768 -115 33 C-113.02 33.33 -111.04 33.66 -109 34 C-108.443125 33.030625 -107.88625 32.06125 -107.3125 31.0625 C-104.65088589 27.53765969 -104.05268418 27.74654709 -100 27 C-98.76709799 24.54295238 -98.76709799 24.54295238 -98 22 C-97.34 21.67 -96.68 21.34 -96 21 C-95.01 21.33 -94.02 21.66 -93 22 C-91.68 20.68 -90.36 19.36 -89 18 C-87 19 -87 19 -86 20 C-84.68 19.34 -83.36 18.68 -82 18 C-82 17.34 -82 16.68 -82 16 C-82.99 15.34 -83.98 14.68 -85 14 C-84.67 12.68 -84.34 11.36 -84 10 C-81.7089095 9.80558632 -79.41709663 9.61966865 -77.125 9.4375 C-75.21074219 9.28087891 -75.21074219 9.28087891 -73.2578125 9.12109375 C-70 9 -70 9 -68 10 C-69 13 -69 13 -71 14 C-70.505 15.485 -70.505 15.485 -70 17 C-68.35 16.67 -66.7 16.34 -65 16 C-65.495 14.515 -65.495 14.515 -66 13 C-65.34 13 -64.68 13 -64 13 C-64.04125 12.071875 -64.0825 11.14375 -64.125 10.1875 C-64 7 -64 7 -62 4 C-60.783125 4.33 -59.56625 4.66 -58.3125 5 C-52.23075461 6.37736499 -46.20099395 6.16609805 -40 6 C-37.66666667 6 -35.33333333 6 -33 6 C-33 5.34 -33 4.68 -33 4 C-30 2 -30 2 -27 2 C-26.505 3.485 -26.505 3.485 -26 5 C-25.67 3.68 -25.34 2.36 -25 1 C-18.96711102 1.36524798 -13.78784643 2.28861857 -8.1171875 4.3671875 C-4.97671026 5.30585413 -2.25498119 5.20776476 1 5 C1 4.34 1 3.68 1 3 C0.34 3 -0.32 3 -1 3 C-0.67 2.01 -0.34 1.02 0 0 Z M-29 7 C-29 7.66 -29 8.32 -29 9 C-27.68 9.33 -26.36 9.66 -25 10 C-25.33 9.01 -25.66 8.02 -26 7 C-26.99 7 -27.98 7 -29 7 Z M24 8 C24 8.66 24 9.32 24 10 C24.99 10.33 25.98 10.66 27 11 C27 10.34 27 9.68 27 9 C26.01 8.67 25.02 8.34 24 8 Z M18 9 C19 11 19 11 19 11 Z M15 10 C15.33 10.66 15.66 11.32 16 12 C16.66 11.67 17.32 11.34 18 11 C17.01 10.67 16.02 10.34 15 10 Z M-48 11 C-47.01 11.495 -47.01 11.495 -46 12 C-45.67 12.66 -45.34 13.32 -45 14 C-44.67 13.01 -44.34 12.02 -44 11 C-45.32 11 -46.64 11 -48 11 Z M-49 12 C-48 14 -48 14 -48 14 Z M-79 13 C-78.65213292 14.97536745 -78.65213292 14.97536745 -78 17 C-77.34 17.33 -76.68 17.66 -76 18 C-75.34 17.67 -74.68 17.34 -74 17 C-74 16.34 -74 15.68 -74 15 C-76.475 14.01 -76.475 14.01 -79 13 Z M-38 15 C-37.67 15.99 -37.34 16.98 -37 18 C-34.98491642 18.73323796 -34.98491642 18.73323796 -33 19 C-32.67 17.68 -32.34 16.36 -32 15 C-33.98 15 -35.96 15 -38 15 Z M-44 19 C-43 21 -43 21 -43 21 Z M-41 19 C-41.66 20.32 -42.32 21.64 -43 23 C-41.68 23.33 -40.36 23.66 -39 24 C-38.67 22.68 -38.34 21.36 -38 20 C-38.99 19.67 -39.98 19.34 -41 19 Z M-39 24 C-38 26 -38 26 -38 26 Z M-105 30 C-104.67 30.66 -104.34 31.32 -104 32 C-103.67 31.34 -103.34 30.68 -103 30 C-103.66 30 -104.32 30 -105 30 Z M-97 32 C-97.33 32.99 -97.66 33.98 -98 35 C-97.01 35 -96.02 35 -95 35 C-95.33 36.32 -95.66 37.64 -96 39 C-94.35 38.34 -92.7 37.68 -91 37 C-91 37.66 -91 38.32 -91 39 C-90.34 39 -89.68 39 -89 39 C-89 39.66 -89 40.32 -89 41 C-89.99 41.33 -90.98 41.66 -92 42 C-90.68 42 -89.36 42 -88 42 C-86.42481549 40.25522367 -86.42481549 40.25522367 -85.25 38 C-84.5075 36.68 -83.765 35.36 -83 34 C-86.63 34.33 -90.26 34.66 -94 35 C-94.33 34.01 -94.66 33.02 -95 32 C-95.66 32 -96.32 32 -97 32 Z M75 33 C76.3553326 35.53673288 76.3553326 35.53673288 78 38 C78.66 38 79.32 38 80 38 C80.33 36.68 80.66 35.36 81 34 C78.05270463 32.84188612 78.05270463 32.84188612 75 33 Z M-111 36 C-110 38 -110 38 -110 38 Z M-115 50 C-114 52 -114 52 -114 52 Z M71 58 C71.33 60.31 71.66 62.62 72 65 C72.66 65 73.32 65 74 65 C74.66 63.02 75.32 61.04 76 59 C74.35 58.67 72.7 58.34 71 58 Z M-121 75 C-120.34 76.98 -119.68 78.96 -119 81 C-116.2160817 79.60804085 -116.02101003 77.84424221 -115 75 C-118.04913228 73.98888907 -118.04913228 73.98888907 -121 75 Z M-102 80 C-102 80.99 -102 81.98 -102 83 C-101.34 83 -100.68 83 -100 83 C-100 82.01 -100 81.02 -100 80 C-100.66 80 -101.32 80 -102 80 Z M-121 81 C-121 81.66 -121 82.32 -121 83 C-120.34 82.67 -119.68 82.34 -119 82 C-119.66 81.67 -120.32 81.34 -121 81 Z M-106 84 C-105.67 84.66 -105.34 85.32 -105 86 C-104.67 85.34 -104.34 84.68 -104 84 C-104.66 84 -105.32 84 -106 84 Z M73 103 C74 105 74 105 74 105 Z M-109 116 C-108.67 116.99 -108.34 117.98 -108 119 C-107.01 118.67 -106.02 118.34 -105 118 C-105 117.34 -105 116.68 -105 116 C-106.32 116 -107.64 116 -109 116 Z M91 116 C91 116.66 91 117.32 91 118 C91.66 118 92.32 118 93 118 C93.33 118.66 93.66 119.32 94 120 C94 119.01 94 118.02 94 117 C93.01 116.67 92.02 116.34 91 116 Z M77 118 C77 118.66 77 119.32 77 120 C77.66 120 78.32 120 79 120 C79 119.34 79 118.68 79 118 C78.34 118 77.68 118 77 118 Z M-106 120 C-106.33 120.99 -106.66 121.98 -107 123 C-105.68 122.67 -104.36 122.34 -103 122 C-103 121.34 -103 120.68 -103 120 C-103.99 120 -104.98 120 -106 120 Z M81 126 C81.33 127.98 81.66 129.96 82 132 C81.34 132 80.68 132 80 132 C80.66 133.32 81.32 134.64 82 136 C83.62493901 134.87890434 83.62493901 134.87890434 85 133 C85.25048636 129.87450983 85.25048636 129.87450983 85 127 C83.68 126.67 82.36 126.34 81 126 Z M-106 127 C-105.67 129.64 -105.34 132.28 -105 135 C-104.01 135 -103.02 135 -102 135 C-102.33 132.36 -102.66 129.72 -103 127 C-103.99 127 -104.98 127 -106 127 Z M-111 149 C-110.34 149.66 -109.68 150.32 -109 151 C-109 150.34 -109 149.68 -109 149 C-109.66 149 -110.32 149 -111 149 Z M85 152 C86 154 86 154 86 154 Z M-109 165 C-109.33 165.99 -109.66 166.98 -110 168 C-109.34 168 -108.68 168 -108 168 C-107.67 167.01 -107.34 166.02 -107 165 C-107.66 165 -108.32 165 -109 165 Z M89 180 C88.67 180.99 88.34 181.98 88 183 C89.32 182.34 90.64 181.68 92 181 C91.01 180.67 90.02 180.34 89 180 Z M74 189 C74 189.99 74 190.98 74 192 C74.66 192 75.32 192 76 192 C76 191.01 76 190.02 76 189 C75.34 189 74.68 189 74 189 Z M61 195 C62 197 62 197 62 197 Z M-101 196 C-101.33 196.66 -101.66 197.32 -102 198 C-100.68 197.67 -99.36 197.34 -98 197 C-98.99 196.67 -99.98 196.34 -101 196 Z M-59 198 C-58 200 -58 200 -58 200 Z M-58 200 C-58 200.66 -58 201.32 -58 202 C-57.01 202 -56.02 202 -55 202 C-54.67 201.01 -54.34 200.02 -54 199 C-56.0745356 198.8509288 -56.0745356 198.8509288 -58 200 Z M-61 201 C-60 203 -60 203 -60 203 Z M-50 201 C-50.33 201.66 -50.66 202.32 -51 203 C-50.34 203 -49.68 203 -49 203 C-49.33 202.34 -49.66 201.68 -50 201 Z M71 201 C71.33 201.66 71.66 202.32 72 203 C72.66 202.34 73.32 201.68 74 201 C73.01 201 72.02 201 71 201 Z M21 204 C20.01 204.33 19.02 204.66 18 205 C17.26676204 207.01508358 17.26676204 207.01508358 17 209 C18.32 208.67 19.64 208.34 21 208 C21.33 208.66 21.66 209.32 22 210 C22.6814823 208.10820797 22.6814823 208.10820797 23 206 C22.34 205.34 21.68 204.68 21 204 Z M26 203 C25.01 203.495 25.01 203.495 24 204 C24 204.66 24 205.32 24 206 C25.32 205.67 26.64 205.34 28 205 C27.34 204.34 26.68 203.68 26 203 Z M12 205 C13 207 13 207 13 207 Z M30 205 C30.33 205.66 30.66 206.32 31 207 C31.33 206.34 31.66 205.68 32 205 C31.34 205 30.68 205 30 205 Z M-45 207 C-45.33 208.32 -45.66 209.64 -46 211 C-45.34 211 -44.68 211 -44 211 C-44.33 209.68 -44.66 208.36 -45 207 Z M-55 212 C-55 212.66 -55 213.32 -55 214 C-54.34 214 -53.68 214 -53 214 C-53 213.34 -53 212.68 -53 212 C-53.66 212 -54.32 212 -55 212 Z M-2 220 C-1.01 220.99 -0.02 221.98 1 223 C1.33 222.01 1.66 221.02 2 220 C0.68 220 -0.64 220 -2 220 Z M36 221 C37 223 37 223 37 223 Z " fill="#000000" transform="translate(145,20)"/>
<path d="M0 0 C1.32 0.66 2.64 1.32 4 2 C3.01 2.495 3.01 2.495 2 3 C1.67 3.99 1.34 4.98 1 6 C-0.32 5.67 -1.64 5.34 -3 5 C-2.01 3.35 -1.02 1.7 0 0 Z " fill="#000000" transform="translate(143,41)"/>
<path d="M0 0 C0 0.66 0 1.32 0 2 C1.98 1.67 3.96 1.34 6 1 C6 1.66 6 2.32 6 3 C6.99 3 7.98 3 9 3 C9 3.66 9 4.32 9 5 C9.66 5 10.32 5 11 5 C11.680625 6.4540625 11.680625 6.4540625 12.375 7.9375 C13.65786221 11.07079582 13.65786221 11.07079582 16 12 C16 12.66 16 13.32 16 14 C19.39914975 12.86695008 20.05254451 11.87481525 22 9 C21.01 8.01 21.01 8.01 20 7 C20.33 6.01 20.66 5.02 21 4 C21.66 4 22.32 4 23 4 C23 4.66 23 5.32 23 6 C23.99 6 24.98 6 26 6 C27.6875 7.5 27.6875 7.5 29 9 C28 12 28 12 27 13 C28.98 13 30.96 13 33 13 C33.495 14.485 33.495 14.485 34 16 C34.99 16 35.98 16 37 16 C37.99 17.98 37.99 17.98 39 20 C39.33 19.34 39.66 18.68 40 18 C40.495 20.475 40.495 20.475 41 23 C39.515 22.505 39.515 22.505 38 22 C38 22.99 38 23.98 38 25 C38.99 25 39.98 25 41 25 C41.99 25.99 41.99 25.99 43 27 C44.98387708 28.03161608 46.98276656 29.03523618 49 30 C49 30.99 49 31.98 49 33 C49.66 33 50.32 33 51 33 C52.25664978 35.90600261 53 37.79604584 53 41 C53.66 41 54.32 41 55 41 C55 41.66 55 42.32 55 43 C54.67 43.33 54.34 43.66 54 44 C55.3089572 47.12197478 55.3089572 47.12197478 58 49 C57.67 49.99 57.34 50.98 57 52 C57.66 52.66 58.32 53.32 59 54 C58.505 54.99 58.505 54.99 58 56 C56.68 56 55.36 56 54 56 C53.505 56.99 53.505 56.99 53 58 C56.60992379 57.34414811 56.60992379 57.34414811 60 56 C60.19551338 57.60320974 60.38111983 59.20762986 60.5625 60.8125 C60.66691406 61.70582031 60.77132812 62.59914062 60.87890625 63.51953125 C61 66 61 66 60 69 C59.34 69 58.68 69 58 69 C57.505 70.98 57.505 70.98 57 73 C55.68 73.33 54.36 73.66 53 74 C54.25178596 76.50357192 55.99981158 78.06433379 58 80 C57.01 82.97 56.02 85.94 55 89 C54.34 89 53.68 89 53 89 C52.505 90.98 52.505 90.98 52 93 C50.02 92.505 50.02 92.505 48 92 C47.67 93.98 47.34 95.96 47 98 C47.66 98.33 48.32 98.66 49 99 C48.34 99.99 47.68 100.98 47 102 C43.875 102.1875 43.875 102.1875 41 102 C41 102.66 41 103.32 41 104 C40.01 104 39.02 104 38 104 C38 104.66 38 105.32 38 106 C38.99 106 39.98 106 41 106 C40.505 107.485 40.505 107.485 40 109 C39.34 108.67 38.68 108.34 38 108 C38.33 108.99 38.66 109.98 39 111 C37.515 111.495 37.515 111.495 36 112 C35.67 112.66 35.34 113.32 35 114 C35 113.34 35 112.68 35 112 C32.64828869 112.59861742 30.3140622 113.26924352 28 114 C27.67 114.66 27.34 115.32 27 116 C26.34 116 25.68 116 25 116 C25 115.34 25 114.68 25 114 C23.35 114 21.7 114 20 114 C20 113.34 20 112.68 20 112 C19.34 112 18.68 112 18 112 C18 113.32 18 114.64 18 116 C13.87831311 117.62950412 11.29299643 118.26264601 7 117 C7 117.99 7 118.98 7 120 C4.03 120.495 4.03 120.495 1 121 C1 120.34 1 119.68 1 119 C-0.98 119.495 -0.98 119.495 -3 120 C-3 120.66 -3 121.32 -3 122 C-2.01 121.67 -1.02 121.34 0 121 C0.1875 123.375 0.1875 123.375 0 126 C-0.99 126.66 -1.98 127.32 -3 128 C-3 127.01 -3 126.02 -3 125 C-3.99 124.01 -3.99 124.01 -5 123 C-4.67 122.34 -4.34 121.68 -4 121 C-4.66 121 -5.32 121 -6 121 C-6.33 121.66 -6.66 122.32 -7 123 C-7.33 122.67 -7.66 122.34 -8 122 C-8.61875 122.7734375 -8.61875 122.7734375 -9.25 123.5625 C-9.8275 124.036875 -10.405 124.51125 -11 125 C-13 124.625 -13 124.625 -15 124 C-15.99 124.33 -16.98 124.66 -18 125 C-18 124.01 -18 123.02 -18 122 C-17.01 122 -16.02 122 -15 122 C-15.99 121.505 -15.99 121.505 -17 121 C-17 120.34 -17 119.68 -17 119 C-19.97 119.495 -19.97 119.495 -23 120 C-23 119.01 -23 118.02 -23 117 C-22.34 117 -21.68 117 -21 117 C-20.67 115.68 -20.34 114.36 -20 113 C-23.465 113.99 -23.465 113.99 -27 115 C-27.33 114.01 -27.66 113.02 -28 112 C-28.66 111.34 -29.32 110.68 -30 110 C-30.70710678 108.35008418 -31.37943989 106.68437744 -32 105 C-32.33 105.66 -32.66 106.32 -33 107 C-33 105.68 -33 104.36 -33 103 C-34.093125 102.731875 -35.18625 102.46375 -36.3125 102.1875 C-39.61692663 101.12336261 -40.94960422 100.65345336 -43 98 C-42.34 97.54625 -41.68 97.0925 -41 96.625 C-40.34 96.08875 -39.68 95.5525 -39 95 C-39 94.34 -39 93.68 -39 93 C-40.32 92.67 -41.64 92.34 -43 92 C-42.67 90.35 -42.34 88.7 -42 87 C-42.66 87 -43.32 87 -44 87 C-44 85 -44 85 -43 84 C-43.99 83.34 -44.98 82.68 -46 82 C-46.8125 80.0625 -46.8125 80.0625 -47 78 C-46.34 77.01 -45.68 76.02 -45 75 C-45.66 74.34 -46.32 73.68 -47 73 C-46.34 73 -45.68 73 -45 73 C-44.67 71.35 -44.34 69.7 -44 68 C-44.99 67.67 -45.98 67.34 -47 67 C-46.505 66.01 -46.505 66.01 -46 65 C-45.01 65.66 -44.02 66.32 -43 67 C-43.56076801 64.50995496 -43.56076801 64.50995496 -45 62 C-48.02982306 60.62810173 -48.02982306 60.62810173 -51 60 C-50.67 59.34 -50.34 58.68 -50 58 C-48.02 58 -46.04 58 -44 58 C-43.34 56.02 -42.68 54.04 -42 52 C-43.32 51.34 -44.64 50.68 -46 50 C-45.67 49.01 -45.34 48.02 -45 47 C-43 48 -43 48 -42 49 C-41.34 47.68 -40.68 46.36 -40 45 C-40.66 45 -41.32 45 -42 45 C-42.33 42.36 -42.66 39.72 -43 37 C-41.02 36.505 -41.02 36.505 -39 36 C-39.66 35.67 -40.32 35.34 -41 35 C-41 34.01 -41 33.02 -41 32 C-41.78375 32.66 -42.5675 33.32 -43.375 34 C-46 36 -46 36 -48 36 C-48 36.66 -48 37.32 -48 38 C-49.98 38.495 -49.98 38.495 -52 39 C-50.89904638 35.69713914 -50.3103981 35.21489099 -47.5625 33.3125 C-46.94503906 32.87550781 -46.32757813 32.43851563 -45.69140625 31.98828125 C-44 31 -44 31 -42 31 C-42 30.34 -42 29.68 -42 29 C-40.02 28.67 -38.04 28.34 -36 28 C-35.67 26.68 -35.34 25.36 -35 24 C-34.34 24 -33.68 24 -33 24 C-32.6596875 23.071875 -32.6596875 23.071875 -32.3125 22.125 C-30.62070165 19.38589791 -29.00755839 18.94975528 -26 18 C-25.87625 16.741875 -25.7525 15.48375 -25.625 14.1875 C-25.30131941 10.89674737 -24.93395001 9.90092502 -23 7 C-23.66 7 -24.32 7 -25 7 C-24 5 -24 5 -21 4 C-20.67 3.34 -20.34 2.68 -20 2 C-17.525 2.99 -17.525 2.99 -15 4 C-15 4.66 -15 5.32 -15 6 C-10.02788768 5.6361869 -7.30372337 4.07030259 -3.515625 1.05859375 C-2 0 -2 0 0 0 Z M-4 5 C-4.33 5.66 -4.66 6.32 -5 7 C-4.34 7 -3.68 7 -3 7 C-3.33 6.34 -3.66 5.68 -4 5 Z M24 7 C23.67 7.66 23.34 8.32 23 9 C23.66 9 24.32 9 25 9 C24.67 8.34 24.34 7.68 24 7 Z M-23 9 C-23 9.99 -23 10.98 -23 12 C-21.68 11.67 -20.36 11.34 -19 11 C-19 10.34 -19 9.68 -19 9 C-20.32 9 -21.64 9 -23 9 Z M-21 15 C-21 18 -21 18 -21 18 Z M20 15 C21 18 21 18 21 18 Z M5 17 C5 17.66 5 18.32 5 19 C5.66 18.67 6.32 18.34 7 18 C6.34 17.67 5.68 17.34 5 17 Z M26 17 C25.01 17.495 25.01 17.495 24 18 C24.33 18.99 24.66 19.98 25 21 C25.99 21.33 26.98 21.66 28 22 C28.33 20.68 28.66 19.36 29 18 C28.01 17.67 27.02 17.34 26 17 Z M15 20 C14.67 20.99 14.34 21.98 14 23 C14.99 23.495 14.99 23.495 16 24 C16.66 23.67 17.32 23.34 18 23 C17.67 22.01 17.34 21.02 17 20 C16.34 20 15.68 20 15 20 Z M-3 21 C-2.34 21.66 -1.68 22.32 -1 23 C-1.8353125 23.1546875 -1.8353125 23.1546875 -2.6875 23.3125 C-5.44176578 24.13133577 -7.58727657 25.45853781 -10 27 C-9.67 27.99 -9.34 28.98 -9 30 C-10.65 30.33 -12.3 30.66 -14 31 C-14.33 32.32 -14.66 33.64 -15 35 C-15.5534764 32.92446352 -16 31.15634036 -16 29 C-17.65 29.66 -19.3 30.32 -21 31 C-20.608125 32.216875 -20.21625 33.43375 -19.8125 34.6875 C-18.97880731 37.94752592 -18.80918242 38.61836483 -20.375 41.75 C-20.91125 42.4925 -21.4475 43.235 -22 44 C-22 45.32 -22 46.64 -22 48 C-22.66 48 -23.32 48 -24 48 C-24.28875 48.61875 -24.5775 49.2375 -24.875 49.875 C-26 52 -26 52 -28 54 C-28.28108663 56.37098906 -28.28108663 56.37098906 -28.1875 59 C-28.18105469 59.886875 -28.17460938 60.77375 -28.16796875 61.6875 C-28.14581927 64.02606345 -28.14581927 64.02606345 -27 66 C-27.66 66 -28.32 66 -29 66 C-29.33 66.66 -29.66 67.32 -30 68 C-30.66 68 -31.32 68 -32 68 C-32 68.99 -32 69.98 -32 71 C-32.99 71.495 -32.99 71.495 -34 72 C-33.071875 72.309375 -32.14375 72.61875 -31.1875 72.9375 C-27.71580652 75.1838899 -27.54473204 75.53328661 -26.5 79.25 C-25.08244087 84.25219143 -23.07812352 87.70716066 -19 91 C-11.8782121 94.90101832 -3.46594967 95.01115842 4.3125 93.25 C7.47107321 91.78089618 10.21407869 90.06478681 13 88 C13.78890625 87.45472656 14.5778125 86.90945312 15.390625 86.34765625 C21.32772418 82.00148634 24.69452228 77.87814623 27.84375 71.22265625 C29 69 29 69 31 68 C31.7269679 65.9525295 31.7269679 65.9525295 32.1875 63.5625 C32.36667969 62.75941406 32.54585938 61.95632812 32.73046875 61.12890625 C33.2067554 58.95016535 33.2067554 58.95016535 32 57 C32.66 56.67 33.32 56.34 34 56 C33.505 52.535 33.505 52.535 33 49 C32.34 49 31.68 49 31 49 C30.896875 47.9275 30.79375 46.855 30.6875 45.75 C30.02797801 42.15260731 29.54223809 40.54223809 27 38 C26.34 38 25.68 38 25 38 C24.79375 37.2575 24.5875 36.515 24.375 35.75 C21.19714806 29.39429613 13.38168609 27.1578363 7 25 C6.34 25 5.68 25 5 25 C4.505 24.01 4.505 24.01 4 23 C3.01 23.33 2.02 23.66 1 24 C1 23.01 1 22.02 1 21 C-0.32 21 -1.64 21 -3 21 Z M-30 22 C-29.49396008 24.16874252 -29.00016187 25.99967627 -28 28 C-27.34 28 -26.68 28 -26 28 C-25.67 28.99 -25.34 29.98 -25 31 C-23.02 30.34 -21.04 29.68 -19 29 C-21.59507732 26.12687868 -23.20883882 24.73377313 -27 24 C-27.99 23.34 -28.98 22.68 -30 22 Z M-33 31 C-32 33 -32 33 -32 33 Z M-31 31 C-30.34 31.66 -29.68 32.32 -29 33 C-28.67 32.34 -28.34 31.68 -28 31 C-28.99 31 -29.98 31 -31 31 Z M-16 31 C-15 33 -15 33 -15 33 Z M-37 34 C-37 34.66 -37 35.32 -37 36 C-36.01 36.33 -35.02 36.66 -34 37 C-33.34 36.34 -32.68 35.68 -32 35 C-33.65 34.67 -35.3 34.34 -37 34 Z M-28 34 C-28 34.66 -28 35.32 -28 36 C-26.68 36 -25.36 36 -24 36 C-24.99 36.33 -25.98 36.66 -27 37 C-27 37.66 -27 38.32 -27 39 C-24.18490007 41.2773501 -24.18490007 41.2773501 -21 41 C-21.66 39.02 -22.32 37.04 -23 35 C-24.65 34.67 -26.3 34.34 -28 34 Z M53 47 C53 50 53 50 53 50 Z M-34 63 C-34.33 63.99 -34.66 64.98 -35 66 C-34.34 66 -33.68 66 -33 66 C-33.33 65.01 -33.66 64.02 -34 63 Z M50 78 C49.67 78.99 49.34 79.98 49 81 C49.99 81.495 49.99 81.495 51 82 C51.33 80.68 51.66 79.36 52 78 C51.34 78 50.68 78 50 78 Z M34 79 C33.67 80.32 33.34 81.64 33 83 C33.99 82.01 34.98 81.02 36 80 C35.34 79.67 34.68 79.34 34 79 Z M-41 88 C-41 88.66 -41 89.32 -41 90 C-40.34 90 -39.68 90 -39 90 C-39 89.34 -39 88.68 -39 88 C-39.66 88 -40.32 88 -41 88 Z M38 91 C38 91.66 38 92.32 38 93 C38.66 93 39.32 93 40 93 C39.67 94.65 39.34 96.3 39 98 C39.99 98 40.98 98 42 98 C43.33333333 95 43.33333333 95 42 92 C39.98491642 91.26676204 39.98491642 91.26676204 38 91 Z M25 93 C25 93.66 25 94.32 25 95 C24.01 95.33 23.02 95.66 22 96 C22.99 96.33 23.98 96.66 25 97 C25.99 96.34 26.98 95.68 28 95 C28 94.34 28 93.68 28 93 C27.01 93 26.02 93 25 93 Z M9 94 C9 95.32 9 96.64 9 98 C10.68496298 97.03114628 12.35178756 96.03013277 14 95 C14 94.67 14 94.34 14 94 C12.35 94 10.7 94 9 94 Z M29 102 C30 104 30 104 30 104 Z M-13 104 C-13 104.66 -13 105.32 -13 106 C-11.68 106 -10.36 106 -9 106 C-9 105.34 -9 104.68 -9 104 C-10.32 104 -11.64 104 -13 104 Z M0 109 C0 109.99 0 110.98 0 112 C0.66 111.67 1.32 111.34 2 111 C1.34 110.34 0.68 109.68 0 109 Z M34 109 C35 111 35 111 35 111 Z M30 110 C29.67 110.66 29.34 111.32 29 112 C29.99 111.67 30.98 111.34 32 111 C31.34 110.67 30.68 110.34 30 110 Z M-14 112 C-14 112.66 -14 113.32 -14 114 C-14.99 114.495 -14.99 114.495 -16 115 C-15.01 116.32 -14.02 117.64 -13 119 C-11.68 118.67 -10.36 118.34 -9 118 C-9.33 117.34 -9.66 116.68 -10 116 C-10.66 116 -11.32 116 -12 116 C-12.33 114.68 -12.66 113.36 -13 112 C-13.33 112 -13.66 112 -14 112 Z M-1 112 C-2.32 113.65 -3.64 115.3 -5 117 C-2.69 117.33 -0.38 117.66 2 118 C2.66 116.68 3.32 115.36 4 114 C1.525 113.01 1.525 113.01 -1 112 Z M11 113 C11 113.99 11 114.98 11 116 C11.66 116 12.32 116 13 116 C13 115.34 13 114.68 13 114 C13.66 113.67 14.32 113.34 15 113 C13.68 113 12.36 113 11 113 Z M-4 118 C-4.33 118.66 -4.66 119.32 -5 120 C-4.34 120 -3.68 120 -3 120 C-3.33 119.34 -3.66 118.68 -4 118 Z " fill="#000000" transform="translate(142,72)"/>
<path d="M0 0 C1.32 0.99 2.64 1.98 4 3 C3.75 5.875 3.75 5.875 3 9 C0.9375 10.375 0.9375 10.375 -1 11 C-3 8 -3 8 -2.625 5.8125 C-2.41875 5.214375 -2.2125 4.61625 -2 4 C-1.34 4 -0.68 4 0 4 C0 2.68 0 1.36 0 0 Z M-1 5 C0 7 0 7 0 7 Z " fill="#000000" transform="translate(87,116)"/>
<path d="M0 0 C0.66 2.31 1.32 4.62 2 7 C1.4225 6.505 0.845 6.01 0.25 5.5 C-2.10400629 3.63019987 -2.10400629 3.63019987 -6 4 C-5.67 3.01 -5.34 2.02 -5 1 C-3 0 -3 0 0 0 Z " fill="#000000" transform="translate(72,233)"/>
</svg>
