<?xml version="1.0" encoding="UTF-8"?>
<svg version="1.1" xmlns="http://www.w3.org/2000/svg" width="247" height="247">
<path d="M0 0 C1.84851563 0.33837891 1.84851563 0.33837891 3.734375 0.68359375 C4.97703125 0.89113281 6.2196875 1.09867188 7.5 1.3125 C8.48484375 1.57933594 9.4696875 1.84617187 10.484375 2.12109375 C10.979375 3.11109375 10.979375 3.11109375 11.484375 4.12109375 C11.154375 4.78109375 10.824375 5.44109375 10.484375 6.12109375 C13.63062493 6.38328124 15.10274517 6.36863742 17.796875 4.62109375 C18.35375 4.12609375 18.910625 3.63109375 19.484375 3.12109375 C20.474375 5.10109375 20.474375 5.10109375 21.484375 7.12109375 C23.959375 6.62609375 23.959375 6.62609375 26.484375 6.12109375 C26.484375 7.11109375 26.484375 8.10109375 26.484375 9.12109375 C27 9.57484375 27.515625 10.02859375 28.046875 10.49609375 C28.52125 11.03234375 28.995625 11.56859375 29.484375 12.12109375 C29.171875 14.80859375 29.171875 14.80859375 28.484375 17.12109375 C30.15058925 15.95657365 30.15058925 15.95657365 31.484375 14.12109375 C31.25393636 11.46643326 31.25393636 11.46643326 30.484375 9.12109375 C31.144375 9.12109375 31.804375 9.12109375 32.484375 9.12109375 C32.484375 9.78109375 32.484375 10.44109375 32.484375 11.12109375 C33.474375 11.45109375 34.464375 11.78109375 35.484375 12.12109375 C34.824375 12.45109375 34.164375 12.78109375 33.484375 13.12109375 C34.474375 14.11109375 35.464375 15.10109375 36.484375 16.12109375 C35.824375 16.12109375 35.164375 16.12109375 34.484375 16.12109375 C34.979375 17.26578125 34.979375 17.26578125 35.484375 18.43359375 C36.484375 21.12109375 36.484375 21.12109375 36.484375 24.12109375 C37.92187691 25.80908202 37.92187691 25.80908202 39.484375 27.12109375 C38.494375 28.11109375 37.504375 29.10109375 36.484375 30.12109375 C37.474375 29.79109375 38.464375 29.46109375 39.484375 29.12109375 C41.67535152 32.45518845 42.91891663 35.16288516 43.484375 39.12109375 C42.164375 39.12109375 40.844375 39.12109375 39.484375 39.12109375 C39.979375 40.72984375 39.979375 40.72984375 40.484375 42.37109375 C41.484375 46.12109375 41.484375 46.12109375 41.484375 50.12109375 C42.144375 50.12109375 42.804375 50.12109375 43.484375 50.12109375 C43.62875 50.71921875 43.773125 51.31734375 43.921875 51.93359375 C44.3716189 53.68259779 44.91329841 55.40786398 45.484375 57.12109375 C45.030625 57.49234375 44.576875 57.86359375 44.109375 58.24609375 C42.29475365 60.09049793 42.29475365 60.09049793 41.609375 62.87109375 C40.19306824 66.96264661 38.09889519 69.68093561 35.484375 73.12109375 C34.164375 71.47109375 32.844375 69.82109375 31.484375 68.12109375 C32.144375 68.12109375 32.804375 68.12109375 33.484375 68.12109375 C33.484375 67.46109375 33.484375 66.80109375 33.484375 66.12109375 C35.984375 64.49609375 35.984375 64.49609375 38.484375 63.12109375 C37.25628409 61.47553676 37.25628409 61.47553676 35.484375 60.12109375 C33.50900755 60.46896083 33.50900755 60.46896083 31.484375 61.12109375 C29.234375 60.68359375 29.234375 60.68359375 27.484375 60.12109375 C28.144375 58.80109375 28.804375 57.48109375 29.484375 56.12109375 C30.144375 56.12109375 30.804375 56.12109375 31.484375 56.12109375 C31.484375 54.80109375 31.484375 53.48109375 31.484375 52.12109375 C30.824375 52.12109375 30.164375 52.12109375 29.484375 52.12109375 C29.484375 51.13109375 29.484375 50.14109375 29.484375 49.12109375 C28.494375 49.12109375 27.504375 49.12109375 26.484375 49.12109375 C27.474375 51.59609375 27.474375 51.59609375 28.484375 54.12109375 C26.046875 53.30859375 26.046875 53.30859375 23.484375 52.12109375 C23.154375 51.13109375 22.824375 50.14109375 22.484375 49.12109375 C21.494375 49.78109375 20.504375 50.44109375 19.484375 51.12109375 C19.484375 50.46109375 19.484375 49.80109375 19.484375 49.12109375 C18.824375 49.12109375 18.164375 49.12109375 17.484375 49.12109375 C17.484375 46.12109375 17.484375 46.12109375 19.484375 44.12109375 C18.494375 41.64609375 18.494375 41.64609375 17.484375 39.12109375 C16.824375 39.12109375 16.164375 39.12109375 15.484375 39.12109375 C15.979375 41.10109375 15.979375 41.10109375 16.484375 43.12109375 C14.834375 43.78109375 13.184375 44.44109375 11.484375 45.12109375 C11.154375 44.13109375 10.824375 43.14109375 10.484375 42.12109375 C11.474375 41.13109375 12.464375 40.14109375 13.484375 39.12109375 C12.164375 38.46109375 10.844375 37.80109375 9.484375 37.12109375 C9.814375 36.13109375 10.144375 35.14109375 10.484375 34.12109375 C11.144375 34.12109375 11.804375 34.12109375 12.484375 34.12109375 C12.484375 33.46109375 12.484375 32.80109375 12.484375 32.12109375 C10.999375 32.61609375 10.999375 32.61609375 9.484375 33.12109375 C9.484375 32.46109375 9.484375 31.80109375 9.484375 31.12109375 C10.474375 31.12109375 11.464375 31.12109375 12.484375 31.12109375 C12.484375 30.46109375 12.484375 29.80109375 12.484375 29.12109375 C11.948125 29.26546875 11.411875 29.40984375 10.859375 29.55859375 C9.06231139 29.98421408 7.24452128 30.32351885 5.421875 30.62109375 C2.43594136 31.05248519 2.43594136 31.05248519 -0.515625 32.12109375 C-0.433125 32.86359375 -0.350625 33.60609375 -0.265625 34.37109375 C-0.59124718 37.95293768 -1.91328672 38.74837355 -4.515625 41.12109375 C-5.75074579 43.25418567 -5.75074579 43.25418567 -6.515625 45.12109375 C-7.175625 45.12109375 -7.835625 45.12109375 -8.515625 45.12109375 C-7.525625 47.10109375 -7.525625 47.10109375 -6.515625 49.12109375 C-7.505625 49.12109375 -8.495625 49.12109375 -9.515625 49.12109375 C-9.20625 50.88453125 -9.20625 50.88453125 -8.890625 52.68359375 C-8.45160475 55.99673327 -8.61041976 57.45008732 -9.578125 60.80859375 C-10.6607054 64.63371117 -10.1174428 65.63478443 -8.515625 69.12109375 C-8.828125 71.12109375 -8.828125 71.12109375 -9.515625 73.12109375 C-10.29924151 76.2555598 -10.55631209 79.09431377 -10.515625 82.30859375 C-10.515625 86.12109375 -10.515625 86.12109375 -11.515625 88.12109375 C-11.185625 89.11109375 -10.855625 90.10109375 -10.515625 91.12109375 C-10.185625 92.11109375 -9.855625 93.10109375 -9.515625 94.12109375 C-9.845625 94.78109375 -10.175625 95.44109375 -10.515625 96.12109375 C-9.855625 96.45109375 -9.195625 96.78109375 -8.515625 97.12109375 C-8.515625 100.45442708 -8.515625 103.78776042 -8.515625 107.12109375 C-9.505625 107.12109375 -10.495625 107.12109375 -11.515625 107.12109375 C-10.79294265 110.41960765 -10.79294265 110.41960765 -7.453125 111.80859375 C-6.48375 112.24171875 -5.514375 112.67484375 -4.515625 113.12109375 C-4.515625 112.46109375 -4.515625 111.80109375 -4.515625 111.12109375 C-1.875625 111.12109375 0.764375 111.12109375 3.484375 111.12109375 C3.7525 111.92546875 4.020625 112.72984375 4.296875 113.55859375 C4.8846875 114.82703125 4.8846875 114.82703125 5.484375 116.12109375 C6.969375 116.61609375 6.969375 116.61609375 8.484375 117.12109375 C8.484375 116.46109375 8.484375 115.80109375 8.484375 115.12109375 C7.824375 114.79109375 7.164375 114.46109375 6.484375 114.12109375 C6.95703125 112.2109375 6.95703125 112.2109375 8.484375 110.12109375 C11.40114093 109.40611215 13.96234603 108.96952677 16.921875 108.68359375 C17.69853516 108.58111328 18.47519531 108.47863281 19.27539062 108.37304688 C21.54296875 108.125 21.54296875 108.125 25.484375 108.12109375 C27.23071289 109.62084961 27.23071289 109.62084961 28.484375 111.12109375 C30.155 110.13109375 30.155 110.13109375 31.859375 109.12109375 C35.234375 107.12109375 35.234375 107.12109375 37.484375 107.12109375 C37.814375 107.78109375 38.144375 108.44109375 38.484375 109.12109375 C39.144375 109.45109375 39.804375 109.78109375 40.484375 110.12109375 C39.989375 112.10109375 39.989375 112.10109375 39.484375 114.12109375 C40.28875 114.24484375 41.093125 114.36859375 41.921875 114.49609375 C42.7675 114.70234375 43.613125 114.90859375 44.484375 115.12109375 C44.814375 115.78109375 45.144375 116.44109375 45.484375 117.12109375 C44.824375 118.11109375 44.164375 119.10109375 43.484375 120.12109375 C43.484375 121.11109375 43.484375 122.10109375 43.484375 123.12109375 C42.494375 123.61609375 42.494375 123.61609375 41.484375 124.12109375 C40.989375 125.60609375 40.989375 125.60609375 40.484375 127.12109375 C40.154375 126.46109375 39.824375 125.80109375 39.484375 125.12109375 C37.999375 125.61609375 37.999375 125.61609375 36.484375 126.12109375 C36.814375 127.44109375 37.144375 128.76109375 37.484375 130.12109375 C34.1697083 132.15016542 32.0527771 132.24851508 28.234375 131.74609375 C27.34234375 131.63523438 26.4503125 131.524375 25.53125 131.41015625 C24.51804688 131.26707031 24.51804688 131.26707031 23.484375 131.12109375 C23.484375 131.78109375 23.484375 132.44109375 23.484375 133.12109375 C22.824375 133.12109375 22.164375 133.12109375 21.484375 133.12109375 C21.154375 134.11109375 20.824375 135.10109375 20.484375 136.12109375 C18.834375 135.79109375 17.184375 135.46109375 15.484375 135.12109375 C15.484375 134.46109375 15.484375 133.80109375 15.484375 133.12109375 C14.164375 132.79109375 12.844375 132.46109375 11.484375 132.12109375 C11.154375 133.11109375 10.824375 134.10109375 10.484375 135.12109375 C11.474375 135.45109375 12.464375 135.78109375 13.484375 136.12109375 C13.154375 137.11109375 12.824375 138.10109375 12.484375 139.12109375 C6.859375 139.37109375 6.859375 139.37109375 3.484375 137.12109375 C3.484375 138.44109375 3.484375 139.76109375 3.484375 141.12109375 C0.43173836 142.10229839 -1.46298836 142.10229839 -4.515625 141.12109375 C-7.26025632 146.16362748 -7.26025632 146.16362748 -6.703125 151.74609375 C-6.31125 152.85984375 -5.919375 153.97359375 -5.515625 155.12109375 C-5.078125 157.87109375 -5.078125 157.87109375 -5.515625 160.12109375 C-7.16383744 161.15122652 -8.83066202 162.15224003 -10.515625 163.12109375 C-10.515625 164.44109375 -10.515625 165.76109375 -10.515625 167.12109375 C-9.195625 166.79109375 -7.875625 166.46109375 -6.515625 166.12109375 C-6.85335937 166.68441406 -7.19109375 167.24773437 -7.5390625 167.828125 C-8.68660496 170.52255469 -8.55709622 171.9349423 -8.140625 174.80859375 C-7.70764229 178.1928264 -7.47885922 181.39852239 -7.578125 184.80859375 C-7.62528151 187.8056518 -7.37782095 189.59479516 -6.515625 192.55859375 C-4.73569788 198.89958413 -4.5992469 205.12631655 -7.515625 211.12109375 C-9.34911849 215.81065085 -9.34911849 215.81065085 -8.640625 220.55859375 C-8.269375 221.07421875 -7.898125 221.58984375 -7.515625 222.12109375 C-11.390625 223.12109375 -11.390625 223.12109375 -12.515625 223.12109375 C-13.175625 224.77109375 -13.835625 226.42109375 -14.515625 228.12109375 C-14.845625 227.13109375 -15.175625 226.14109375 -15.515625 225.12109375 C-16.505625 225.12109375 -17.495625 225.12109375 -18.515625 225.12109375 C-19.010625 221.65609375 -19.010625 221.65609375 -19.515625 218.12109375 C-20.505625 218.12109375 -21.495625 218.12109375 -22.515625 218.12109375 C-22.515625 217.13109375 -22.515625 216.14109375 -22.515625 215.12109375 C-23.505625 214.46109375 -24.495625 213.80109375 -25.515625 213.12109375 C-26.865625 206.82109375 -26.865625 206.82109375 -25.515625 204.12109375 C-27.165625 204.45109375 -28.815625 204.78109375 -30.515625 205.12109375 C-30.185625 204.13109375 -29.855625 203.14109375 -29.515625 202.12109375 C-28.855625 202.12109375 -28.195625 202.12109375 -27.515625 202.12109375 C-27.515625 201.46109375 -27.515625 200.80109375 -27.515625 200.12109375 C-28.505625 200.12109375 -29.495625 200.12109375 -30.515625 200.12109375 C-29.515625 197.12109375 -29.515625 197.12109375 -28.515625 196.12109375 C-29.505625 195.79109375 -30.495625 195.46109375 -31.515625 195.12109375 C-30.855625 195.12109375 -30.195625 195.12109375 -29.515625 195.12109375 C-31.18517319 191.89704397 -31.18517319 191.89704397 -34.140625 191.43359375 C-34.924375 191.33046875 -35.708125 191.22734375 -36.515625 191.12109375 C-36.185625 190.13109375 -35.855625 189.14109375 -35.515625 188.12109375 C-36.505625 188.45109375 -37.495625 188.78109375 -38.515625 189.12109375 C-36.87926136 181.5686462 -36.87926136 181.5686462 -34.890625 179.12109375 C-32.69378652 175.92569233 -33.32514252 172.9307433 -33.515625 169.12109375 C-32.525625 169.12109375 -31.535625 169.12109375 -30.515625 169.12109375 C-30.515625 168.46109375 -30.515625 167.80109375 -30.515625 167.12109375 C-29.855625 167.12109375 -29.195625 167.12109375 -28.515625 167.12109375 C-28.845625 166.13109375 -29.175625 165.14109375 -29.515625 164.12109375 C-30.835625 164.12109375 -32.155625 164.12109375 -33.515625 164.12109375 C-36.47752368 163.59840575 -37.32598736 163.31073139 -39.515625 161.12109375 C-41.49918983 160.40701041 -43.49877937 159.73491633 -45.515625 159.12109375 C-42.515625 157.12109375 -42.515625 157.12109375 -39.953125 157.24609375 C-37.515625 158.12109375 -37.515625 158.12109375 -36.203125 160.18359375 C-35.8628125 161.14265625 -35.8628125 161.14265625 -35.515625 162.12109375 C-34.855625 162.12109375 -34.195625 162.12109375 -33.515625 162.12109375 C-33.97384968 158.65167829 -34.40694183 155.44714326 -35.515625 152.12109375 C-34.195625 152.12109375 -32.875625 152.12109375 -31.515625 152.12109375 C-30.525625 153.11109375 -30.525625 153.11109375 -29.515625 154.12109375 C-29.185625 152.47109375 -28.855625 150.82109375 -28.515625 149.12109375 C-30.165625 149.12109375 -31.815625 149.12109375 -33.515625 149.12109375 C-34.010625 146.64609375 -34.010625 146.64609375 -34.515625 144.12109375 C-35.175625 144.12109375 -35.835625 144.12109375 -36.515625 144.12109375 C-36.185625 145.44109375 -35.855625 146.76109375 -35.515625 148.12109375 C-36.175625 148.12109375 -36.835625 148.12109375 -37.515625 148.12109375 C-37.515625 149.11109375 -37.515625 150.10109375 -37.515625 151.12109375 C-38.835625 151.45109375 -40.155625 151.78109375 -41.515625 152.12109375 C-41.515625 151.46109375 -41.515625 150.80109375 -41.515625 150.12109375 C-42.835625 150.45109375 -44.155625 150.78109375 -45.515625 151.12109375 C-45.845625 150.46109375 -46.175625 149.80109375 -46.515625 149.12109375 C-47.505625 148.79109375 -48.495625 148.46109375 -49.515625 148.12109375 C-49.515625 146.80109375 -49.515625 145.48109375 -49.515625 144.12109375 C-50.505625 144.45109375 -51.495625 144.78109375 -52.515625 145.12109375 C-52.515625 147.10109375 -52.515625 149.08109375 -52.515625 151.12109375 C-53.175625 151.12109375 -53.835625 151.12109375 -54.515625 151.12109375 C-54.515625 150.46109375 -54.515625 149.80109375 -54.515625 149.12109375 C-57.485625 150.11109375 -57.485625 150.11109375 -60.515625 151.12109375 C-60.515625 150.13109375 -60.515625 149.14109375 -60.515625 148.12109375 C-61.175625 148.12109375 -61.835625 148.12109375 -62.515625 148.12109375 C-62.515625 147.46109375 -62.515625 146.80109375 -62.515625 146.12109375 C-67.3053571 145.88681062 -67.3053571 145.88681062 -71.515625 148.12109375 C-72.505625 147.46109375 -73.495625 146.80109375 -74.515625 146.12109375 C-74.515625 145.13109375 -74.515625 144.14109375 -74.515625 143.12109375 C-75.175625 143.12109375 -75.835625 143.12109375 -76.515625 143.12109375 C-78.265625 140.93359375 -78.265625 140.93359375 -79.515625 138.12109375 C-78.703125 135.30859375 -78.703125 135.30859375 -77.515625 133.12109375 C-78.134375 133.05921875 -78.753125 132.99734375 -79.390625 132.93359375 C-81.515625 132.12109375 -81.515625 132.12109375 -82.765625 129.55859375 C-83.013125 128.75421875 -83.260625 127.94984375 -83.515625 127.12109375 C-82.082185 126.58918834 -80.64367133 126.07094117 -79.203125 125.55859375 C-78.00236328 125.12353516 -78.00236328 125.12353516 -76.77734375 124.6796875 C-74.515625 124.12109375 -74.515625 124.12109375 -71.515625 125.12109375 C-70.525625 125.12109375 -69.535625 125.12109375 -68.515625 125.12109375 C-68.020625 124.13109375 -68.020625 124.13109375 -67.515625 123.12109375 C-66.525625 123.12109375 -65.535625 123.12109375 -64.515625 123.12109375 C-63.401875 122.62609375 -63.401875 122.62609375 -62.265625 122.12109375 C-58.90335575 120.89845039 -56.06582455 120.98187024 -52.515625 121.12109375 C-52.515625 121.78109375 -52.515625 122.44109375 -52.515625 123.12109375 C-51.195625 123.12109375 -49.875625 123.12109375 -48.515625 123.12109375 C-48.515625 121.80109375 -48.515625 120.48109375 -48.515625 119.12109375 C-46.040625 118.62609375 -46.040625 118.62609375 -43.515625 118.12109375 C-43.515625 117.13109375 -43.515625 116.14109375 -43.515625 115.12109375 C-40.84895833 115.78776042 -38.18229167 116.45442708 -35.515625 117.12109375 C-35.515625 116.46109375 -35.515625 115.80109375 -35.515625 115.12109375 C-36.175625 115.12109375 -36.835625 115.12109375 -37.515625 115.12109375 C-37.515625 114.46109375 -37.515625 113.80109375 -37.515625 113.12109375 C-38.505625 112.79109375 -39.495625 112.46109375 -40.515625 112.12109375 C-40.020625 110.14109375 -40.020625 110.14109375 -39.515625 108.12109375 C-38.855625 108.12109375 -38.195625 108.12109375 -37.515625 108.12109375 C-36.855625 106.47109375 -36.195625 104.82109375 -35.515625 103.12109375 C-36.175625 103.12109375 -36.835625 103.12109375 -37.515625 103.12109375 C-37.515625 102.46109375 -37.515625 101.80109375 -37.515625 101.12109375 C-36.855625 101.12109375 -36.195625 101.12109375 -35.515625 101.12109375 C-37.91071838 98.22177018 -39.82807743 97.61941099 -43.515625 97.12109375 C-43.845625 99.43109375 -44.175625 101.74109375 -44.515625 104.12109375 C-43.525625 104.61609375 -43.525625 104.61609375 -42.515625 105.12109375 C-43.175625 105.12109375 -43.835625 105.12109375 -44.515625 105.12109375 C-44.515625 105.78109375 -44.515625 106.44109375 -44.515625 107.12109375 C-43.525625 107.61609375 -43.525625 107.61609375 -42.515625 108.12109375 C-44.495625 108.61609375 -44.495625 108.61609375 -46.515625 109.12109375 C-46.845625 108.46109375 -47.175625 107.80109375 -47.515625 107.12109375 C-49.990625 107.61609375 -49.990625 107.61609375 -52.515625 108.12109375 C-52.845625 107.13109375 -53.175625 106.14109375 -53.515625 105.12109375 C-49.765625 102.12109375 -49.765625 102.12109375 -47.515625 102.12109375 C-47.721875 101.52296875 -47.928125 100.92484375 -48.140625 100.30859375 C-48.515625 98.12109375 -48.515625 98.12109375 -46.515625 95.12109375 C-47.175625 95.12109375 -47.835625 95.12109375 -48.515625 95.12109375 C-48.845625 94.13109375 -49.175625 93.14109375 -49.515625 92.12109375 C-48.566875 92.30671875 -47.618125 92.49234375 -46.640625 92.68359375 C-43.61693707 93.40796007 -43.61693707 93.40796007 -41.515625 92.12109375 C-40.525625 92.61609375 -40.525625 92.61609375 -39.515625 93.12109375 C-39.226875 92.31671875 -38.938125 91.51234375 -38.640625 90.68359375 C-37.515625 88.12109375 -37.515625 88.12109375 -35.515625 87.12109375 C-38.485625 86.13109375 -38.485625 86.13109375 -41.515625 85.12109375 C-42.010625 86.60609375 -42.010625 86.60609375 -42.515625 88.12109375 C-43.175625 88.12109375 -43.835625 88.12109375 -44.515625 88.12109375 C-45.265625 85.87109375 -45.265625 85.87109375 -45.515625 83.12109375 C-43.35205072 80.00554679 -41.97662741 79.22747892 -38.265625 78.37109375 C-37.358125 78.28859375 -36.450625 78.20609375 -35.515625 78.12109375 C-36.505625 77.62609375 -36.505625 77.62609375 -37.515625 77.12109375 C-37.515625 76.46109375 -37.515625 75.80109375 -37.515625 75.12109375 C-38.505625 74.79109375 -39.495625 74.46109375 -40.515625 74.12109375 C-39.525625 74.12109375 -38.535625 74.12109375 -37.515625 74.12109375 C-37.91316321 72.65743033 -38.33443884 71.20020025 -38.765625 69.74609375 C-38.99765625 68.93398437 -39.2296875 68.121875 -39.46875 67.28515625 C-40.7371142 64.66323921 -41.83985808 64.12727057 -44.515625 63.12109375 C-44.515625 62.46109375 -44.515625 61.80109375 -44.515625 61.12109375 C-43.515625 60.12109375 -42.515625 59.12109375 -41.515625 58.12109375 C-41.165 57.41984375 -40.814375 56.71859375 -40.453125 55.99609375 C-39.515625 54.12109375 -39.515625 54.12109375 -37.515625 53.12109375 C-38.010625 52.52296875 -38.505625 51.92484375 -39.015625 51.30859375 C-40.515625 49.12109375 -40.515625 49.12109375 -40.515625 46.12109375 C-41.505625 46.61609375 -41.505625 46.61609375 -42.515625 47.12109375 C-43.16775792 49.1457263 -43.16775792 49.1457263 -43.515625 51.12109375 C-45.990625 51.61609375 -45.990625 51.61609375 -48.515625 52.12109375 C-48.54251716 50.64202483 -48.56197121 49.16281892 -48.578125 47.68359375 C-48.58972656 46.85988281 -48.60132813 46.03617188 -48.61328125 45.1875 C-48.515625 43.12109375 -48.515625 43.12109375 -47.515625 42.12109375 C-48.505625 41.46109375 -49.495625 40.80109375 -50.515625 40.12109375 C-49.855625 37.81109375 -49.195625 35.50109375 -48.515625 33.12109375 C-48.185625 33.78109375 -47.855625 34.44109375 -47.515625 35.12109375 C-46.525625 35.12109375 -45.535625 35.12109375 -44.515625 35.12109375 C-44.185625 33.80109375 -43.855625 32.48109375 -43.515625 31.12109375 C-41.040625 32.11109375 -41.040625 32.11109375 -38.515625 33.12109375 C-39.010625 31.14109375 -39.010625 31.14109375 -39.515625 29.12109375 C-41.825625 29.12109375 -44.135625 29.12109375 -46.515625 29.12109375 C-46.185625 28.46109375 -45.855625 27.80109375 -45.515625 27.12109375 C-43.19405903 26.71380147 -40.8587463 26.37670698 -38.515625 26.12109375 C-39.010625 25.54359375 -39.505625 24.96609375 -40.015625 24.37109375 C-41.515625 22.12109375 -41.515625 22.12109375 -41.515625 18.12109375 C-40.195625 18.12109375 -38.875625 18.12109375 -37.515625 18.12109375 C-37.515625 16.47109375 -37.515625 14.82109375 -37.515625 13.12109375 C-36.525625 13.12109375 -35.535625 13.12109375 -34.515625 13.12109375 C-33.855625 11.80109375 -33.195625 10.48109375 -32.515625 9.12109375 C-31.855625 9.12109375 -31.195625 9.12109375 -30.515625 9.12109375 C-30.020625 9.61609375 -30.020625 9.61609375 -29.515625 10.12109375 C-29.185625 8.80109375 -28.855625 7.48109375 -28.515625 6.12109375 C-27.195625 6.45109375 -25.875625 6.78109375 -24.515625 7.12109375 C-24.515625 6.13109375 -24.515625 5.14109375 -24.515625 4.12109375 C-23.9175 4.34796875 -23.319375 4.57484375 -22.703125 4.80859375 C-21.98125 4.91171875 -21.259375 5.01484375 -20.515625 5.12109375 C-18.74371591 3.76665074 -18.74371591 3.76665074 -17.515625 2.12109375 C-17.515625 2.78109375 -17.515625 3.44109375 -17.515625 4.12109375 C-15.535625 3.46109375 -13.555625 2.80109375 -11.515625 2.12109375 C-11.515625 2.78109375 -11.515625 3.44109375 -11.515625 4.12109375 C-10.525625 3.79109375 -9.535625 3.46109375 -8.515625 3.12109375 C-8.515625 3.78109375 -8.515625 4.44109375 -8.515625 5.12109375 C-7.84015625 4.28449219 -7.1646875 3.44789062 -6.46875 2.5859375 C-3.515625 0.12109375 -3.515625 0.12109375 0 0 Z M-6.515625 11.12109375 C-6.515625 12.44109375 -6.515625 13.76109375 -6.515625 15.12109375 C-5.525625 14.13109375 -4.535625 13.14109375 -3.515625 12.12109375 C-4.505625 11.79109375 -5.495625 11.46109375 -6.515625 11.12109375 Z M3.484375 12.12109375 C3.484375 12.78109375 3.484375 13.44109375 3.484375 14.12109375 C4.144375 14.12109375 4.804375 14.12109375 5.484375 14.12109375 C5.484375 13.46109375 5.484375 12.80109375 5.484375 12.12109375 C4.824375 12.12109375 4.164375 12.12109375 3.484375 12.12109375 Z M-33.515625 15.12109375 C-34.10141272 16.86343671 -34.65850669 18.61544653 -35.203125 20.37109375 C-35.51636719 21.345625 -35.82960937 22.32015625 -36.15234375 23.32421875 C-36.81685779 26.17315539 -36.81685779 26.17315539 -35.09765625 28.48046875 C-34.57558594 29.021875 -34.05351563 29.56328125 -33.515625 30.12109375 C-33.845625 30.45109375 -34.175625 30.78109375 -34.515625 31.12109375 C-34.55643283 33.12067739 -34.55816856 35.12154629 -34.515625 37.12109375 C-33.195625 37.78109375 -31.875625 38.44109375 -30.515625 39.12109375 C-30.721875 38.23421875 -30.928125 37.34734375 -31.140625 36.43359375 C-31.55499 32.77336954 -31.06738468 31.38795623 -29.515625 28.12109375 C-28.36791219 24.81298036 -27.30318513 21.5338543 -26.515625 18.12109375 C-27.299375 17.81171875 -28.083125 17.50234375 -28.890625 17.18359375 C-31.515625 16.12109375 -31.515625 16.12109375 -33.515625 15.12109375 Z M-24.515625 15.12109375 C-24.185625 16.44109375 -23.855625 17.76109375 -23.515625 19.12109375 C-24.175625 19.12109375 -24.835625 19.12109375 -25.515625 19.12109375 C-25.185625 20.77109375 -24.855625 22.42109375 -24.515625 24.12109375 C-22.865625 23.46109375 -21.215625 22.80109375 -19.515625 22.12109375 C-19.515625 21.13109375 -19.515625 20.14109375 -19.515625 19.12109375 C-20.175625 18.46109375 -20.835625 17.80109375 -21.515625 17.12109375 C-21.515625 16.46109375 -21.515625 15.80109375 -21.515625 15.12109375 C-22.505625 15.12109375 -23.495625 15.12109375 -24.515625 15.12109375 Z M4.484375 16.12109375 C3.164375 17.77109375 1.844375 19.42109375 0.484375 21.12109375 C0.814375 21.78109375 1.144375 22.44109375 1.484375 23.12109375 C3.134375 21.14109375 4.784375 19.16109375 6.484375 17.12109375 C5.824375 16.79109375 5.164375 16.46109375 4.484375 16.12109375 Z M9.484375 21.12109375 C9.154375 22.11109375 8.824375 23.10109375 8.484375 24.12109375 C9.46287695 25.14213926 10.46417927 26.14170585 11.484375 27.12109375 C11.814375 27.12109375 12.144375 27.12109375 12.484375 27.12109375 C12.484375 25.47109375 12.484375 23.82109375 12.484375 22.12109375 C11.494375 21.79109375 10.504375 21.46109375 9.484375 21.12109375 Z M4.484375 22.12109375 C4.154375 22.78109375 3.824375 23.44109375 3.484375 24.12109375 C4.144375 24.78109375 4.804375 25.44109375 5.484375 26.12109375 C5.484375 25.46109375 5.484375 24.80109375 5.484375 24.12109375 C6.144375 23.79109375 6.804375 23.46109375 7.484375 23.12109375 C6.494375 22.79109375 5.504375 22.46109375 4.484375 22.12109375 Z M-10.515625 25.12109375 C-10.515625 25.78109375 -10.515625 26.44109375 -10.515625 27.12109375 C-8.040625 28.11109375 -8.040625 28.11109375 -5.515625 29.12109375 C-5.515625 27.47109375 -5.515625 25.82109375 -5.515625 24.12109375 C-8.4410894 23.89748695 -8.4410894 23.89748695 -10.515625 25.12109375 Z M-28.515625 29.12109375 C-29.015625 32.12109375 -29.015625 32.12109375 -28.515625 35.12109375 C-27.030625 36.11109375 -27.030625 36.11109375 -25.515625 37.12109375 C-24.525625 36.13109375 -23.535625 35.14109375 -22.515625 34.12109375 C-23.175625 33.79109375 -23.835625 33.46109375 -24.515625 33.12109375 C-24.515625 31.14109375 -24.515625 29.16109375 -24.515625 27.12109375 C-25.97787516 27.02864372 -25.97787516 27.02864372 -28.515625 29.12109375 Z M-20.515625 29.12109375 C-20.185625 30.77109375 -19.855625 32.42109375 -19.515625 34.12109375 C-17.865625 34.12109375 -16.215625 34.12109375 -14.515625 34.12109375 C-14.185625 32.47109375 -13.855625 30.82109375 -13.515625 29.12109375 C-17.09890253 28.11892311 -17.09890253 28.11892311 -20.515625 29.12109375 Z M17.484375 32.12109375 C17.484375 33.11109375 17.484375 34.10109375 17.484375 35.12109375 C18.804375 34.46109375 20.124375 33.80109375 21.484375 33.12109375 C20.164375 32.79109375 18.844375 32.46109375 17.484375 32.12109375 Z M-43.515625 35.12109375 C-43.185625 35.78109375 -42.855625 36.44109375 -42.515625 37.12109375 C-41.525625 37.12109375 -40.535625 37.12109375 -39.515625 37.12109375 C-39.515625 36.46109375 -39.515625 35.80109375 -39.515625 35.12109375 C-40.835625 35.12109375 -42.155625 35.12109375 -43.515625 35.12109375 Z M12.484375 35.12109375 C13.144375 35.78109375 13.804375 36.44109375 14.484375 37.12109375 C14.484375 36.46109375 14.484375 35.80109375 14.484375 35.12109375 C13.824375 35.12109375 13.164375 35.12109375 12.484375 35.12109375 Z M37.484375 35.12109375 C37.154375 36.11109375 36.824375 37.10109375 36.484375 38.12109375 C37.144375 38.12109375 37.804375 38.12109375 38.484375 38.12109375 C38.154375 37.13109375 37.824375 36.14109375 37.484375 35.12109375 Z M15.484375 36.12109375 C16.484375 38.12109375 16.484375 38.12109375 16.484375 38.12109375 Z M-22.515625 36.12109375 C-23.505625 36.61609375 -23.505625 36.61609375 -24.515625 37.12109375 C-24.515625 37.78109375 -24.515625 38.44109375 -24.515625 39.12109375 C-23.525625 38.79109375 -22.535625 38.46109375 -21.515625 38.12109375 C-21.845625 37.46109375 -22.175625 36.80109375 -22.515625 36.12109375 Z M20.484375 37.12109375 C21.484375 39.12109375 21.484375 39.12109375 21.484375 39.12109375 Z M25.484375 43.12109375 C25.484375 44.11109375 25.484375 45.10109375 25.484375 46.12109375 C26.144375 45.79109375 26.804375 45.46109375 27.484375 45.12109375 C26.824375 44.46109375 26.164375 43.80109375 25.484375 43.12109375 Z M-44.515625 44.12109375 C-44.845625 44.78109375 -45.175625 45.44109375 -45.515625 46.12109375 C-44.525625 45.79109375 -43.535625 45.46109375 -42.515625 45.12109375 C-43.175625 44.79109375 -43.835625 44.46109375 -44.515625 44.12109375 Z M-34.515625 46.12109375 C-33.515625 48.12109375 -33.515625 48.12109375 -33.515625 48.12109375 Z M-12.515625 46.12109375 C-11.515625 48.12109375 -11.515625 48.12109375 -11.515625 48.12109375 Z M-32.515625 47.12109375 C-32.515625 48.11109375 -32.515625 49.10109375 -32.515625 50.12109375 C-31.855625 50.12109375 -31.195625 50.12109375 -30.515625 50.12109375 C-30.845625 49.13109375 -31.175625 48.14109375 -31.515625 47.12109375 C-31.845625 47.12109375 -32.175625 47.12109375 -32.515625 47.12109375 Z M-26.515625 50.12109375 C-26.845625 50.78109375 -27.175625 51.44109375 -27.515625 52.12109375 C-26.525625 51.79109375 -25.535625 51.46109375 -24.515625 51.12109375 C-25.175625 50.79109375 -25.835625 50.46109375 -26.515625 50.12109375 Z M33.484375 53.12109375 C34.484375 56.12109375 34.484375 56.12109375 34.484375 56.12109375 Z M-24.515625 54.12109375 C-24.845625 55.44109375 -25.175625 56.76109375 -25.515625 58.12109375 C-24.030625 59.11109375 -24.030625 59.11109375 -22.515625 60.12109375 C-21.855625 59.79109375 -21.195625 59.46109375 -20.515625 59.12109375 C-20.515625 58.46109375 -20.515625 57.80109375 -20.515625 57.12109375 C-21.175625 57.12109375 -21.835625 57.12109375 -22.515625 57.12109375 C-22.515625 56.13109375 -22.515625 55.14109375 -22.515625 54.12109375 C-23.175625 54.12109375 -23.835625 54.12109375 -24.515625 54.12109375 Z M-38.203125 56.62109375 C-38.63625 57.11609375 -39.069375 57.61109375 -39.515625 58.12109375 C-37.040625 58.61609375 -37.040625 58.61609375 -34.515625 59.12109375 C-34.185625 57.80109375 -33.855625 56.48109375 -33.515625 55.12109375 C-36.51822017 54.78891183 -36.51822017 54.78891183 -38.203125 56.62109375 Z M35.484375 55.12109375 C35.484375 56.11109375 35.484375 57.10109375 35.484375 58.12109375 C36.474375 57.79109375 37.464375 57.46109375 38.484375 57.12109375 C37.824375 57.12109375 37.164375 57.12109375 36.484375 57.12109375 C36.154375 56.46109375 35.824375 55.80109375 35.484375 55.12109375 Z M42.484375 56.12109375 C43.484375 58.12109375 43.484375 58.12109375 43.484375 58.12109375 Z M-29.515625 89.12109375 C-29.845625 90.11109375 -30.175625 91.10109375 -30.515625 92.12109375 C-29.525625 91.79109375 -28.535625 91.46109375 -27.515625 91.12109375 C-28.175625 90.46109375 -28.835625 89.80109375 -29.515625 89.12109375 Z M-35.515625 94.12109375 C-34.855625 95.44109375 -34.195625 96.76109375 -33.515625 98.12109375 C-32.855625 98.12109375 -32.195625 98.12109375 -31.515625 98.12109375 C-31.515625 96.47109375 -31.515625 94.82109375 -31.515625 93.12109375 C-33.5901606 92.97202255 -33.5901606 92.97202255 -35.515625 94.12109375 Z M-30.515625 103.12109375 C-30.515625 103.78109375 -30.515625 104.44109375 -30.515625 105.12109375 C-29.855625 104.79109375 -29.195625 104.46109375 -28.515625 104.12109375 C-29.175625 103.79109375 -29.835625 103.46109375 -30.515625 103.12109375 Z M-37.515625 110.12109375 C-36.855625 111.44109375 -36.195625 112.76109375 -35.515625 114.12109375 C-35.185625 113.46109375 -34.855625 112.80109375 -34.515625 112.12109375 C-34.845625 111.46109375 -35.175625 110.80109375 -35.515625 110.12109375 C-36.175625 110.12109375 -36.835625 110.12109375 -37.515625 110.12109375 Z M-2.515625 118.12109375 C-1.515625 120.12109375 -1.515625 120.12109375 -1.515625 120.12109375 Z M39.484375 120.12109375 C39.814375 121.11109375 40.144375 122.10109375 40.484375 123.12109375 C40.814375 122.13109375 41.144375 121.14109375 41.484375 120.12109375 C40.824375 120.12109375 40.164375 120.12109375 39.484375 120.12109375 Z M9.484375 136.12109375 C9.814375 136.78109375 10.144375 137.44109375 10.484375 138.12109375 C10.814375 137.46109375 11.144375 136.80109375 11.484375 136.12109375 C10.824375 136.12109375 10.164375 136.12109375 9.484375 136.12109375 Z M-60.515625 137.12109375 C-60.845625 138.11109375 -61.175625 139.10109375 -61.515625 140.12109375 C-60.195625 140.12109375 -58.875625 140.12109375 -57.515625 140.12109375 C-57.515625 139.46109375 -57.515625 138.80109375 -57.515625 138.12109375 C-58.505625 137.79109375 -59.495625 137.46109375 -60.515625 137.12109375 Z M-58.515625 145.12109375 C-57.68229167 147.28776042 -57.68229167 147.28776042 -55.515625 148.12109375 C-55.515625 147.13109375 -55.515625 146.14109375 -55.515625 145.12109375 C-56.505625 145.12109375 -57.495625 145.12109375 -58.515625 145.12109375 Z M-45.515625 146.12109375 C-45.185625 146.78109375 -44.855625 147.44109375 -44.515625 148.12109375 C-40.94027481 149.19719915 -40.94027481 149.19719915 -37.515625 148.12109375 C-37.845625 147.46109375 -38.175625 146.80109375 -38.515625 146.12109375 C-40.825625 146.12109375 -43.135625 146.12109375 -45.515625 146.12109375 Z M-10.515625 156.12109375 C-10.845625 156.78109375 -11.175625 157.44109375 -11.515625 158.12109375 C-10.855625 158.12109375 -10.195625 158.12109375 -9.515625 158.12109375 C-9.845625 157.46109375 -10.175625 156.80109375 -10.515625 156.12109375 Z M-30.515625 159.12109375 C-30.845625 159.78109375 -31.175625 160.44109375 -31.515625 161.12109375 C-30.525625 160.79109375 -29.535625 160.46109375 -28.515625 160.12109375 C-29.175625 159.79109375 -29.835625 159.46109375 -30.515625 159.12109375 Z " fill="#000000" transform="translate(139.515625,10.87890625)"/>
<path d="M0 0 C0.33 0.66 0.66 1.32 1 2 C2.98 1.67 4.96 1.34 7 1 C6.01 1.495 6.01 1.495 5 2 C5 2.66 5 3.32 5 4 C5.66 4 6.32 4 7 4 C6.67 5.65 6.34 7.3 6 9 C5.34 9 4.68 9 4 9 C3.71125 8.360625 3.4225 7.72125 3.125 7.0625 C2.17176549 4.84793921 2.17176549 4.84793921 0 4 C0 2.68 0 1.36 0 0 Z " fill="#000000" transform="translate(87,70)"/>
<path d="M0 0 C0.66 0.66 1.32 1.32 2 2 C1.34 3.98 0.68 5.96 0 8 C-0.99 7.67 -1.98 7.34 -3 7 C-3 5.02 -3 3.04 -3 1 C-2.01 0.67 -1.02 0.34 0 0 Z " fill="#000000" transform="translate(92,85)"/>
<path d="M0 0 C1.2065625 0.0309375 1.2065625 0.0309375 2.4375 0.0625 C2.1075 1.3825 1.7775 2.7025 1.4375 4.0625 C0.1175 4.0625 -1.2025 4.0625 -2.5625 4.0625 C-2.8925 3.0725 -3.2225 2.0825 -3.5625 1.0625 C-2.5625 0.0625 -2.5625 0.0625 0 0 Z " fill="#000000" transform="translate(87.5625,93.9375)"/>
</svg>
