<?xml version="1.0" encoding="UTF-8"?>
<svg version="1.1" xmlns="http://www.w3.org/2000/svg" width="1233" height="848">
<path d="M0 0 C0.6640625 1.6953125 0.6640625 1.6953125 1 4 C-1.58069079 9.87931811 -5.59413674 15.34936656 -10 20 C-10.66 20 -11.32 20 -12 20 C-12 20.99 -12 21.98 -12 23 C-12.66 23 -13.32 23 -14 23 C-14.721875 23.7528125 -15.44375 24.505625 -16.1875 25.28125 C-19.21117898 28.20413968 -22.20529774 29.84003256 -26 31.5 C-26.65427979 31.79624268 -27.30855957 32.09248535 -27.98266602 32.39770508 C-33.28899488 34.76853615 -38.69530803 36.84702023 -44.13671875 38.88671875 C-50.45295451 41.34255394 -56.26102117 44.65968472 -62.1171875 48.046875 C-64 49 -64 49 -66 49 C-66 49.66 -66 50.32 -66 51 C-66.86238281 51.19335938 -66.86238281 51.19335938 -67.7421875 51.390625 C-74.36438644 53.17793129 -80.56609424 56.73489149 -86.640625 59.8515625 C-89 61 -89 61 -91.65234375 62.03125 C-94.12988657 62.92268638 -94.12988657 62.92268638 -96.3125 64.875 C-99.13706437 67.10837648 -101.9156114 68.51380095 -105.14453125 70.05859375 C-107.29726582 71.15082329 -109.10525609 72.51127264 -111 74 C-112.32893387 74.67539396 -113.66282563 75.34107138 -115 76 C-116.27862956 76.7121105 -117.55198762 77.43375647 -118.8203125 78.1640625 C-119.87025391 78.76347656 -119.87025391 78.76347656 -120.94140625 79.375 C-122.40639025 80.21363127 -123.86991804 81.05481112 -125.33203125 81.8984375 C-126.37810547 82.49398437 -126.37810547 82.49398437 -127.4453125 83.1015625 C-128.07969238 83.46588379 -128.71407227 83.83020508 -129.36767578 84.20556641 C-131 85 -131 85 -133 85 C-133 85.66 -133 86.32 -133 87 C-135.5 88.625 -135.5 88.625 -138 90 C-138 86 -138 86 -136.0234375 83.5625 C-128.00480289 75.80405707 -128.00480289 75.80405707 -124.4375 73.5625 C-121.7088869 72.17335949 -121.7088869 72.17335949 -121 69 C-120.34 69 -119.68 69 -119 69 C-118.64035156 68.10667969 -118.64035156 68.10667969 -118.2734375 67.1953125 C-116.7375442 64.54754552 -115.19767363 63.5074939 -112.625 61.875 C-111.85414063 61.37742187 -111.08328125 60.87984375 -110.2890625 60.3671875 C-108 59 -108 59 -105.82421875 57.94140625 C-103.84078398 57.04706655 -103.84078398 57.04706655 -102.1875 55.0625 C-100.12251478 53.11551393 -98.87492201 52.40519824 -96.3125 51.375 C-92.92312274 50.39177364 -92.92312274 50.39177364 -92 48 C-90.67040156 47.6520677 -89.33592866 47.32277471 -88 47 C-85.89584103 46.04459809 -83.81501096 45.03730783 -81.75 44 C-81.14881348 43.69892334 -80.54762695 43.39784668 -79.92822266 43.08764648 C-76.4536091 41.32450946 -73.04305588 39.4753963 -69.6640625 37.53515625 C-68.94895508 37.12458984 -68.23384766 36.71402344 -67.49707031 36.29101562 C-66.10353006 35.48426291 -64.71465576 34.66938537 -63.33105469 33.84570312 C-59.85611595 31.82641078 -58.11670349 31 -54 31 C-54 30.34 -54 29.68 -54 29 C-51 27 -51 27 -48.3125 27.375 C-47.1678125 27.684375 -47.1678125 27.684375 -46 28 C-46.495 26.515 -46.495 26.515 -47 25 C-45.02 24.67 -43.04 24.34 -41 24 C-41 23.34 -41 22.68 -41 22 C-40.01 22 -39.02 22 -38 22 C-38 21.34 -38 20.68 -38 20 C-37.18917969 19.69707031 -36.37835937 19.39414063 -35.54296875 19.08203125 C-20.10698852 14.00821018 -20.10698852 14.00821018 -7 5 C-2.23255814 0 -2.23255814 0 0 0 Z M-35 21 C-34.67 21.66 -34.34 22.32 -34 23 C-33.67 22.34 -33.34 21.68 -33 21 C-33.66 21 -34.32 21 -35 21 Z M-33 25 C-33.33 25.66 -33.66 26.32 -34 27 C-33.34 27 -32.68 27 -32 27 C-32.33 26.34 -32.66 25.68 -33 25 Z M-58 32 C-57.67 32.66 -57.34 33.32 -57 34 C-56.67 33.34 -56.34 32.68 -56 32 C-56.66 32 -57.32 32 -58 32 Z " fill="#000000" transform="translate(720,230)"/>
<path d="M0 0 C1.98 0.99 1.98 0.99 4 2 C3.66069834 10.92363361 2.00254989 18.49617516 -3 26 C-3.66 26 -4.32 26 -5 26 C-5.28875 26.5775 -5.5775 27.155 -5.875 27.75 C-6.431875 28.86375 -6.431875 28.86375 -7 30 C-7.309375 30.70125 -7.61875 31.4025 -7.9375 32.125 C-9 34 -9 34 -12 36 C-12.43699219 36.94746094 -12.43699219 36.94746094 -12.8828125 37.9140625 C-16.85109101 45.32336573 -29.68555922 49.52651556 -37 53 C-37.63615234 53.30502441 -38.27230469 53.61004883 -38.92773438 53.92431641 C-40.94920904 54.8926554 -42.97382919 55.85402969 -45 56.8125 C-45.63518555 57.11478516 -46.27037109 57.41707031 -46.92480469 57.72851562 C-49.91374975 59.12623525 -52.75347712 60.37116899 -56 61 C-56.9075 61.185625 -57.815 61.37125 -58.75 61.5625 C-59.4925 61.706875 -60.235 61.85125 -61 62 C-61 62.66 -61 63.32 -61 64 C-62.58074564 64.81752303 -64.16471223 65.62881997 -65.75 66.4375 C-66.63171875 66.88996094 -67.5134375 67.34242188 -68.421875 67.80859375 C-70.64198566 68.83455398 -72.61444619 69.51508603 -75 70 C-75 70.99 -75 71.98 -75 73 C-75.58007812 73.27585937 -76.16015625 73.55171875 -76.7578125 73.8359375 C-78.93515503 74.96633484 -80.86339861 76.22392355 -82.875 77.625 C-86.90615121 80.34368337 -91.0349594 82.83146163 -95.25 85.25 C-96.13534424 85.76167725 -96.13534424 85.76167725 -97.03857422 86.28369141 C-99.50734557 87.68733833 -101.92901977 88.97210337 -104.57421875 90.01171875 C-108.50563971 91.61340877 -111.85910743 94.09324643 -115.37890625 96.44140625 C-117.68451532 97.81240181 -119.38518738 98.55086748 -122 99 C-122 99.66 -122 100.32 -122 101 C-122.58007812 101.24234375 -123.16015625 101.4846875 -123.7578125 101.734375 C-127.50630363 103.34263852 -131.07910377 104.91662296 -134.4375 107.25 C-137 109 -137 109 -139 109 C-139 109.66 -139 110.32 -139 111 C-139.88558594 111.42152344 -140.77117187 111.84304688 -141.68359375 112.27734375 C-144.71710375 113.85305389 -147.32083677 115.53273696 -150.0625 117.5625 C-150.99835938 118.25472656 -151.93421875 118.94695312 -152.8984375 119.66015625 C-158.29705645 123.7329179 -163.65695767 127.85468258 -169 132 C-167.80503906 132.27263672 -167.80503906 132.27263672 -166.5859375 132.55078125 C-161.02408245 133.87019942 -155.95275035 135.11089563 -151 138 C-151 138.66 -151 139.32 -151 140 C-150.030625 140.04125 -149.06125 140.0825 -148.0625 140.125 C-142.88728016 140.87183051 -138.94369038 143.69437258 -135 147 C-132.75 150.0625 -132.75 150.0625 -131 153 C-130.154375 153.825 -129.30875 154.65 -128.4375 155.5 C-125.78529999 158.22020513 -124.33252363 160.44660364 -123 164 C-123.375 166.75 -123.375 166.75 -124 169 C-123.67 169.66 -123.34 170.32 -123 171 C-122.1933521 188.99272966 -128.99476965 205.46233068 -140.3125 219.1875 C-141.6428125 220.5796875 -141.6428125 220.5796875 -143 222 C-143.66 222 -144.32 222 -145 222 C-145.33 222.99 -145.66 223.98 -146 225 C-146.66 224.67 -147.32 224.34 -148 224 C-148.33 224.99 -148.66 225.98 -149 227 C-158.92136474 238.57492553 -175.04733004 247.61293621 -190.359375 248.87109375 C-215.24908575 250.08612401 -215.24908575 250.08612401 -225 242 C-231.12135473 235.87864527 -233.3769916 227.41061336 -234 219 C-232.515 218.01 -232.515 218.01 -231 217 C-231.66 217 -232.32 217 -233 217 C-233.5625 215.0625 -233.5625 215.0625 -234 213 C-233.67 212.67 -233.34 212.34 -233 212 C-232.92534209 210.54603727 -232.91674092 209.08854273 -232.9375 207.6328125 C-232.94523437 206.74722656 -232.95296875 205.86164063 -232.9609375 204.94921875 C-232.98687113 203.07421725 -233.01291189 201.19921723 -233.0390625 199.32421875 C-233.04679687 198.43605469 -233.05453125 197.54789063 -233.0625 196.6328125 C-233.07410156 195.81699707 -233.08570313 195.00118164 -233.09765625 194.16064453 C-233 192 -233 192 -232 189 C-231.92948886 186.26134713 -231.90642235 183.54972412 -231.9375 180.8125 C-231.94201172 180.06291016 -231.94652344 179.31332031 -231.95117188 178.54101562 C-231.96293646 176.69397617 -231.98087135 174.84697787 -232 173 C-231.34 173 -230.68 173 -230 173 C-230.01160156 171.78183594 -230.02320313 170.56367188 -230.03515625 169.30859375 C-230.04454178 167.68489738 -230.05364116 166.06119933 -230.0625 164.4375 C-230.07087891 163.63763672 -230.07925781 162.83777344 -230.08789062 162.01367188 C-230.09111328 161.22412109 -230.09433594 160.43457031 -230.09765625 159.62109375 C-230.10289307 158.9036499 -230.10812988 158.18620605 -230.11352539 157.44702148 C-230 155 -230 155 -229.52734375 151.70507812 C-228.9769877 147.83831727 -228.68406073 143.99329901 -228.46484375 140.09765625 C-228.42186661 139.3750914 -228.37888947 138.65252655 -228.33460999 137.9080658 C-228.19951788 135.62636091 -228.06844124 133.34444647 -227.9375 131.0625 C-227.84596974 129.50454161 -227.75417538 127.9465987 -227.66210938 126.38867188 C-227.43835422 122.59262009 -227.21819708 118.79637515 -227 115 C-226.34 115 -225.68 115 -225 115 C-225.01160156 114.18015625 -225.02320313 113.3603125 -225.03515625 112.515625 C-225.04417969 111.43796875 -225.05320312 110.3603125 -225.0625 109.25 C-225.07410156 108.18265625 -225.08570313 107.1153125 -225.09765625 106.015625 C-225.01313973 103.40575496 -224.6720366 101.4879653 -224 99 C-223.53688848 95.50561309 -223.1111173 92.0081329 -222.6953125 88.5078125 C-221.9758772 84.87830182 -220.71922934 82.25393407 -219 79 C-218.34942437 76.80449349 -218.34942437 76.80449349 -218 74.6875 C-216.79879665 68.77157351 -215.36941485 63.05412227 -212 58 C-211.29187186 55.67891331 -210.61975848 53.34622853 -210 51 C-209.01 51 -208.02 51 -207 51 C-207.165 52.051875 -207.33 53.10375 -207.5 54.1875 C-207.89569678 57.20468796 -208.09178971 59.97093972 -208 63 C-206.68 60.03 -205.36 57.06 -204 54 C-203.34 54 -202.68 54 -202 54 C-201.34 52.35 -200.68 50.7 -200 49 C-199.01 49.495 -199.01 49.495 -198 50 C-198.45712238 51.54202616 -198.91576347 53.08360214 -199.375 54.625 C-199.63023437 55.48351562 -199.88546875 56.34203125 -200.1484375 57.2265625 C-200.70873382 59.05138079 -201.31470342 60.86289648 -201.96875 62.65625 C-203.40953804 67.32789606 -204.24611765 72.07044314 -205.125 76.875 C-205.30675781 77.84953125 -205.48851562 78.8240625 -205.67578125 79.828125 C-206.12096813 82.21807562 -206.56225969 84.60867627 -207 87 C-207.495 86.01 -207.495 86.01 -208 85 C-208.33 85.99 -208.66 86.98 -209 88 C-208.34 88 -207.68 88 -207 88 C-207.18937134 89.56621094 -207.18937134 89.56621094 -207.38256836 91.1640625 C-208.82565853 103.42215414 -209.75540454 115.68566374 -210.5625 128 C-210.75139967 130.84343709 -210.94146657 133.68678763 -211.13328552 136.5300293 C-211.25093065 138.27746289 -211.36685097 140.02501394 -211.48060608 141.77270508 C-211.81488557 146.78108037 -212.25833433 151.76617758 -212.79917908 156.75663757 C-213.10076143 160.1256019 -213.05667107 163.42994549 -213 166.8125 C-212.88972364 173.46354283 -212.88972364 173.46354283 -213.51953125 176.52734375 C-215.1603244 184.97142558 -213.8173202 197.7740197 -209 205 C-209 205.99 -209 206.98 -209 208 C-208.34 208 -207.68 208 -207 208 C-207 208.66 -207 209.32 -207 210 C-206.34 210 -205.68 210 -205 210 C-204.46375 210.639375 -203.9275 211.27875 -203.375 211.9375 C-197.53970588 217.00499226 -186.28699949 215.33617094 -179 215 C-178.67 214.67 -178.34 214.34 -178 214 C-176.4043624 213.6279752 -174.79789665 213.30180201 -173.1875 213 C-171.45715387 212.67284445 -169.72791847 212.33974434 -168 212 C-166.88044922 211.7834375 -166.88044922 211.7834375 -165.73828125 211.5625 C-165.16464844 211.376875 -164.59101562 211.19125 -164 211 C-163.67 210.34 -163.34 209.68 -163 209 C-162.05125 208.855625 -161.1025 208.71125 -160.125 208.5625 C-156.70513061 207.94692351 -156.15932003 207.53485395 -154 205 C-152.7315625 204.01 -152.7315625 204.01 -151.4375 203 C-148.82693563 201.05606552 -148.82693563 201.05606552 -147 198 C-146.56192572 191.31936725 -147.14561322 186.11106658 -151.375 180.6875 C-161.33275325 169.81795247 -175.1937179 161.12663833 -190.0625 160.0625 C-193.50545838 159.9765195 -196.92791609 159.99874709 -200.37109375 160.05859375 C-203 160 -203 160 -204 159 C-204.33 159.66 -204.66 160.32 -205 161 C-205.66 161 -206.32 161 -207 161 C-206.74010995 155.03552336 -206.23844821 151.48776869 -202 147 C-201.54625 146.236875 -201.0925 145.47375 -200.625 144.6875 C-199.15603377 142.25805585 -197.60608573 139.9823104 -195.9375 137.6875 C-195.43089844 136.99011719 -194.92429687 136.29273438 -194.40234375 135.57421875 C-193.93957031 135.05472656 -193.47679687 134.53523437 -193 134 C-192.34 134 -191.68 134 -191 134 C-190.731875 133.4225 -190.46375 132.845 -190.1875 132.25 C-188.97070811 129.94449957 -187.69666121 127.97943808 -186 126 C-185.34 126 -184.68 126 -184 126 C-183.62875 125.071875 -183.62875 125.071875 -183.25 124.125 C-181.79371361 121.64931313 -180.62187494 121.04874998 -178 120 C-178 119.01 -178 118.02 -178 117 C-176.26727571 115.65625463 -174.52008647 114.329486 -172.73046875 113.0625 C-169.23947979 110.4255298 -166.01926217 107.52898841 -162.75 104.625 C-155.75313093 98.46265197 -148.51072982 93.20899206 -140.4375 88.5078125 C-137.99086745 86.9943507 -135.8445343 85.3269091 -133.625 83.5 C-128.9521594 79.80845593 -124.63919398 77.87973133 -119 76 C-119 75.34 -119 74.68 -119 74 C-117.20963542 73.0234375 -115.41927083 72.046875 -113.62890625 71.0703125 C-111.83381685 70.08589976 -111.83381685 70.08589976 -111 68 C-109 67 -107 66 -105 65 C-102.72152546 63.47033871 -100.47679666 61.90315911 -98.24609375 60.3046875 C-95.81308938 58.89142931 -93.73915318 58.52531705 -91 58 C-90.690625 57.38125 -90.38125 56.7625 -90.0625 56.125 C-88.47420381 52.94840763 -86.20506246 52.42447221 -83 51 C-77.18106051 48.19443989 -71.58084556 45.08767687 -66.01171875 41.81762695 C-62.7408982 39.91591248 -59.50757912 38.39524938 -56 37 C-53.90023771 35.84179779 -51.81849699 34.65065878 -49.75 33.4375 C-44.25887179 30.25768473 -38.72161325 27.17791995 -33.125 24.1875 C-32.43631836 23.81488037 -31.74763672 23.44226074 -31.03808594 23.05834961 C-27.6567873 21.26320369 -24.31381013 19.68743769 -20.71484375 18.375 C-11.41362308 14.93227689 -5.76068514 7.79080611 0 0 Z M-46 37 C-46 37.66 -46 38.32 -46 39 C-47.98 39.66 -49.96 40.32 -52 41 C-52 41.66 -52 42.32 -52 43 C-51.05125 42.67 -50.1025 42.34 -49.125 42 C-46 41 -46 41 -44 41 C-43.34 39.02 -42.68 37.04 -42 35 C-43.46225016 34.90754997 -43.46225016 34.90754997 -46 37 Z M-52 37 C-51.67 37.66 -51.34 38.32 -51 39 C-50.67 38.34 -50.34 37.68 -50 37 C-50.66 37 -51.32 37 -52 37 Z M-57.625 40.5 C-58.07875 40.995 -58.5325 41.49 -59 42 C-57.02463255 41.65213292 -57.02463255 41.65213292 -55 41 C-54.67 40.34 -54.34 39.68 -54 39 C-56.12364481 38.77390663 -56.12364481 38.77390663 -57.625 40.5 Z M-62.625 43.5 C-63.07875 43.995 -63.5325 44.49 -64 45 C-62.02463255 44.65213292 -62.02463255 44.65213292 -60 44 C-59.67 43.34 -59.34 42.68 -59 42 C-61.12364481 41.77390663 -61.12364481 41.77390663 -62.625 43.5 Z M-56 43 C-54.515 43.99 -54.515 43.99 -53 45 C-52.67 44.34 -52.34 43.68 -52 43 C-53.32 43 -54.64 43 -56 43 Z M-57 48 C-53 49 -53 49 -53 49 Z M-94 61 C-93.67 61.66 -93.34 62.32 -93 63 C-92.01 62.01 -91.02 61.02 -90 60 C-92.0745356 59.8509288 -92.0745356 59.8509288 -94 61 Z M-98 63 C-97 65 -97 65 -97 65 Z M-105 67 C-105.33 67.66 -105.66 68.32 -106 69 C-104.68 69 -103.36 69 -102 69 C-102 68.34 -102 67.68 -102 67 C-102.99 67 -103.98 67 -105 67 Z M-108 69 C-108.33 69.66 -108.66 70.32 -109 71 C-108.01 70.67 -107.02 70.34 -106 70 C-106.66 69.67 -107.32 69.34 -108 69 Z M-81 71 C-81.33 71.66 -81.66 72.32 -82 73 C-81.01 72.67 -80.02 72.34 -79 72 C-79.66 71.67 -80.32 71.34 -81 71 Z M-86 74 C-85.67 74.66 -85.34 75.32 -85 76 C-84.67 75.34 -84.34 74.68 -84 74 C-84.66 74 -85.32 74 -86 74 Z M-116 75 C-116.99 75.495 -116.99 75.495 -118 76 C-118 76.66 -118 77.32 -118 78 C-116.68 77.34 -115.36 76.68 -114 76 C-114.66 75.67 -115.32 75.34 -116 75 Z M-121 78 C-122.67580052 78.97207035 -122.67580052 78.97207035 -124.1875 80.4375 C-125.115625 81.283125 -126.04375 82.12875 -127 83 C-126.01 83.495 -126.01 83.495 -125 84 C-122.69 82.35 -120.38 80.7 -118 79 C-118.99 78.67 -119.98 78.34 -121 78 Z M-101 83 C-101.33 83.66 -101.66 84.32 -102 85 C-101.01 84.67 -100.02 84.34 -99 84 C-99.66 83.67 -100.32 83.34 -101 83 Z M-132 85 C-133.38576923 86.62332967 -134.72641268 88.28724465 -136 90 C-132.06326356 88.68775452 -129.77280706 87.08089673 -127 84 C-129.21081851 83.89459074 -129.21081851 83.89459074 -132 85 Z M-125 97 C-124.67 97.66 -124.34 98.32 -124 99 C-123.67 98.34 -123.34 97.68 -123 97 C-123.66 97 -124.32 97 -125 97 Z M-128 99 C-127.67 99.66 -127.34 100.32 -127 101 C-126.67 100.34 -126.34 99.68 -126 99 C-126.66 99 -127.32 99 -128 99 Z M-223 102 C-222 104 -222 104 -222 104 Z M-225 115 C-224.67 116.32 -224.34 117.64 -224 119 C-223.67 118.01 -223.34 117.02 -223 116 C-223.66 115.67 -224.32 115.34 -225 115 Z M-214 124 C-213 126 -213 126 -213 126 Z M-218 130 C-217.67 130.66 -217.34 131.32 -217 132 C-216.67 131.34 -216.34 130.68 -216 130 C-216.66 130 -217.32 130 -218 130 Z M-226 139 C-226 143.29 -226 147.58 -226 152 C-225.67 152 -225.34 152 -225 152 C-224.67 147.71 -224.34 143.42 -224 139 C-224.66 139 -225.32 139 -226 139 Z M-159 142 C-159 142.66 -159 143.32 -159 144 C-158.01 143.67 -157.02 143.34 -156 143 C-156.99 142.67 -157.98 142.34 -159 142 Z M-152 146 C-151.67 146.66 -151.34 147.32 -151 148 C-150.34 147.67 -149.68 147.34 -149 147 C-149.99 146.67 -150.98 146.34 -152 146 Z M-141 147 C-141 147.66 -141 148.32 -141 149 C-140.34 149 -139.68 149 -139 149 C-138.34 150.32 -137.68 151.64 -137 153 C-136.7226499 149.81509993 -136.7226499 149.81509993 -139 147 C-139.66 147 -140.32 147 -141 147 Z M-181 150 C-181 150.66 -181 151.32 -181 152 C-178.69 152.33 -176.38 152.66 -174 153 C-176.61941217 151.25372522 -178.03824877 150.61277612 -181 150 Z M-217 153 C-216 155 -216 155 -216 155 Z M-136 153 C-135.67 153.99 -135.34 154.98 -135 156 C-135 155.01 -135 154.02 -135 153 C-135.33 153 -135.66 153 -136 153 Z M-134 156 C-133 158 -133 158 -133 158 Z M-227 167 C-226 169 -226 169 -226 169 Z M-217 168 C-217 168.66 -217 169.32 -217 170 C-216.34 170 -215.68 170 -215 170 C-215 169.34 -215 168.68 -215 168 C-215.66 168 -216.32 168 -217 168 Z M-159 168 C-158.01 169.485 -158.01 169.485 -157 171 C-156.34 170.67 -155.68 170.34 -155 170 C-156.32 169.34 -157.64 168.68 -159 168 Z M-228 172 C-227 174 -227 174 -227 174 Z M-229 175 C-229.33 176.32 -229.66 177.64 -230 179 C-229.34 178.67 -228.68 178.34 -228 178 C-228.33 177.01 -228.66 176.02 -229 175 Z M-228 216 C-228 218.64 -228 221.28 -228 224 C-227.34 223.34 -226.68 222.68 -226 222 C-226.32198966 218.90073181 -226.32198966 218.90073181 -227 216 C-227.33 216 -227.66 216 -228 216 Z M-152 220 C-152.66 221.65 -153.32 223.3 -154 225 C-152.68 224.34 -151.36 223.68 -150 223 C-150 222.01 -150 221.02 -150 220 C-150.66 220 -151.32 220 -152 220 Z M-147 220 C-146 222 -146 222 -146 222 Z M-232 221 C-231 223 -231 223 -231 223 Z M-231 224 C-230 227 -230 227 -230 227 Z M-228 225 C-227.40138258 227.35171131 -226.73075648 229.6859378 -226 232 C-225.34 232.33 -224.68 232.66 -224 233 C-224.66 230.36 -225.32 227.72 -226 225 C-226.66 225 -227.32 225 -228 225 Z M-230 228 C-229 230 -229 230 -229 230 Z M-222 229 C-221 231 -221 231 -221 231 Z M-222 233 C-222.33218192 236.00259517 -222.33218192 236.00259517 -220.5 237.6875 C-220.005 238.120625 -219.51 238.55375 -219 239 C-218.01 238.67 -217.02 238.34 -216 238 C-217.98 236.35 -219.96 234.7 -222 233 Z M-225 236 C-224.67 236.99 -224.34 237.98 -224 239 C-224 238.01 -224 237.02 -224 236 C-224.33 236 -224.66 236 -225 236 Z M-223 239 C-222.34 239.66 -221.68 240.32 -221 241 C-221 240.34 -221 239.68 -221 239 C-221.66 239 -222.32 239 -223 239 Z M-221 241 C-221 241.66 -221 242.32 -221 243 C-218.525 243.99 -218.525 243.99 -216 245 C-216.66 243.68 -217.32 242.36 -218 241 C-218.99 241 -219.98 241 -221 241 Z " fill="#000000" transform="translate(734,241)"/>
<path d="M0 0 C0.66 0 1.32 0 2 0 C2.22566098 1.37226269 2.42959874 2.74810272 2.625 4.125 C2.79902344 5.27355469 2.79902344 5.27355469 2.9765625 6.4453125 C3.00580808 9.6330805 2.01848332 11.98118613 1 15 C0.5308208 17.77876544 0.26632765 20.57036966 0 23.375 C-0.16304786 24.96364613 -0.32713398 26.552186 -0.4921875 28.140625 C-0.57436523 28.94306641 -0.65654297 29.74550781 -0.74121094 30.57226562 C-1.15238083 34.42950471 -1.63559116 38.277023 -2.125 42.125 C-2.21265625 42.81770996 -2.3003125 43.51041992 -2.390625 44.22412109 C-2.59264136 45.81622179 -2.79613714 47.40813469 -3 49 C-3.66 49 -4.32 49 -5 49 C-4.82597656 49.97066406 -4.65195312 50.94132812 -4.47265625 51.94140625 C-3.84645403 56.32482177 -4.10945367 60.53715435 -4.4375 64.9375 C-4.48970703 65.71673828 -4.54191406 66.49597656 -4.59570312 67.29882812 C-4.72398064 69.19966772 -4.86107321 71.09990904 -5 73 C-5.66 73 -6.32 73 -7 73 C-6.505 73.99 -6.505 73.99 -6 75 C-5.92883618 77.37402501 -5.91590915 79.75000677 -5.9375 82.125 C-5.94652344 83.40632813 -5.95554687 84.68765625 -5.96484375 86.0078125 C-5.97644531 86.99523437 -5.98804688 87.98265625 -6 89 C-6.66 89 -7.32 89 -8 89 C-7.7525 90.36125 -7.7525 90.36125 -7.5 91.75 C-5.57002438 105.42765334 -5.57002438 105.42765334 -7.99780273 109.79492188 C-9.29778142 112.65519166 -9.25898482 114.91400871 -9.265625 118.05078125 C-9.26820313 119.22447266 -9.27078125 120.39816406 -9.2734375 121.60742188 C-9.26570312 122.83009766 -9.25796875 124.05277344 -9.25 125.3125 C-9.25773438 126.52357422 -9.26546875 127.73464844 -9.2734375 128.98242188 C-9.26013099 135.06016847 -9.09386685 140.28270398 -7 146 C-6.69320312 146.99644531 -6.38640625 147.99289062 -6.0703125 149.01953125 C-5.75835938 149.94121094 -5.44640625 150.86289062 -5.125 151.8125 C-4.81820312 152.74707031 -4.51140625 153.68164062 -4.1953125 154.64453125 C-2.78461269 157.4244397 -1.90785019 158.00549361 1 159 C6.6802903 160.04138655 11.31062953 159.91436311 17 159 C17 158.34 17 157.68 17 157 C18.0725 156.773125 19.145 156.54625 20.25 156.3125 C24.56601132 154.80189604 25.54260284 153.76800899 28 150 C28.36480469 149.46761719 28.72960937 148.93523437 29.10546875 148.38671875 C34.01483295 140.96706476 39.72850851 131.8837103 41 123 C41.66 123 42.32 123 43 123 C43 123.66 43 124.32 43 125 C44.485 125.495 44.485 125.495 46 126 C45.88535985 128.70912781 45.75862846 131.41679661 45.625 134.125 C45.5940625 134.88554687 45.563125 135.64609375 45.53125 136.4296875 C45.297631 140.94632158 44.67345883 144.74152347 43 149 C42.34 149 41.68 149 41 149 C41.33 149.99 41.66 150.98 42 152 C41.51171875 154.33984375 41.51171875 154.33984375 40.6875 156.9375 C40.42324219 157.79214844 40.15898438 158.64679688 39.88671875 159.52734375 C39.07301348 161.79639852 38.12972641 163.87374636 37 166 C36.34 166 35.68 166 35 166 C34.9175 166.721875 34.835 167.44375 34.75 168.1875 C33.85274392 171.55221031 32.21462486 173.35673807 30 176 C30 176.66 30 177.32 30 178 C29.01 178.33 28.02 178.66 27 179 C26.67 179.99 26.34 180.98 26 182 C25.01 182 24.02 182 23 182 C23 182.66 23 183.32 23 184 C21 186 21 186 18 187 C17.67 187.99 17.34 188.98 17 190 C15.15625 190.59375 15.15625 190.59375 13 191 C11.845 191.495 10.69 191.99 9.5 192.5 C4.24172458 194.49281733 -1.38683753 195.35614548 -7 195 C-9.703125 193.57421875 -9.703125 193.57421875 -12 192 C-14.38031317 191.01304088 -16.77212272 190.08464013 -19.1875 189.1875 C-21.66231647 187.56606852 -22.0206889 185.72808093 -23 183 C-23.66 182.67 -24.32 182.34 -25 182 C-28.91802338 173.22937886 -28.54066535 163.38886174 -28 154 C-27.505 153.01 -27.505 153.01 -27 152 C-27.11658874 150.53681137 -27.29307644 149.07816776 -27.5 147.625 C-28.25603444 140.94669575 -27.90146033 134.2091263 -26.4921875 127.62890625 C-25.7215517 123.51273251 -25.60680143 119.35042811 -25.39453125 115.17578125 C-25.10323661 110.10323661 -25.10323661 110.10323661 -24 109 C-23.91299658 107.36527118 -23.89298937 105.72685945 -23.90234375 104.08984375 C-23.90556641 103.10048828 -23.90878906 102.11113281 -23.91210938 101.09179688 C-23.92048828 100.05087891 -23.92886719 99.00996094 -23.9375 97.9375 C-23.94201172 96.89271484 -23.94652344 95.84792969 -23.95117188 94.77148438 C-23.96300087 92.1809334 -23.97948311 89.59049441 -24 87 C-24.99 87.99 -24.99 87.99 -26 89 C-26.625 86.6875 -26.625 86.6875 -27 84 C-26.34 83.01 -25.68 82.02 -25 81 C-24.34 81.33 -23.68 81.66 -23 82 C-22.91697632 80.91730835 -22.91697632 80.91730835 -22.83227539 79.81274414 C-22.5803846 76.56227832 -22.32153699 73.31240379 -22.0625 70.0625 C-21.93198242 68.35803711 -21.93198242 68.35803711 -21.79882812 66.61914062 C-21.71181641 65.53955078 -21.62480469 64.45996094 -21.53515625 63.34765625 C-21.456604 62.34742432 -21.37805176 61.34719238 -21.29711914 60.31665039 C-21 58 -21 58 -20 57 C-19.97934545 55.6249973 -20.00893284 54.24911411 -20.0625 52.875 C-20.11688492 48.57179358 -19.27523934 45.12577434 -18 41 C-17.81050781 39.20175781 -17.81050781 39.20175781 -17.6171875 37.3671875 C-17.05636537 32.5828629 -15.63047453 28.22597783 -14.0625 23.6875 C-13.79759766 22.89021484 -13.53269531 22.09292969 -13.25976562 21.27148438 C-12.08234984 17.79766957 -11.05483475 15.08225212 -9 12 C-9 11.01 -9 10.02 -9 9 C-8.34 9 -7.68 9 -7 9 C-6.67 6.69 -6.34 4.38 -6 2 C-5.34 2 -4.68 2 -4 2 C-3.67 4.97 -3.34 7.94 -3 11 C-2.01 7.37 -1.02 3.74 0 0 Z M-13 30 C-12 32 -12 32 -12 32 Z M-15 39 C-14 41 -14 41 -14 41 Z M-8 41 C-8 41.66 -8 42.32 -8 43 C-7.34 42.67 -6.68 42.34 -6 42 C-6.66 41.67 -7.32 41.34 -8 41 Z M-6 44 C-5 46 -5 46 -5 46 Z M-16 49 C-16 52 -16 52 -16 52 Z M-8 54 C-8 54.99 -8 55.98 -8 57 C-7.34 56.67 -6.68 56.34 -6 56 C-6 55.34 -6 54.68 -6 54 C-6.66 54 -7.32 54 -8 54 Z M-18 56 C-17 60 -17 60 -17 60 Z M-18 62 C-17 64 -17 64 -17 64 Z M-19 65 C-18 68 -18 68 -18 68 Z M-8 65 C-8 66.98 -8 68.96 -8 71 C-7.34 70.34 -6.68 69.68 -6 69 C-6.3185177 66.89179203 -6.3185177 66.89179203 -7 65 C-7.33 65 -7.66 65 -8 65 Z M-21 72 C-21 72.66 -21 73.32 -21 74 C-20.34 74 -19.68 74 -19 74 C-19 73.34 -19 72.68 -19 72 C-19.66 72 -20.32 72 -21 72 Z M-21 76 C-21 78.97 -21 81.94 -21 85 C-20.67 85 -20.34 85 -20 85 C-19.67 82.03 -19.34 79.06 -19 76 C-19.66 76 -20.32 76 -21 76 Z M-24 83 C-23 86 -23 86 -23 86 Z M-18 84 C-17 86 -17 86 -17 86 Z M-12 85 C-11.67 85.66 -11.34 86.32 -11 87 C-10.67 86.34 -10.34 85.68 -10 85 C-10.66 85 -11.32 85 -12 85 Z M-8 86 C-7 88 -7 88 -7 88 Z M-22 87 C-22 89.64 -22 92.28 -22 95 C-21.34 94.67 -20.68 94.34 -20 94 C-20 92.02 -20 90.04 -20 88 C-20.66 87.67 -21.32 87.34 -22 87 Z M-19 95 C-18.01 96.485 -18.01 96.485 -17 98 C-17 97.01 -17 96.02 -17 95 C-17.66 95 -18.32 95 -19 95 Z M-11 95 C-10 97 -10 97 -10 97 Z M-22 97 C-21 99 -21 99 -21 99 Z M-23 100 C-22.34 100.66 -21.68 101.32 -21 102 C-21 101.34 -21 100.68 -21 100 C-21.66 100 -22.32 100 -23 100 Z M-11 102 C-11.33 102.66 -11.66 103.32 -12 104 C-11.34 104 -10.68 104 -10 104 C-10.33 103.34 -10.66 102.68 -11 102 Z M-13 107 C-12 110 -12 110 -12 110 Z M42 127 C43 130 43 130 43 130 Z M-23 165 C-23 168.3 -23 171.6 -23 175 C-22.01 175.495 -22.01 175.495 -21 176 C-20.82299645 171.39790775 -20.89185433 169.21629134 -23 165 Z M31 169 C30.01 169.99 29.02 170.98 28 172 C29.32 171.67 30.64 171.34 32 171 C31.67 170.34 31.34 169.68 31 169 Z M-20 173 C-19 175 -19 175 -19 175 Z M27 173 C26.67 173.99 26.34 174.98 26 176 C26.99 175.67 27.98 175.34 29 175 C28.34 174.34 27.68 173.68 27 173 Z M24 176 C23.67 177.32 23.34 178.64 23 180 C23.99 179.01 24.98 178.02 26 177 C25.34 176.67 24.68 176.34 24 176 Z M-21 177 C-20 179 -20 179 -20 179 Z M-18 179 C-18 182 -18 182 -18 182 Z M-14 180 C-13.34 180.66 -12.68 181.32 -12 182 C-12 181.34 -12 180.68 -12 180 C-12.66 180 -13.32 180 -14 180 Z M20 181 C20.33 181.66 20.66 182.32 21 183 C21.33 182.34 21.66 181.68 22 181 C21.34 181 20.68 181 20 181 Z M-17 182 C-16.34 182.66 -15.68 183.32 -15 184 C-15 183.34 -15 182.68 -15 182 C-15.66 182 -16.32 182 -17 182 Z M-19 183 C-18 185 -18 185 -18 185 Z M1 190 C1.33 190.66 1.66 191.32 2 192 C2.33 191.34 2.66 190.68 3 190 C2.34 190 1.68 190 1 190 Z " fill="#000000" transform="translate(781,292)"/>
<path d="M0 0 C0.66 0 1.32 0 2 0 C1.67 1.32 1.34 2.64 1 4 C0.34 4 -0.32 4 -1 4 C-1.33 4.99 -1.66 5.98 -2 7 C-2.96873032 8.35622245 -3.96434215 9.69417053 -5 11 C-4.01 11.66 -3.02 12.32 -2 13 C-2 13.66 -2 14.32 -2 15 C-1.38125 15.2475 -0.7625 15.495 -0.125 15.75 C2.35068687 17.20628639 2.95125002 18.37812506 4 21 C4.66 21 5.32 21 6 21 C6.495 22.485 6.495 22.485 7 24 C7.51175781 24.41894531 8.02351562 24.83789062 8.55078125 25.26953125 C10.78312908 27.93511101 10.28842792 30.28959335 10.1875 33.6875 C10.14689453 35.45673828 10.14689453 35.45673828 10.10546875 37.26171875 C10.07066406 38.16535156 10.03585937 39.06898438 10 40 C10.33 40 10.66 40 11 40 C11.02730408 41.56240032 11.04653226 43.1249427 11.0625 44.6875 C11.07410156 45.55761719 11.08570313 46.42773438 11.09765625 47.32421875 C10.75782986 56.63546185 6.95202712 65.69472472 3 74 C2.34 74 1.68 74 1 74 C0.88527344 74.58523438 0.77054688 75.17046875 0.65234375 75.7734375 C-1.65500318 83.64881325 -9.92901628 90.91375852 -16 96 C-18.4934795 97.22238071 -20.22639667 97.63822565 -23 98 C-23 98.66 -23 99.32 -23 100 C-39.16694176 108.88894129 -39.16694176 108.88894129 -45 110 C-46.093125 110.474375 -47.18625 110.94875 -48.3125 111.4375 C-59.52169812 115.70368734 -78.32182238 117.5442751 -90.04589844 114.4621582 C-92.84596078 113.79992457 -95.21497024 114.43033482 -98 115 C-97.375 113.125 -97.375 113.125 -96 111 C-93.125 109.8125 -93.125 109.8125 -90 109 C-88.824375 108.690625 -88.824375 108.690625 -87.625 108.375 C-86.820625 108.189375 -86.820625 108.189375 -86 108 C-88.31 107.34 -90.62 106.68 -93 106 C-93 105.67 -93 105.34 -93 105 C-90.69 105 -88.38 105 -86 105 C-86 104.34 -86 103.68 -86 103 C-84.948125 102.94392578 -84.948125 102.94392578 -83.875 102.88671875 C-78.42987998 102.50940744 -73.86765783 101.82244912 -68.84375 99.69140625 C-65.98639445 98.61989792 -63.0124866 98.40552704 -60 98 C-59.278125 97.62875 -58.55625 97.2575 -57.8125 96.875 C-55.47566556 95.74687303 -54.42105861 96.27368242 -52 97 C-51.34 96.67 -50.68 96.34 -50 96 C-50 95.34 -50 94.68 -50 94 C-49.00742187 93.5153125 -48.01484375 93.030625 -46.9921875 92.53125 C-28.74485105 84.10225975 -28.74485105 84.10225975 -13.453125 71.46875 C-12.97359375 70.9840625 -12.4940625 70.499375 -12 70 C-11.34 70 -10.68 70 -10 70 C-10.03275716 59.40305964 -11.8492745 53.50459213 -19.046875 45.8125 C-24.8994137 40.16749813 -31.20852106 36.3484712 -39.4375 35.75 C-40.283125 35.8325 -41.12875 35.915 -42 36 C-42.99 36 -43.98 36 -45 36 C-46.52708252 36.28037344 -48.04798834 36.59567447 -49.5625 36.9375 C-50.34753906 37.11152344 -51.13257813 37.28554688 -51.94140625 37.46484375 C-54.04361254 37.93522711 -54.04361254 37.93522711 -56 39 C-56.99 38.505 -56.99 38.505 -58 38 C-57.649375 37.401875 -57.29875 36.80375 -56.9375 36.1875 C-55.66695302 33.89186786 -55.66695302 33.89186786 -57 31 C-56.34 31 -55.68 31 -55 31 C-54.88527344 30.42765625 -54.77054688 29.8553125 -54.65234375 29.265625 C-53.93817644 26.78528344 -52.92692128 24.93631303 -51.5625 22.75 C-51.13066406 22.04359375 -50.69882812 21.3371875 -50.25390625 20.609375 C-49.63322266 19.81273437 -49.63322266 19.81273437 -49 19 C-48.34 19 -47.68 19 -47 19 C-46.34 17.35 -45.68 15.7 -45 14 C-44.34 14 -43.68 14 -43 14 C-42.90332031 13.39542969 -42.80664062 12.79085938 -42.70703125 12.16796875 C-41.84828226 9.53478816 -40.95231589 8.84985897 -38.6875 7.3125 C-38.09324219 6.89613281 -37.49898437 6.47976563 -36.88671875 6.05078125 C-32.93790328 3.85154448 -28.44121713 3.5027793 -24 3 C-23.505 3.495 -23.505 3.495 -23 4 C-20.2307936 4.53670287 -17.45054915 4.9648874 -14.6640625 5.40234375 C-12 6 -12 6 -9 8 C-7.8553125 6.7934375 -7.8553125 6.7934375 -6.6875 5.5625 C-4 3 -4 3 -1 2 C-0.67 1.34 -0.34 0.68 0 0 Z M-38 9 C-37 11 -37 11 -37 11 Z M-17 13 C-17 13.66 -17 14.32 -17 15 C-15.68 15.33 -14.36 15.66 -13 16 C-13 15.01 -13 14.02 -13 13 C-14.32 13 -15.64 13 -17 13 Z M-11 16 C-9.6910428 19.12197478 -9.6910428 19.12197478 -7 21 C-8.3089572 17.87802522 -8.3089572 17.87802522 -11 16 Z M-7 21 C-6 23 -6 23 -6 23 Z M3 25 C4 27 4 27 4 27 Z M-40 29 C-40.33 29.66 -40.66 30.32 -41 31 C-40.01 30.67 -39.02 30.34 -38 30 C-38.66 29.67 -39.32 29.34 -40 29 Z M5 31 C6 33 6 33 6 33 Z M-60 99 C-60.33 99.66 -60.66 100.32 -61 101 C-59.68 100.34 -58.36 99.68 -57 99 C-57.99 99 -58.98 99 -60 99 Z " fill="#000000" transform="translate(718,375)"/>
<path d="M0 0 C0.495 1.485 0.495 1.485 1 3 C-0.98 4.65 -2.96 6.3 -5 8 C-4.45275433 11.8307197 -2.71844729 13.36924456 0 16 C0 16.66 0 17.32 0 18 C0.59167969 18.23074219 1.18335938 18.46148437 1.79296875 18.69921875 C4.57531405 20.3390789 5.64885987 22.0590311 7.3125 24.8125 C7.84488281 25.66457031 8.37726563 26.51664062 8.92578125 27.39453125 C10.20327722 30.49303965 9.71498599 31.80571007 9 35 C9.65548612 36.33886526 10.32358348 37.67158632 11 39 C12.80573162 58.51128196 5.40510594 75.52404503 -6 91 C-6.50917969 91.73734375 -7.01835937 92.4746875 -7.54296875 93.234375 C-8.26419922 94.10835937 -8.26419922 94.10835937 -9 95 C-9.66 95 -10.32 95 -11 95 C-11.3403125 96.175625 -11.3403125 96.175625 -11.6875 97.375 C-13 100 -13 100 -15.625 101.3125 C-16.40875 101.539375 -17.1925 101.76625 -18 102 C-18 102.66 -18 103.32 -18 104 C-19.65 104 -21.3 104 -23 104 C-23.495 105.485 -23.495 105.485 -24 107 C-26.80077907 108.78231395 -29.57380809 109.45556404 -32.8125 110.0625 C-34.11767578 110.30806641 -34.11767578 110.30806641 -35.44921875 110.55859375 C-38.62669371 111.10844776 -41.80245465 111.58292887 -45 112 C-45.495 111.01 -45.495 111.01 -46 110 C-47.61841584 109.26928667 -49.27064574 108.6122162 -50.9375 108 C-57.30922166 105.65300612 -60.08500225 101.86382938 -63.10546875 95.76953125 C-66.35184156 85.7185342 -63.77724433 73.84266902 -61 64 C-60.66251623 62.66771114 -60.32734761 61.3348155 -60 60 C-59.34 60 -58.68 60 -58 60 C-57.67 57.69 -57.34 55.38 -57 53 C-56.34 53 -55.68 53 -55 53 C-54.773125 52.34 -54.54625 51.68 -54.3125 51 C-52.59428642 47.07265467 -50.33225393 43.58739822 -48 40 C-48.99 40 -49.98 40 -51 40 C-52.35494054 37.29011892 -51.508622 35.70672434 -50.64599609 32.92138672 C-47.006274 22.09575827 -42.6857982 12.60736622 -33 6 C-27.12363305 3.8723499 -23.23959229 3.99394728 -17.19921875 5.4921875 C-14.88899997 6.11249295 -14.88899997 6.11249295 -12 6 C-11.505 6.99 -11.505 6.99 -11 8 C-8.00847418 7.22520264 -8.00847418 7.22520264 -5 6 C-4.67 5.01 -4.34 4.02 -4 3 C-1.9375 1.3125 -1.9375 1.3125 0 0 Z M-8 12 C-8 12.66 -8 13.32 -8 14 C-7.34 13.67 -6.68 13.34 -6 13 C-6.66 12.67 -7.32 12.34 -8 12 Z M-17 14 C-17 14.66 -17 15.32 -17 16 C-16.01 15.67 -15.02 15.34 -14 15 C-14.99 14.67 -15.98 14.34 -17 14 Z M-13 16 C-11.68 17.32 -10.36 18.64 -9 20 C-8.01 19.67 -7.02 19.34 -6 19 C-9.25397508 16.74114676 -9.25397508 16.74114676 -13 16 Z M-6 21 C-5 23 -5 23 -5 23 Z M-14 22 C-13.34 22.66 -12.68 23.32 -12 24 C-12 23.34 -12 22.68 -12 22 C-12.66 22 -13.32 22 -14 22 Z M-7 25 C-7 25.66 -7 26.32 -7 27 C-6.34 27 -5.68 27 -5 27 C-5 26.34 -5 25.68 -5 25 C-5.66 25 -6.32 25 -7 25 Z M-41.76953125 40.31640625 C-42.37861328 41.64478516 -42.37861328 41.64478516 -43 43 C-43.7734375 44.670625 -43.7734375 44.670625 -44.5625 46.375 C-45.95642153 49.89010645 -47.05147894 53.34141878 -48 57 C-48.268125 57.804375 -48.53625 58.60875 -48.8125 59.4375 C-49.20255418 64.76824043 -46.89317326 68.92361171 -43.5625 72.9375 C-40.60248267 75.39192496 -40.60248267 75.39192496 -37 76 C-34.29534258 75.13545562 -34.29534258 75.13545562 -32 74 C-32 74.66 -32 75.32 -32 76 C-27.94306024 77.66200331 -24.50783976 76.25261325 -20.5625 74.9375 C-19.90701172 74.74478516 -19.25152344 74.55207031 -18.57617188 74.35351562 C-13.45584894 72.67413187 -10.90611229 70.57474709 -8 66 C-7.06654016 59.65411074 -9.85205934 54.37533471 -13 49 C-14.87979425 46.93270709 -16.68204941 45.62749722 -19 44 C-19.680625 43.278125 -20.36125 42.55625 -21.0625 41.8125 C-24.88250092 38.23895076 -29.02413855 37.67116497 -34.125 37.5625 C-35.15882813 37.52253906 -36.19265625 37.48257813 -37.2578125 37.44140625 C-40.19291026 37.72632909 -40.19291026 37.72632909 -41.76953125 40.31640625 Z M-62 86 C-61 89 -61 89 -61 89 Z M-61 90 C-60.43260132 94.12973628 -60.43260132 94.12973628 -59 98 C-58.34 98 -57.68 98 -57 98 C-57 98.66 -57 99.32 -57 100 C-56.34 100 -55.68 100 -55 100 C-55 100.99 -55 101.98 -55 103 C-53.68 103.33 -52.36 103.66 -51 104 C-51 103.34 -51 102.68 -51 102 C-51.66 102 -52.32 102 -53 102 C-53.27714844 101.42765625 -53.55429687 100.8553125 -53.83984375 100.265625 C-54.98856794 98.02232523 -56.23413994 95.89123711 -57.5625 93.75 C-57.99691406 93.04359375 -58.43132812 92.3371875 -58.87890625 91.609375 C-59.24886719 91.07828125 -59.61882812 90.5471875 -60 90 C-60.33 90 -60.66 90 -61 90 Z M-22 92 C-21 94 -21 94 -21 94 Z M-24 94 C-25.485 95.98 -25.485 95.98 -27 98 C-25.68 97.34 -24.36 96.68 -23 96 C-23.33 95.34 -23.66 94.68 -24 94 Z M-19 99 C-19 99.66 -19 100.32 -19 101 C-16.50447516 100.21869929 -16.50447516 100.21869929 -14 99 C-13.67 98.01 -13.34 97.02 -13 96 C-15.79908133 96 -16.92722373 97.2035939 -19 99 Z M-21 101 C-21.33 101.66 -21.66 102.32 -22 103 C-21.01 102.67 -20.02 102.34 -19 102 C-19.66 101.67 -20.32 101.34 -21 101 Z " fill="#000000" transform="translate(472,375)"/>
<path d="M0 0 C3.50645951 0.50092279 6.02129383 2.16695005 9 4 C9.99 4.33 10.98 4.66 12 5 C12 5.66 12 6.32 12 7 C12.70125 7.103125 13.4025 7.20625 14.125 7.3125 C17.5261032 8.12580729 20.05170866 9.09999003 23 11 C25.09918282 14.84850183 25.09689596 16.57088933 24.125 20.875 C23.568125 22.421875 23.568125 22.421875 23 24 C22.34 24 21.68 24 21 24 C21 25.65 21 27.3 21 29 C19.515 29.495 19.515 29.495 18 30 C18 31.32 18 32.64 18 34 C17.34 34 16.68 34 16 34 C14.62446506 37.42669581 14.62446506 37.42669581 14 41 C9.01044714 42.37642837 6.39685941 41.88148541 1.8125 39.5 C0.91144531 39.0359375 0.01039063 38.571875 -0.91796875 38.09375 C-1.94857422 37.55234375 -1.94857422 37.55234375 -3 37 C-3 36.34 -3 35.68 -3 35 C-3.556875 35.2475 -4.11375 35.495 -4.6875 35.75 C-7 36 -7 36 -9.5 34.1875 C-10.325 33.465625 -11.15 32.74375 -12 32 C-13.31138904 31.29114106 -14.63777017 30.60543548 -16 30 C-16.2784375 30.5775 -16.556875 31.155 -16.84375 31.75 C-18.31795745 34.61872802 -20.04272703 37.28620805 -21.78125 40 C-22.97255689 41.95496516 -24.00618782 43.93875993 -25 46 C-25.66 46 -26.32 46 -27 46 C-28.33783393 46.31478446 -29.67203709 46.64587656 -31 47 C-31 46.34 -31 45.68 -31 45 C-31.86625 44.814375 -31.86625 44.814375 -32.75 44.625 C-35.02335767 43.99351176 -36.9253529 43.11141809 -39 42 C-39 41.34 -39 40.68 -39 40 C-40.485 40.495 -40.485 40.495 -42 41 C-43.97265625 40.0390625 -43.97265625 40.0390625 -46.0625 38.625 C-46.75472656 38.16351562 -47.44695313 37.70203125 -48.16015625 37.2265625 C-48.76730469 36.82179688 -49.37445312 36.41703125 -50 36 C-50.66 35.67 -51.32 35.34 -52 35 C-51.34 31.04 -50.68 27.08 -50 23 C-49.34 23 -48.68 23 -48 23 C-47.88527344 22.42765625 -47.77054688 21.8553125 -47.65234375 21.265625 C-46.93817644 18.78528344 -45.92692128 16.93631303 -44.5625 14.75 C-44.13066406 14.04359375 -43.69882812 13.3371875 -43.25390625 12.609375 C-42.84011719 12.07828125 -42.42632813 11.5471875 -42 11 C-41.34 11 -40.68 11 -40 11 C-40.33 9.68 -40.66 8.36 -41 7 C-39.02 6.34 -37.04 5.68 -35 5 C-34.67 6.32 -34.34 7.64 -34 9 C-31.69 9.33 -29.38 9.66 -27 10 C-27 10.66 -27 11.32 -27 12 C-26.01 11.67 -25.02 11.34 -24 11 C-23.67 11.99 -23.34 12.98 -23 14 C-22.401875 14.144375 -21.80375 14.28875 -21.1875 14.4375 C-18.20140345 15.2053534 -16.93537629 16.64990022 -15 19 C-15 19.99 -15 20.98 -15 22 C-14.34 22 -13.68 22 -13 22 C-12.979375 21.175 -12.95875 20.35 -12.9375 19.5 C-11.76159595 15.1099582 -9.60092841 12.95790556 -6.49609375 9.734375 C-4.78227475 8.12934654 -4.78227475 8.12934654 -5 6 C-4.34 6 -3.68 6 -3 6 C-2.690625 5.195625 -2.38125 4.39125 -2.0625 3.5625 C-1 1 -1 1 0 0 Z M-2 4 C-1.67 4.99 -1.34 5.98 -1 7 C-0.67 6.01 -0.34 5.02 0 4 C-0.66 4 -1.32 4 -2 4 Z M3 6 C3.33 6.66 3.66 7.32 4 8 C4.66 7.34 5.32 6.68 6 6 C5.01 6 4.02 6 3 6 Z M5 8 C5 8.66 5 9.32 5 10 C5.66 10 6.32 10 7 10 C7 9.34 7 8.68 7 8 C6.34 8 5.68 8 5 8 Z M10 8 C9.34 8.66 8.68 9.32 8 10 C9.32 9.67 10.64 9.34 12 9 C11.34 8.67 10.68 8.34 10 8 Z M-29 11 C-28 13 -28 13 -28 13 Z M-28 13 C-27.67 13.99 -27.34 14.98 -27 16 C-26.34 16 -25.68 16 -25 16 C-25 15.34 -25 14.68 -25 14 C-25.99 13.67 -26.98 13.34 -28 13 Z M-30 15 C-29.34 15.66 -28.68 16.32 -28 17 C-28 16.34 -28 15.68 -28 15 C-28.66 15 -29.32 15 -30 15 Z M-32 17 C-31.67 17.66 -31.34 18.32 -31 19 C-28.97536745 19.65213292 -28.97536745 19.65213292 -27 20 C-27 19.34 -27 18.68 -27 18 C-28.65 17.67 -30.3 17.34 -32 17 Z M-6 31 C-5.67 31.99 -5.34 32.98 -5 34 C-3.68 33.67 -2.36 33.34 -1 33 C-1.66 32.34 -2.32 31.68 -3 31 C-3.99 31 -4.98 31 -6 31 Z M-42 32 C-41.01 33.485 -41.01 33.485 -40 35 C-39.34 34.67 -38.68 34.34 -38 34 C-39.32 33.34 -40.64 32.68 -42 32 Z M-47 34 C-46.01 35.485 -46.01 35.485 -45 37 C-44.34 36.34 -43.68 35.68 -43 35 C-44.32 34.67 -45.64 34.34 -47 34 Z M-43 36 C-42.34 36.66 -41.68 37.32 -41 38 C-40.01 37.67 -39.02 37.34 -38 37 C-39.65 36.67 -41.3 36.34 -43 36 Z " fill="#000000" transform="translate(799,502)"/>
</svg>
